<?xml version="1.0" standalone="no"?>
<!DOCTYPE svg PUBLIC "-//W3C//DTD SVG 1.1//EN" "http://www.w3.org/Graphics/SVG/1.1/DTD/svg11.dtd" >
<svg xmlns="http://www.w3.org/2000/svg" xmlns:xlink="http://www.w3.org/1999/xlink" version="1.1">
<metadata>
Created by FontForge 20201107 at Fri Apr  7 21:15:37 2023
 By 
Copyright tiono785 2021
"fs Tahoma 8px" by "ETHproductions" (https://fontstruct.com/fontstructors/show/677683/ethproductions)
</metadata>
<defs>
<font id="WindowsXPTahoma" horiz-adv-x="384" >
  <font-face 
    font-family="Windows XP Tahoma"
    font-weight="400"
    font-stretch="normal"
    units-per-em="1024"
    panose-1="0 0 4 0 0 0 0 0 0 0"
    ascent="819"
    descent="-205"
    x-height="384"
    cap-height="512"
    bbox="-256 -128 960 704"
    underline-thickness="51"
    underline-position="77"
    unicode-range="U+0020-FEFC"
  />
<missing-glyph horiz-adv-x="507" 
d="M373 50l-152 218l-152 -218h304zM50 69l152 219l-152 218v-437zM393 69v437l-153 -218zM221 307l152 219h-304zM0 0v576h443v-576h-443z" />
    <glyph glyph-name="uniFE80" unicode="&#x621;" horiz-adv-x="320" arabic-form="isolated" 
d="M0 0v64h64v-64h-64zM64 64v64h192v-64h-192zM0 128v128h64v-128h-64zM64 256v64h192v-64h-192z" />
    <glyph glyph-name="uniFE81" unicode="&#x622;" horiz-adv-x="256" arabic-form="isolated" 
d="M0 0v512h64v-512h-64zM-64 576v64h64v-64h-64zM64 576v64h64v-64h-64zM0 640v64h64v-64h-64zM128 640v64h64v-64h-64z" />
    <glyph glyph-name="uniFE82" unicode="&#x622;" horiz-adv-x="256" arabic-form="final" 
d="M64 0v64h128v-64h-128zM0 64v448h64v-448h-64zM-128 576v64h64v-64h-64zM0 576v64h64v-64h-64zM-64 640v64h64v-64h-64zM64 640v64h64v-64h-64z" />
    <glyph glyph-name="uniFE83" unicode="&#x623;" horiz-adv-x="192" arabic-form="isolated" 
d="M0 -64v512h64v-512h-64zM-64 512v64h64v64h64v-64h64v-64h-192zM64 640v64h64v-64h-64z" />
    <glyph glyph-name="uniFE84" unicode="&#x623;" horiz-adv-x="256" arabic-form="final" 
d="M64 -64v64h128v-64h-128zM0 0v448h64v-448h-64zM-64 512v64h64v64h64v-64h64v-64h-192zM64 640v64h64v-64h-64z" />
    <glyph glyph-name="uniFE85" unicode="&#x624;" horiz-adv-x="320" arabic-form="isolated" 
d="M0 -128v64h192v-64h-192zM0 192v128h64v-128h-64zM192 -64v192h-128v64h128v128h64v-384h-64zM64 320v64h128v-64h-128zM0 448v64h64v64h64v-64h64v-64h-192zM128 576v64h64v-64h-64z" />
    <glyph glyph-name="uniFE86" unicode="&#x624;" horiz-adv-x="448" arabic-form="final" 
d="M0 -128v64h192v-64h-192zM0 128v192h64v-192h-64zM192 -64v128h-128v64h128v192h64v-192h128v-64h-128v-128h-64zM64 320v64h128v-64h-128zM0 448v64h64v64h64v-64h64v-64h-192zM128 576v64h64v-64h-64z" />
    <glyph glyph-name="uniFE87" unicode="&#x625;" horiz-adv-x="192" arabic-form="isolated" 
d="M-64 -128v64h64v64h64v-64h64v-64h-192zM64 0v64h64v-64h-64zM0 64v512h64v-512h-64z" />
    <glyph glyph-name="uniFE88" unicode="&#x625;" horiz-adv-x="256" arabic-form="final" 
d="M-64 -128v64h64v64h64v-64h64v-64h-192zM64 0v128h128v-64h-64v-64h-64zM0 128v448h64v-448h-64z" />
    <glyph glyph-name="uniFE89" unicode="&#x626;" horiz-adv-x="640" arabic-form="isolated" 
d="M64 0v64h448v-64h-448zM512 64v128h64v-128h-64zM0 64v192h64v-192h-64zM384 192v64h128v-64h-128zM320 256v128h64v-128h-64zM512 320v64h64v-64h-64zM64 320v64h64v64h64v-64h64v-64h-192zM384 384v64h128v-64h-128zM192 448v64h64v-64h-64z" />
    <glyph glyph-name="uniFE8A" unicode="&#x626;" horiz-adv-x="768" arabic-form="final" 
d="M64 -128v64h448v-64h-448zM512 -64v128h64v-128h-64zM0 -64v192h64v-192h-64zM448 64v64h64v-64h-64zM640 64v64h64v-64h-64zM384 128v128h64v-128h-64zM576 128v128h64v-128h-64zM448 256v64h128v-64h-128zM128 256v64h64v64h64v-64h64v-64h-192zM256 384v64h64v-64h-64
z" />
    <glyph glyph-name="uniFE8B" unicode="&#x626;" arabic-form="initial" 
d="M0 0v64h192v-64h-192zM192 64v192h64v-192h-64zM128 384v64h64v64h64v-64h64v-64h-192zM256 512v64h64v-64h-64z" />
    <glyph glyph-name="uniFE8C" unicode="&#x626;" arabic-form="medial" 
d="M0 0v64h128v-64h-128zM192 0v64h128v-64h-128zM128 64v128h64v-128h-64zM64 256v64h64v64h64v-64h64v-64h-192zM192 384v64h64v-64h-64z" />
    <glyph glyph-name="uniFE8D" unicode="&#x627;" horiz-adv-x="128" arabic-form="isolated" 
d="M0 0v576h64v-576h-64z" />
    <glyph glyph-name="uniFE8E" unicode="&#x627;" horiz-adv-x="256" arabic-form="final" 
d="M64 0v64h128v-64h-128zM0 64v448h64v-448h-64z" />
    <glyph glyph-name="uniFE8F" unicode="&#x628;" horiz-adv-x="640" arabic-form="isolated" 
d="M256 -128v64h64v-64h-64zM64 0v64h448v-64h-448zM0 64v128h64v-128h-64zM512 64v128h64v-128h-64z" />
    <glyph glyph-name="uniFE90" unicode="&#x628;" horiz-adv-x="640" arabic-form="final" 
d="M256 -128v64h64v-64h-64zM64 0v64h448v-64h-448zM0 64v192h64v-192h-64zM512 64v192h64v-192h-64z" />
    <glyph glyph-name="uniFE91" unicode="&#x628;" arabic-form="initial" 
d="M128 -128v64h64v-64h-64zM0 0v64h128v-64h-128zM192 0v64h128v-64h-128zM128 64v128h64v-128h-64z" />
    <glyph glyph-name="uniFE92" unicode="&#x628;" arabic-form="medial" 
d="M128 -128v64h64v-64h-64zM0 0v64h128v-64h-128zM192 0v64h128v-64h-128zM128 64v128h64v-128h-64z" />
    <glyph glyph-name="uniFE93" unicode="&#x629;" arabic-form="isolated" 
d="M64 0v64h192v-64h-192zM0 64v128h64v-128h-64zM256 64v128h64v-128h-64zM64 192v64h64v-64h-64zM192 192v64h64v-64h-64zM128 256v64h64v-64h-64zM64 320v64h64v-64h-64zM64 512v64h64v-64h-64zM192 512v64h64v-64h-64z" />
    <glyph glyph-name="uniFE94" unicode="&#x629;" horiz-adv-x="448" arabic-form="final" 
d="M256 0v64h128v-64h-128zM0 128v192h64v-192h-64zM64 64v64h128v192h-128v64h192v-320h-192zM64 512v64h64v-64h-64zM192 512v64h64v-64h-64z" />
    <glyph glyph-name="uniFE95" unicode="&#x62a;" horiz-adv-x="640" arabic-form="isolated" 
d="M64 0v64h448v-64h-448zM0 64v192h64v-192h-64zM512 64v192h64v-192h-64zM192 320v64h64v-64h-64zM320 320v64h64v-64h-64z" />
    <glyph glyph-name="uniFE96" unicode="&#x62a;" horiz-adv-x="640" arabic-form="final" 
d="M64 0v64h448v-64h-448zM0 64v192h64v-192h-64zM512 64v192h64v-192h-64zM192 320v64h64v-64h-64zM320 320v64h64v-64h-64z" />
    <glyph glyph-name="uniFE97" unicode="&#x62a;" arabic-form="initial" 
d="M0 0v64h128v-64h-128zM192 0v64h128v-64h-128zM128 64v128h64v-128h-64zM64 320v64h64v-64h-64zM192 320v64h64v-64h-64z" />
    <glyph glyph-name="uniFE98" unicode="&#x62a;" arabic-form="medial" 
d="M0 0v64h128v-64h-128zM192 0v64h128v-64h-128zM128 64v128h64v-128h-64zM64 320v64h64v-64h-64zM192 320v64h64v-64h-64z" />
    <glyph glyph-name="uniFE99" unicode="&#x62b;" horiz-adv-x="640" arabic-form="isolated" 
d="M64 0v64h448v-64h-448zM0 64v192h64v-192h-64zM512 64v192h64v-192h-64zM192 320v64h64v-64h-64zM320 320v64h64v-64h-64zM256 448v64h64v-64h-64z" />
    <glyph glyph-name="uniFE9A" unicode="&#x62b;" horiz-adv-x="640" arabic-form="final" 
d="M64 0v64h448v-64h-448zM0 64v192h64v-192h-64zM512 64v192h64v-192h-64zM192 320v64h64v-64h-64zM320 320v64h64v-64h-64zM256 448v64h64v-64h-64z" />
    <glyph glyph-name="uniFE9B" unicode="&#x62b;" arabic-form="initial" 
d="M0 0v64h128v-64h-128zM192 0v64h128v-64h-128zM128 64v128h64v-128h-64zM64 320v64h64v-64h-64zM192 320v64h64v-64h-64zM128 448v64h64v-64h-64z" />
    <glyph glyph-name="uniFE9C" unicode="&#x62b;" arabic-form="medial" 
d="M0 0v64h128v-64h-128zM192 0v64h128v-64h-128zM128 64v128h64v-128h-64zM64 320v64h64v-64h-64zM192 320v64h64v-64h-64zM128 448v64h64v-64h-64z" />
    <glyph glyph-name="uniFE9D" unicode="&#x62c;" horiz-adv-x="448" arabic-form="isolated" 
d="M64 -128v64h320v-64h-320zM192 0v64h64v-64h-64zM0 -64v192h64v-192h-64zM64 128v64h128v-64h-128zM192 192v64h-128v64h192v-64h128v-64h-192z" />
    <glyph glyph-name="uniFE9E" unicode="&#x62c;" horiz-adv-x="576" arabic-form="final" 
d="M64 -128v64h320v-64h-320zM192 0v64h64v-64h-64zM384 0v64h128v-64h-128zM0 -64v192h64v-192h-64zM64 128v64h128v-64h-128zM320 64v128h-128v64h-128v64h192v-64h192v-64h-64v-128h-64z" />
    <glyph glyph-name="uniFE9F" unicode="&#x62c;" horiz-adv-x="512" arabic-form="initial" 
d="M256 -64v64h64v-64h-64zM-64 0v64h192v-64h-192zM128 64v64h192v-64h-192zM320 128v64h-64v64h192v-64h-64v-64h-64zM0 256v64h256v-64h-256z" />
    <glyph glyph-name="uniFEA0" unicode="&#x62c;" horiz-adv-x="640" arabic-form="medial" 
d="M256 -128v64h64v-64h-64zM0 0v64h192v-64h-192zM384 0v64h192v-64h-192zM192 64v64h192v-64h-192zM384 128v64h-64v64h192v-64h-64v-64h-64zM64 256v64h256v-64h-256z" />
    <glyph glyph-name="uniFEA1" unicode="&#x62d;" horiz-adv-x="448" arabic-form="isolated" 
d="M64 -128v64h320v-64h-320zM0 -64v192h64v-192h-64zM64 128v64h128v-64h-128zM192 192v64h-128v64h192v-64h128v-64h-192z" />
    <glyph glyph-name="uniFEA2" unicode="&#x62d;" horiz-adv-x="576" arabic-form="final" 
d="M64 -128v64h320v-64h-320zM384 0v64h128v-64h-128zM0 -64v192h64v-192h-64zM64 128v64h128v-64h-128zM320 64v128h-128v64h-128v64h192v-64h192v-64h-64v-128h-64z" />
    <glyph glyph-name="uniFEA3" unicode="&#x62d;" horiz-adv-x="512" arabic-form="initial" 
d="M-64 0v64h192v-64h-192zM128 64v64h192v-64h-192zM320 128v64h-64v64h192v-64h-64v-64h-64zM0 256v64h256v-64h-256z" />
    <glyph glyph-name="uniFEA4" unicode="&#x62d;" horiz-adv-x="640" arabic-form="medial" 
d="M0 0v64h192v-64h-192zM384 0v64h192v-64h-192zM192 64v64h192v-64h-192zM384 128v64h-64v64h192v-64h-64v-64h-64zM64 256v64h256v-64h-256z" />
    <glyph glyph-name="uniFEA5" unicode="&#x62e;" horiz-adv-x="448" arabic-form="isolated" 
d="M64 -128v64h320v-64h-320zM0 -64v192h64v-192h-64zM64 128v64h128v-64h-128zM192 192v64h-128v64h192v-64h128v-64h-192zM192 384v64h64v-64h-64z" />
    <glyph glyph-name="uniFEA6" unicode="&#x62e;" horiz-adv-x="576" arabic-form="final" 
d="M64 -128v64h320v-64h-320zM192 0v64h64v-64h-64zM384 0v64h128v-64h-128zM0 -64v192h64v-192h-64zM64 128v64h128v-64h-128zM320 64v128h-128v64h-128v64h192v-64h192v-64h-64v-128h-64zM192 384v64h64v-64h-64z" />
    <glyph glyph-name="uniFEA7" unicode="&#x62e;" horiz-adv-x="512" arabic-form="initial" 
d="M-64 0v64h192v-64h-192zM128 64v64h192v-64h-192zM320 128v64h-64v64h192v-64h-64v-64h-64zM0 256v64h256v-64h-256zM192 448v64h64v-64h-64z" />
    <glyph glyph-name="uniFEA8" unicode="&#x62e;" horiz-adv-x="640" arabic-form="medial" 
d="M0 0v64h192v-64h-192zM384 0v64h192v-64h-192zM192 64v64h192v-64h-192zM384 128v64h-64v64h192v-64h-64v-64h-64zM64 256v64h256v-64h-256zM256 384v64h64v-64h-64z" />
    <glyph glyph-name="uniFEA9" unicode="&#x62f;" arabic-form="isolated" 
d="M0 0v64h256v-64h-256zM256 64v192h64v-192h-64zM192 256v128h64v-128h-64z" />
    <glyph glyph-name="uniFEAA" unicode="&#x62f;" arabic-form="final" 
d="M0 0v64h256v-64h-256zM256 64v192h64v-192h-64zM192 256v128h64v-128h-64z" />
    <glyph glyph-name="uniFEAB" unicode="&#x630;" arabic-form="isolated" 
d="M0 0v64h256v-64h-256zM256 64v192h64v-192h-64zM192 256v128h64v-128h-64zM192 512v64h64v-64h-64z" />
    <glyph glyph-name="uniFEAC" unicode="&#x630;" arabic-form="final" 
d="M0 0v64h256v-64h-256zM256 64v192h64v-192h-64zM192 256v128h64v-128h-64zM192 512v64h64v-64h-64z" />
    <glyph glyph-name="uniFEAD" unicode="&#x631;" arabic-form="isolated" 
d="M0 -128v64h192v-64h-192zM192 -64v256h64v-128h64v-64h-64v-64h-64zM128 192v64h64v-64h-64z" />
    <glyph glyph-name="uniFEAE" unicode="&#x631;" horiz-adv-x="320" arabic-form="final" 
d="M0 -128v64h192v-64h-192zM192 -64v256h64v-256h-64zM128 192v64h64v-64h-64z" />
    <glyph glyph-name="uniFEAF" unicode="&#x632;" horiz-adv-x="320" arabic-form="isolated" 
d="M0 -128v64h192v-64h-192zM192 -64v256h64v-256h-64zM128 192v64h64v-64h-64zM128 320v64h64v-64h-64z" />
    <glyph glyph-name="uniFEB0" unicode="&#x632;" arabic-form="final" 
d="M0 -128v64h192v-64h-192zM192 -64v256h64v-128h64v-64h-64v-64h-64zM128 192v64h64v-64h-64z" />
    <glyph glyph-name="uniFEB1" unicode="&#x633;" horiz-adv-x="960" arabic-form="isolated" 
d="M64 -128v64h320v-64h-320zM704 64v64h128v-64h-128zM0 -64v256h64v-256h-64zM384 -64v320h64v-128h192v-64h-192v-128h-64zM640 128v128h64v-128h-64zM832 128v192h64v-192h-64z" />
    <glyph glyph-name="uniFEB2" unicode="&#x633;" horiz-adv-x="960" arabic-form="final" 
d="M64 -128v64h320v-64h-320zM704 64v64h128v-64h-128zM0 -64v256h64v-256h-64zM384 -64v320h64v-128h192v-64h-192v-128h-64zM640 128v128h64v-128h-64zM832 128v192h64v-192h-64z" />
    <glyph glyph-name="uniFEB3" unicode="&#x633;" horiz-adv-x="704" arabic-form="initial" 
d="M-64 0v64h192v-64h-192zM192 0v64h192v-64h-192zM448 0v64h128v-64h-128zM128 64v128h64v-128h-64zM384 64v128h64v-128h-64zM576 64v192h64v-192h-64z" />
    <glyph glyph-name="uniFEB4" unicode="&#x633;" horiz-adv-x="768" arabic-form="medial" 
d="M0 0v64h192v-64h-192zM256 0v64h192v-64h-192zM512 0v64h128v-64h-128zM192 64v128h64v-128h-64zM448 64v128h64v-128h-64zM640 64v192h64v-192h-64z" />
    <glyph glyph-name="uniFEB5" unicode="&#x634;" horiz-adv-x="960" arabic-form="isolated" 
d="M64 -128v64h320v-64h-320zM704 64v64h128v-64h-128zM0 -64v256h64v-256h-64zM384 -64v320h64v-128h192v-64h-192v-128h-64zM640 128v128h64v-128h-64zM832 128v192h64v-192h-64zM448 384v64h64v-64h-64zM576 384v64h64v-64h-64zM512 512v64h64v-64h-64z" />
    <glyph glyph-name="uniFEB6" unicode="&#x634;" horiz-adv-x="960" arabic-form="final" 
d="M64 -128v64h320v-64h-320zM704 64v64h128v-64h-128zM0 -64v256h64v-256h-64zM384 -64v320h64v-128h192v-64h-192v-128h-64zM640 128v128h64v-128h-64zM832 128v192h64v-192h-64zM448 384v64h64v-64h-64zM576 384v64h64v-64h-64zM512 512v64h64v-64h-64z" />
    <glyph glyph-name="uniFEB7" unicode="&#x634;" horiz-adv-x="704" arabic-form="initial" 
d="M-64 0v64h192v-64h-192zM192 0v64h192v-64h-192zM448 0v64h128v-64h-128zM128 64v128h64v-128h-64zM384 64v128h64v-128h-64zM576 64v192h64v-192h-64zM320 320v64h64v-64h-64zM448 320v64h64v-64h-64zM384 448v64h64v-64h-64z" />
    <glyph glyph-name="uniFEB8" unicode="&#x634;" horiz-adv-x="768" arabic-form="medial" 
d="M0 0v64h192v-64h-192zM256 0v64h192v-64h-192zM512 0v64h128v-64h-128zM192 64v128h64v-128h-64zM448 64v128h64v-128h-64zM640 64v192h64v-192h-64zM384 320v64h64v-64h-64zM512 320v64h64v-64h-64zM448 448v64h64v-64h-64z" />
    <glyph glyph-name="uniFEB9" unicode="&#x635;" horiz-adv-x="896" arabic-form="isolated" 
d="M64 -128v64h256v-64h-256zM0 -64v256h64v-256h-64zM320 -64v256h64v-64h64v64h64v-64h192v-64h-320v-128h-64zM704 128v64h64v-64h-64zM512 192v64h64v-64h-64zM576 256v64h64v-64h-64zM768 192v128h64v-128h-64zM640 320v64h128v-64h-128z" />
    <glyph glyph-name="uniFEBA" unicode="&#x635;" horiz-adv-x="896" arabic-form="final" 
d="M64 -128v64h256v-64h-256zM0 -64v256h64v-256h-64zM320 -64v256h64v-64h64v64h64v-64h192v-64h-320v-128h-64zM704 128v64h64v-64h-64zM512 192v64h64v-64h-64zM576 256v64h64v-64h-64zM768 192v128h64v-128h-64zM640 320v64h128v-64h-128z" />
    <glyph glyph-name="uniFEBB" unicode="&#x635;" horiz-adv-x="640" arabic-form="initial" 
d="M-128 0v64h192v-64h-192zM64 64v64h64v-64h-64zM128 0v64h64v64h64v-64h192v-64h-320zM448 64v64h64v-64h-64zM256 128v64h64v-64h-64zM320 192v64h64v-64h-64zM512 128v128h64v-128h-64zM384 256v64h128v-64h-128z" />
    <glyph glyph-name="uniFEBC" unicode="&#x635;" horiz-adv-x="640" arabic-form="medial" 
d="M-128 0v64h192v-64h-192zM64 64v64h64v-64h-64zM128 0v64h64v64h64v-64h192v-64h-320zM448 64v64h64v-64h-64zM256 128v64h64v-64h-64zM320 192v64h64v-64h-64zM512 128v128h64v-128h-64zM384 256v64h128v-64h-128z" />
    <glyph glyph-name="uniFEBD" unicode="&#x636;" horiz-adv-x="896" arabic-form="isolated" 
d="M64 -128v64h256v-64h-256zM0 -64v256h64v-256h-64zM320 -64v256h64v-64h64v64h64v-64h192v-64h-320v-128h-64zM704 128v64h64v-64h-64zM512 192v64h64v-64h-64zM576 256v64h64v-64h-64zM768 192v128h64v-128h-64zM640 320v64h128v-64h-128zM640 512v64h64v-64h-64z" />
    <glyph glyph-name="uniFEBE" unicode="&#x636;" horiz-adv-x="896" arabic-form="final" 
d="M64 -128v64h256v-64h-256zM0 -64v256h64v-256h-64zM320 -64v256h64v-64h64v64h64v-64h192v-64h-320v-128h-64zM704 128v64h64v-64h-64zM512 192v64h64v-64h-64zM576 256v64h64v-64h-64zM768 192v128h64v-128h-64zM640 320v64h128v-64h-128zM512 448v64h64v-64h-64z" />
    <glyph glyph-name="uniFEBF" unicode="&#x636;" horiz-adv-x="640" arabic-form="initial" 
d="M-128 0v64h192v-64h-192zM64 64v64h64v-64h-64zM128 0v64h64v64h64v-64h192v-64h-320zM448 64v64h64v-64h-64zM256 128v64h64v-64h-64zM320 192v64h64v-64h-64zM512 128v128h64v-128h-64zM384 256v64h128v-64h-128zM256 384v64h64v-64h-64z" />
    <glyph glyph-name="uniFEC0" unicode="&#x636;" horiz-adv-x="640" arabic-form="medial" 
d="M-128 0v64h192v-64h-192zM64 64v64h64v-64h-64zM128 0v64h64v64h64v-64h192v-64h-320zM448 64v64h64v-64h-64zM256 128v64h64v-64h-64zM320 192v64h64v-64h-64zM512 128v128h64v-128h-64zM384 256v64h128v-64h-128zM256 384v64h64v-64h-64z" />
    <glyph glyph-name="uniFEC1" unicode="&#x637;" horiz-adv-x="576" arabic-form="isolated" 
d="M384 64v64h64v-64h-64zM256 192v64h64v-64h-64zM448 128v128h64v-128h-64zM320 256v64h128v-64h-128zM0 0v64h128v512h64v-384h64v-64h-64v-64h192v-64h-384z" />
    <glyph glyph-name="uniFEC2" unicode="&#x637;" horiz-adv-x="576" arabic-form="final" 
d="M-128 0v64h256v64h64v-64h192v-64h-512zM384 64v64h64v-64h-64zM448 128v128h64v-128h-64zM320 256v64h128v-64h-128zM192 128v448h64v-320h64v-64h-64v-64h-64z" />
    <glyph glyph-name="uniFEC3" unicode="&#x637;" horiz-adv-x="576" arabic-form="initial" 
d="M384 64v64h64v-64h-64zM256 192v64h64v-64h-64zM448 128v128h64v-128h-64zM320 256v64h128v-64h-128zM0 0v64h128v512h64v-384h64v-64h-64v-64h192v-64h-384z" />
    <glyph glyph-name="uniFEC4" unicode="&#x637;" horiz-adv-x="576" arabic-form="medial" 
d="M384 64v64h64v-64h-64zM256 192v64h64v-64h-64zM448 128v128h64v-128h-64zM320 256v64h128v-64h-128zM0 0v64h128v512h64v-384h64v-64h-64v-64h192v-64h-384z" />
    <glyph glyph-name="uniFEC5" unicode="&#x638;" horiz-adv-x="576" arabic-form="isolated" 
d="M384 64v64h64v-64h-64zM256 192v64h64v-64h-64zM448 128v128h64v-128h-64zM320 256v64h128v-64h-128zM320 448v64h64v-64h-64zM0 0v64h128v512h64v-384h64v-64h-64v-64h192v-64h-384z" />
    <glyph glyph-name="uniFEC6" unicode="&#x638;" horiz-adv-x="576" arabic-form="final" 
d="M-128 0v64h256v64h64v-64h192v-64h-512zM384 64v64h64v-64h-64zM448 128v128h64v-128h-64zM320 256v64h128v-64h-128zM320 448v64h64v-64h-64zM192 128v448h64v-320h64v-64h-64v-64h-64z" />
    <glyph glyph-name="uniFEC7" unicode="&#x638;" horiz-adv-x="576" arabic-form="initial" 
d="M384 64v64h64v-64h-64zM256 192v64h64v-64h-64zM448 128v128h64v-128h-64zM320 256v64h128v-64h-128zM320 448v64h64v-64h-64zM0 0v64h128v512h64v-384h64v-64h-64v-64h192v-64h-384z" />
    <glyph glyph-name="uniFEC8" unicode="&#x638;" horiz-adv-x="576" arabic-form="medial" 
d="M384 64v64h64v-64h-64zM256 192v64h64v-64h-64zM448 128v128h64v-128h-64zM320 256v64h128v-64h-128zM256 384v64h64v-64h-64zM0 0v64h128v512h64v-384h64v-64h-64v-64h192v-64h-384z" />
    <glyph glyph-name="uniFEC9" unicode="&#x639;" horiz-adv-x="448" arabic-form="isolated" 
d="M64 -128v64h256v-64h-256zM320 -64v64h64v-64h-64zM0 -64v256h64v-256h-64zM64 192v64h128v-64h-128zM192 256v64h128v-64h-128zM0 256v192h64v-192h-64zM64 448v64h192v-64h-192z" />
    <glyph glyph-name="uniFECA" unicode="&#x639;" horiz-adv-x="512" arabic-form="final" 
d="M64 -128v64h256v-64h-256zM320 -64v64h64v-64h-64zM0 -64v192h64v-192h-64zM256 64v64h192v-64h-192zM64 128v64h64v-64h-64zM192 128v64h64v-64h-64zM128 192v64h64v-64h-64zM64 256v64h64v-64h-64zM192 256v64h64v-64h-64zM0 320v128h320v-128h-64v64h-192v-64h-64z
" />
    <glyph glyph-name="uniFECB" unicode="&#x639;" horiz-adv-x="448" arabic-form="initial" 
d="M-64 0v64h128v64h64v-64h128v-64h-320zM256 64v64h128v-64h-128zM0 128v192h64v-192h-64zM256 256v64h64v-64h-64zM64 320v64h192v-64h-192z" />
    <glyph glyph-name="uniFECC" unicode="&#x639;" horiz-adv-x="448" arabic-form="medial" 
d="M0 0v64h128v-64h-128zM192 0v64h192v-64h-192zM128 64v64h64v-64h-64zM64 128v64h64v-64h-64zM192 128v64h64v-64h-64zM0 192v128h320v-128h-64v64h-192v-64h-64z" />
    <glyph glyph-name="uniFECD" unicode="&#x63a;" horiz-adv-x="448" arabic-form="isolated" 
d="M64 -128v64h256v-64h-256zM320 -64v64h64v-64h-64zM0 -64v256h64v-256h-64zM64 192v64h128v-64h-128zM192 256v64h128v-64h-128zM0 256v192h64v-192h-64zM64 448v64h192v-64h-192zM128 576v64h64v-64h-64z" />
    <glyph glyph-name="uniFECE" unicode="&#x63a;" horiz-adv-x="512" arabic-form="final" 
d="M64 -128v64h256v-64h-256zM320 -64v64h64v-64h-64zM0 -64v192h64v-192h-64zM256 64v64h192v-64h-192zM64 128v64h64v-64h-64zM192 128v64h64v-64h-64zM128 192v64h64v-64h-64zM64 256v64h64v-64h-64zM192 256v64h64v-64h-64zM0 320v128h320v-128h-64v64h-192v-64h-64z
M128 576v64h64v-64h-64z" />
    <glyph glyph-name="uniFECF" unicode="&#x63a;" horiz-adv-x="448" arabic-form="initial" 
d="M-64 0v64h128v64h64v-64h128v-64h-320zM256 64v64h128v-64h-128zM0 128v192h64v-192h-64zM256 256v64h64v-64h-64zM64 320v64h192v-64h-192zM192 448v64h64v-64h-64z" />
    <glyph glyph-name="uniFED0" unicode="&#x63a;" horiz-adv-x="448" arabic-form="medial" 
d="M0 0v64h128v-64h-128zM192 0v64h192v-64h-192zM128 64v64h64v-64h-64zM64 128v64h64v-64h-64zM192 128v64h64v-64h-64zM0 192v128h320v-128h-64v64h-192v-64h-64zM128 448v64h64v-64h-64z" />
    <glyph glyph-name="uniFED1" unicode="&#x641;" horiz-adv-x="640" arabic-form="isolated" 
d="M64 0v64h448v-64h-448zM0 64v192h64v-192h-64zM320 256v128h64v-128h-64zM512 64v128h-128v64h128v128h64v-320h-64zM384 384v64h128v-64h-128zM384 512v64h64v-64h-64z" />
    <glyph glyph-name="uniFED2" unicode="&#x641;" horiz-adv-x="640" arabic-form="final" 
d="M64 0v64h448v-64h-448zM0 64v192h64v-192h-64zM320 256v128h64v-128h-64zM512 64v128h-128v64h128v128h64v-320h-64zM384 384v64h128v-64h-128zM384 512v64h64v-64h-64z" />
    <glyph glyph-name="uniFED3" unicode="&#x641;" horiz-adv-x="320" arabic-form="initial" 
d="M-64 0v64h256v-64h-256zM0 256v128h64v-128h-64zM192 64v128h-128v64h128v128h64v-320h-64zM64 384v64h128v-64h-128zM64 512v64h64v-64h-64z" />
    <glyph glyph-name="uniFED4" unicode="&#x641;" horiz-adv-x="512" arabic-form="medial" 
d="M0 0v64h192v-64h-192zM320 0v64h128v-64h-128zM192 64v64h128v-64h-128zM128 128v128h64v-128h-64zM320 128v128h64v-128h-64zM192 256v64h128v-64h-128zM256 448v64h64v-64h-64z" />
    <glyph glyph-name="uniFED5" unicode="&#x642;" horiz-adv-x="640" arabic-form="isolated" 
d="M64 -64v64h384v-64h-384zM448 0v64h64v-64h-64zM0 0v192h64v-192h-64zM320 256v128h64v-128h-64zM512 64v128h-128v64h128v128h64v-320h-64zM384 384v64h128v-64h-128zM320 512v64h64v-64h-64zM448 512v64h64v-64h-64z" />
    <glyph glyph-name="uniFED6" unicode="&#x642;" horiz-adv-x="640" arabic-form="final" 
d="M64 -64v64h384v-64h-384zM448 0v64h64v-64h-64zM0 0v192h64v-192h-64zM320 256v128h64v-128h-64zM512 64v128h-128v64h128v128h64v-320h-64zM384 384v64h128v-64h-128zM320 512v64h64v-64h-64zM448 512v64h64v-64h-64z" />
    <glyph glyph-name="uniFED7" unicode="&#x642;" horiz-adv-x="320" arabic-form="initial" 
d="M-64 0v64h256v-64h-256zM0 256v128h64v-128h-64zM192 64v128h-128v64h128v128h64v-320h-64zM64 384v64h128v-64h-128zM0 512v64h64v-64h-64zM128 512v64h64v-64h-64z" />
    <glyph glyph-name="uniFED8" unicode="&#x642;" horiz-adv-x="512" arabic-form="medial" 
d="M0 0v64h192v-64h-192zM320 0v64h128v-64h-128zM192 64v64h128v-64h-128zM128 128v128h64v-128h-64zM320 128v128h64v-128h-64zM192 256v64h128v-64h-128zM192 448v64h64v-64h-64zM320 448v64h64v-64h-64z" />
    <glyph glyph-name="uniFED9" unicode="&#x643;" horiz-adv-x="512" arabic-form="isolated" 
d="M64 0v64h320v-64h-320zM0 64v128h64v-128h-64zM192 192v64h64v64h-64v64h128v-192h-128zM384 64v512h64v-512h-64z" />
    <glyph glyph-name="uniFEDA" unicode="&#x643;" horiz-adv-x="512" arabic-form="final" 
d="M64 0v64h320v-64h-320zM0 64v128h64v-128h-64zM192 192v64h64v64h-64v64h128v-192h-128zM384 64v512h64v-512h-64z" />
    <glyph glyph-name="uniFEDB" unicode="&#x643;" horiz-adv-x="448" arabic-form="initial" 
d="M-128 0v64h384v-64h-384zM256 64v192h64v-192h-64zM128 256v64h128v-64h-128zM64 320v64h64v-64h-64zM0 384v128h128v-64h-64v-64h-64zM128 512v64h128v-64h-128zM256 576v64h128v-64h-128z" />
    <glyph glyph-name="uniFEDC" unicode="&#x643;" horiz-adv-x="512" arabic-form="medial" 
d="M0 0v64h256v-64h-256zM320 0v64h128v-64h-128zM256 64v192h64v-192h-64zM128 256v64h128v-64h-128zM64 320v64h64v-64h-64zM0 384v128h128v-64h-64v-64h-64zM128 512v64h128v-64h-128zM256 576v64h128v-64h-128z" />
    <glyph glyph-name="uniFEDD" unicode="&#x644;" horiz-adv-x="448" arabic-form="isolated" 
d="M64 0v64h256v-64h-256zM0 64v192h64v-192h-64zM320 64v512h64v-512h-64z" />
    <glyph glyph-name="uniFEDE" unicode="&#x644;" horiz-adv-x="448" arabic-form="final" 
d="M64 0v64h256v-64h-256zM0 64v192h64v-192h-64zM320 64v512h64v-512h-64z" />
    <glyph glyph-name="uniFEDF" unicode="&#x644;" horiz-adv-x="192" arabic-form="initial" 
d="M-64 0v64h128v-64h-128zM64 64v512h64v-512h-64z" />
    <glyph glyph-name="uniFEE0" unicode="&#x644;" arabic-form="medial" 
d="M0 0v64h128v-64h-128zM192 0v64h128v-64h-128zM128 64v512h64v-512h-64z" />
    <glyph glyph-name="uniFEE1" unicode="&#x645;" horiz-adv-x="448" arabic-form="isolated" 
d="M0 -128v192h64v-192h-64zM128 0v64h192v-64h-192zM64 64v192h64v-192h-64zM320 64v192h64v-192h-64zM128 256v64h192v-64h-192z" />
    <glyph glyph-name="uniFEE2" unicode="&#x645;" horiz-adv-x="448" arabic-form="final" 
d="M-64 -128v64h64v-64h-64zM0 -64v128h64v-128h-64zM128 0v64h192v-64h-192zM64 64v192h64v-192h-64zM320 64v192h64v-192h-64zM128 256v64h192v-64h-192z" />
    <glyph glyph-name="uniFEE3" unicode="&#x645;" arabic-form="initial" 
d="M-64 0v64h64v-64h-64zM64 0v64h192v-64h-192zM0 64v192h64v-192h-64zM256 64v192h64v-192h-64zM64 256v64h192v-64h-192z" />
    <glyph glyph-name="uniFEE4" unicode="&#x645;" horiz-adv-x="576" arabic-form="medial" 
d="M0 0v64h64v-64h-64zM128 0v64h192v-64h-192zM448 0v64h64v-64h-64zM64 64v192h64v-192h-64zM320 64v192h64v-128h64v-64h-128zM128 256v64h192v-64h-192z" />
    <glyph glyph-name="uniFEE5" unicode="&#x646;" horiz-adv-x="512" arabic-form="isolated" 
d="M64 0v64h320v-64h-320zM0 64v256h64v-256h-64zM384 64v256h64v-256h-64zM192 384v64h64v-64h-64z" />
    <glyph glyph-name="uniFEE6" unicode="&#x646;" horiz-adv-x="512" arabic-form="final" 
d="M64 0v64h320v-64h-320zM0 64v256h64v-256h-64zM384 64v256h64v-256h-64zM192 384v64h64v-64h-64z" />
    <glyph glyph-name="uniFEE7" unicode="&#x646;" horiz-adv-x="256" arabic-form="initial" 
d="M-64 0v64h192v-64h-192zM128 64v192h64v-192h-64zM128 384v64h64v-64h-64z" />
    <glyph glyph-name="uniFEE8" unicode="&#x646;" arabic-form="medial" 
d="M0 0v64h128v-64h-128zM192 0v64h128v-64h-128zM128 64v128h64v-128h-64zM128 320v64h64v-64h-64z" />
    <glyph glyph-name="uniFEE9" unicode="&#x647;" arabic-form="isolated" 
d="M64 0v64h192v-64h-192zM0 64v128h64v-128h-64zM256 64v128h64v-128h-64zM64 192v64h64v-64h-64zM192 192v64h64v-64h-64zM128 256v64h64v-64h-64zM64 320v64h64v-64h-64z" />
    <glyph glyph-name="uniFEEA" unicode="&#x647;" horiz-adv-x="448" arabic-form="final" 
d="M256 0v64h128v-64h-128zM0 128v192h64v-192h-64zM64 64v64h128v192h-128v64h192v-320h-192z" />
    <glyph glyph-name="uniFEEB" unicode="&#x647;" horiz-adv-x="512" arabic-form="initial" 
d="M-64 0v64h64v192h64v-192h128v192h64v-192h128v-64h-448zM384 64v192h64v-192h-64zM64 256v64h128v-64h-128zM320 256v64h64v-64h-64zM256 320v64h64v-64h-64zM64 384v64h192v-64h-192z" />
    <glyph glyph-name="uniFEEC" unicode="&#x647;" horiz-adv-x="512" arabic-form="medial" 
d="M192 0v64h64v-64h-64zM256 64v64h192v-64h-192zM192 128v64h64v-64h-64zM64 -128v192h-64v64h64v192h64v-192h64v-64h-64v-64h64v-64h-64v-64h-64zM256 192v128h64v-128h-64zM128 320v64h128v-64h-128z" />
    <glyph glyph-name="uniFEED" unicode="&#x648;" horiz-adv-x="320" arabic-form="isolated" 
d="M0 -128v64h192v-64h-192zM0 128v128h64v-128h-64zM192 -64v128h-128v64h128v128h64v-320h-64zM64 256v64h128v-64h-128z" />
    <glyph glyph-name="uniFEEE" unicode="&#x648;" horiz-adv-x="320" arabic-form="final" 
d="M0 -128v64h192v-64h-192zM0 128v128h64v-128h-64zM192 -64v128h-128v64h128v128h64v-320h-64zM64 256v64h128v-64h-128z" />
    <glyph glyph-name="uniFEEF" unicode="&#x649;" horiz-adv-x="640" arabic-form="isolated" 
d="M64 0v64h448v-64h-448zM512 64v128h64v-128h-64zM0 64v192h64v-192h-64zM384 192v64h128v-64h-128zM320 256v128h64v-128h-64zM512 320v64h64v-64h-64zM384 384v64h128v-64h-128z" />
    <glyph glyph-name="uniFEF0" unicode="&#x649;" horiz-adv-x="832" arabic-form="final" 
d="M64 -128v64h448v-64h-448zM512 -64v128h64v-128h-64zM704 0v64h64v-64h-64zM0 -64v192h64v-192h-64zM448 64v64h64v-64h-64zM640 64v64h64v-64h-64zM384 128v128h64v-128h-64zM576 128v128h64v-128h-64zM448 256v64h128v-64h-128z" />
    <glyph glyph-name="uniFEF1" unicode="&#x64a;" horiz-adv-x="640" arabic-form="isolated" 
d="M64 0v64h448v-64h-448zM512 64v128h64v-128h-64zM0 64v192h64v-192h-64zM384 192v64h128v-64h-128zM320 256v128h64v-128h-64zM512 320v64h64v-64h-64zM384 384v64h128v-64h-128z" />
    <glyph glyph-name="uniFEF2" unicode="&#x64a;" horiz-adv-x="640" arabic-form="final" 
d="M192 -128v64h64v-64h-64zM320 -128v64h64v-64h-64zM64 0v64h448v-64h-448zM512 64v128h64v-128h-64zM0 64v192h64v-192h-64zM384 192v64h128v-64h-128zM320 256v128h64v-128h-64zM512 320v64h64v-64h-64zM384 384v64h128v-64h-128z" />
    <glyph glyph-name="uniFEF3" unicode="&#x64a;" arabic-form="initial" 
d="M0 -128v64h64v-64h-64zM128 -128v64h64v-64h-64zM0 0v64h128v-64h-128zM192 0v64h128v-64h-128zM128 64v128h64v-128h-64z" />
    <glyph glyph-name="uniFEF4" unicode="&#x64a;" horiz-adv-x="320" arabic-form="medial" 
d="M64 -128v64h64v-64h-64zM192 -128v64h64v-64h-64zM0 0v64h192v-64h-192zM192 64v192h64v-192h-64z" />
    <glyph glyph-name="uniFEF5" unicode="&#xfef5;" horiz-adv-x="448" arabic-form="isolated" 
d="M64 -64v64h128v64h128v-64h-64v-64h-192zM128 64v128h64v-128h-64zM64 192v128h64v-128h-64zM0 320v128h64v-128h-64zM-64 448v64h64v-64h-64zM320 64v448h64v-448h-64zM-192 576v64h64v-64h-64zM-64 576v64h64v-64h-64zM-128 640v64h64v-64h-64zM0 640v64h64v-64h-64z
" />
    <glyph glyph-name="uniFEF6" unicode="&#xfef6;" horiz-adv-x="576" arabic-form="final" 
d="M384 -64v64h128v-64h-128zM128 64v128h64v-128h-64zM64 192v128h64v-128h-64zM0 320v128h64v-128h-64zM-64 448v64h64v-64h-64zM64 -64v64h128v64h128v448h64v-512h-128v-64h-192zM-192 576v64h64v-64h-64zM-64 576v64h64v-64h-64zM-128 640v64h64v-64h-64zM0 640v64h64
v-64h-64z" />
    <glyph glyph-name="uniFEF7" unicode="&#xfef7;" horiz-adv-x="448" arabic-form="isolated" 
d="M64 -128v64h128v64h128v-64h-64v-64h-192zM128 0v128h64v-128h-64zM64 128v128h64v-128h-64zM0 256v128h64v-128h-64zM-64 384v64h64v-64h-64zM320 0v448h64v-448h-64zM-128 512v64h64v64h64v-64h64v-64h-192zM0 640v64h64v-64h-64z" />
    <glyph glyph-name="uniFEF8" unicode="&#xfef8;" horiz-adv-x="576" arabic-form="final" 
d="M384 -128v64h128v-64h-128zM128 0v128h64v-128h-64zM64 128v128h64v-128h-64zM0 256v128h64v-128h-64zM-64 384v64h64v-64h-64zM64 -128v64h128v64h128v448h64v-512h-128v-64h-192zM-128 512v64h64v64h64v-64h64v-64h-192zM0 640v64h64v-64h-64z" />
    <glyph glyph-name="uniFEF9" unicode="&#xfef9;" horiz-adv-x="448" arabic-form="isolated" 
d="M64 -128v64h64v64h64v-64h64v-64h-192zM192 0v64h-128v64h128v64h128v-64h-64v-128h-64zM128 192v128h64v-128h-64zM64 320v128h64v-128h-64zM0 448v128h64v-128h-64zM-64 576v64h64v-64h-64zM320 192v448h64v-448h-64z" />
    <glyph glyph-name="uniFEFA" unicode="&#xfefa;" horiz-adv-x="576" arabic-form="final" 
d="M64 -128v64h64v64h64v-64h64v-64h-192zM384 64v64h128v-64h-128zM128 192v128h64v-128h-64zM64 320v128h64v-128h-64zM0 448v128h64v-128h-64zM-64 576v64h64v-64h-64zM192 0v64h-128v64h128v64h128v448h64v-512h-128v-128h-64z" />
    <glyph glyph-name="uniFEFB" unicode="&#xfefb;" horiz-adv-x="448" arabic-form="isolated" 
d="M64 0v64h128v64h128v-64h-64v-64h-192zM128 128v128h64v-128h-64zM64 256v128h64v-128h-64zM0 384v128h64v-128h-64zM-64 512v64h64v-64h-64zM320 128v448h64v-448h-64z" />
    <glyph glyph-name="uniFEFC" unicode="&#xfefc;" horiz-adv-x="576" arabic-form="final" 
d="M384 0v64h128v-64h-128zM128 128v128h64v-128h-64zM64 256v128h64v-128h-64zM0 384v128h64v-128h-64zM-64 512v64h64v-64h-64zM64 0v64h128v64h128v448h64v-512h-128v-64h-192z" />
    <glyph glyph-name=".notdef" horiz-adv-x="507" 
d="M373 50l-152 218l-152 -218h304zM50 69l152 219l-152 218v-437zM393 69v437l-153 -218zM221 307l152 219h-304zM0 0v576h443v-576h-443z" />
    <glyph glyph-name=".null" horiz-adv-x="0" 
 />
    <glyph glyph-name="nonmarkingreturn" horiz-adv-x="341" 
 />
    <glyph glyph-name="space" unicode=" " horiz-adv-x="160" 
 />
    <glyph glyph-name="exclam" unicode="!" horiz-adv-x="128" 
d="M0 0v64h64v-64h-64zM0 128v384h64v-384h-64z" />
    <glyph glyph-name="quotedbl" unicode="&#x22;" horiz-adv-x="256" 
d="M0 384v192h64v-192h-64zM128 384v192h64v-192h-64z" />
    <glyph glyph-name="numbersign" unicode="#" horiz-adv-x="512" 
d="M256 192v128h-64v-128h64zM64 0v128h-64v64h128v128h-64v64h128v128h64v-128h64v128h64v-128h64v-64h-128v-128h64v-64h-128v-128h-64v128h-64v-128h-64z" />
    <glyph glyph-name="dollar" unicode="$" 
d="M256 64v128h64v-128h-64zM0 256v128h64v-128h-64zM128 -128v128h-128v64h128v128h-64v64h64v128h-64v64h64v128h64v-128h128v-64h-128v-128h64v-64h-64v-128h64v-64h-64v-128h-64z" />
    <glyph glyph-name="percent" unicode="%" horiz-adv-x="704" 
d="M448 0v64h128v-64h-128zM192 0v128h64v-128h-64zM384 64v128h64v-128h-64zM576 64v128h64v-128h-64zM256 128v128h64v-128h-64zM448 192v64h128v-64h-128zM64 256v64h128v-64h-128zM320 256v128h64v-128h-64zM0 320v128h64v-128h-64zM192 320v128h64v-128h-64zM64 448v64
h128v-64h-128zM384 384v128h64v-128h-64z" />
    <glyph glyph-name="ampersand" unicode="&#x26;" horiz-adv-x="512" 
d="M64 0v64h192v-64h-192zM384 0v64h64v-64h-64zM256 64v128h64v-64h64v-64h-128zM0 64v192h64v-192h-64zM192 192v64h64v-64h-64zM64 256v64h128v-64h-128zM320 192v128h64v-128h-64zM0 320v128h64v-128h-64zM192 320v128h64v-128h-64zM64 448v64h128v-64h-128z" />
    <glyph glyph-name="quotesingle" unicode="'" horiz-adv-x="128" 
d="M0 384v192h64v-192h-64z" />
    <glyph glyph-name="parenleft" unicode="(" horiz-adv-x="256" 
d="M128 -128v64h64v-64h-64zM64 -64v128h64v-128h-64zM0 64v320h64v-320h-64zM64 384v128h64v-128h-64zM128 512v64h64v-64h-64z" />
    <glyph glyph-name="parenright" unicode=")" horiz-adv-x="256" 
d="M0 -128v64h64v-64h-64zM64 -64v128h64v-128h-64zM128 64v320h64v-320h-64zM64 384v128h64v-128h-64zM0 512v64h64v-64h-64z" />
    <glyph glyph-name="asterisk" unicode="*" 
d="M0 320v64h64v-64h-64zM256 320v64h64v-64h-64zM0 448v64h64v-64h-64zM256 448v64h64v-64h-64zM128 256v128h-64v64h64v128h64v-128h64v-64h-64v-128h-64z" />
    <glyph glyph-name="plus" unicode="+" horiz-adv-x="512" 
d="M192 0v192h-192v64h192v192h64v-192h192v-64h-192v-192h-64z" />
    <glyph glyph-name="comma" unicode="," horiz-adv-x="192" 
d="M0 -128v64h64v-64h-64zM64 -64v192h64v-192h-64z" />
    <glyph glyph-name="hyphen" unicode="-" horiz-adv-x="256" 
d="M0 192v64h192v-64h-192z" />
    <glyph glyph-name="period" unicode="." horiz-adv-x="128" 
d="M0 0v128h64v-128h-64z" />
    <glyph glyph-name="slash" unicode="/" horiz-adv-x="256" 
d="M0 -128v192h64v-192h-64zM64 64v320h64v-320h-64zM128 384v192h64v-192h-64z" />
    <glyph glyph-name="zero" unicode="0" 
d="M64 0v64h192v-64h-192zM0 64v384h64v-384h-64zM256 64v384h64v-384h-64zM64 448v64h192v-64h-192z" />
    <glyph glyph-name="one" unicode="1" horiz-adv-x="256" 
d="M0 0v64h64v320h-64v64h64v64h64v-448h64v-64h-192z" />
    <glyph glyph-name="two" unicode="2" 
d="M0 0v128h64v-64h256v-64h-320zM64 128v64h64v-64h-64zM128 192v64h64v-64h-64zM192 256v64h64v-64h-64zM0 384v64h64v-64h-64zM256 320v128h64v-128h-64zM64 448v64h192v-64h-192z" />
    <glyph glyph-name="three" unicode="3" 
d="M64 0v64h192v-64h-192zM0 64v64h64v-64h-64zM256 64v192h64v-192h-64zM128 256v64h128v-64h-128zM0 384v64h64v-64h-64zM256 320v128h64v-128h-64zM64 448v64h192v-64h-192z" />
    <glyph glyph-name="four" unicode="4" 
d="M64 320v64h64v-64h-64zM192 0v192h-192v128h64v-64h128v128h-64v64h64v64h64v-256h64v-64h-64v-192h-64z" />
    <glyph glyph-name="five" unicode="5" 
d="M64 0v64h192v-64h-192zM0 64v64h64v-64h-64zM256 64v192h64v-192h-64zM0 256v256h320v-64h-256v-128h192v-64h-256z" />
    <glyph glyph-name="six" unicode="6" 
d="M64 0v64h192v-64h-192zM256 64v192h64v-192h-64zM0 64v320h64v-64h192v-64h-192v-192h-64zM64 384v64h64v-64h-64zM128 448v64h128v-64h-128z" />
    <glyph glyph-name="seven" unicode="7" 
d="M64 0v128h64v-128h-64zM128 128v128h64v-128h-64zM192 256v128h64v-128h-64zM256 384v64h-256v64h320v-128h-64z" />
    <glyph glyph-name="eight" unicode="8" 
d="M64 0v64h192v-64h-192zM0 64v192h64v-192h-64zM256 64v192h64v-192h-64zM64 256v64h192v-64h-192zM0 320v128h64v-128h-64zM256 320v128h64v-128h-64zM64 448v64h192v-64h-192z" />
    <glyph glyph-name="nine" unicode="9" 
d="M64 0v64h128v-64h-128zM192 64v64h64v-64h-64zM0 256v192h64v-192h-64zM256 128v64h-192v64h192v192h64v-320h-64zM64 448v64h192v-64h-192z" />
    <glyph glyph-name="colon" unicode=":" horiz-adv-x="128" 
d="M0 0v128h64v-128h-64zM0 256v128h64v-128h-64z" />
    <glyph glyph-name="semicolon" unicode=";" horiz-adv-x="192" 
d="M0 -128v64h64v-64h-64zM64 -64v192h64v-192h-64zM64 256v128h64v-128h-64z" />
    <glyph glyph-name="less" unicode="&#x3c;" horiz-adv-x="448" 
d="M320 0v64h64v-64h-64zM192 64v64h128v-64h-128zM64 128v64h128v-64h-128zM0 192v64h64v-64h-64zM64 256v64h128v-64h-128zM192 320v64h128v-64h-128zM320 384v64h64v-64h-64z" />
    <glyph glyph-name="equal" unicode="=" horiz-adv-x="512" 
d="M0 128v64h448v-64h-448zM0 256v64h448v-64h-448z" />
    <glyph glyph-name="greater" unicode="&#x3e;" horiz-adv-x="448" 
d="M0 0v64h64v-64h-64zM64 64v64h128v-64h-128zM192 128v64h128v-64h-128zM320 192v64h64v-64h-64zM192 256v64h128v-64h-128zM64 320v64h128v-64h-128zM0 384v64h64v-64h-64z" />
    <glyph glyph-name="question" unicode="?" horiz-adv-x="320" 
d="M64 0v64h64v-64h-64zM64 128v128h64v-128h-64zM128 256v64h64v-64h-64zM192 320v128h64v-128h-64zM0 448v64h192v-64h-192z" />
    <glyph glyph-name="at" unicode="@" horiz-adv-x="640" 
d="M128 -64v64h256v-64h-256zM64 0v64h64v-64h-64zM128 128v192h64v-192h-64zM0 64v320h64v-320h-64zM192 64v64h128v192h-128v64h192v-256h128v-64h-320zM512 128v256h64v-256h-64zM64 384v64h64v-64h-64zM448 384v64h64v-64h-64zM128 448v64h320v-64h-320z" />
    <glyph glyph-name="A" unicode="A" horiz-adv-x="448" 
d="M0 0v192h64v192h64v-192h128v192h64v-192h64v-192h-64v128h-256v-128h-64zM128 384v128h128v-128h-128z" />
    <glyph glyph-name="B" unicode="B" 
d="M256 64v192h64v-192h-64zM256 320v128h64v-128h-64zM0 0v512h256v-64h-192v-128h192v-64h-192v-192h192v-64h-256z" />
    <glyph glyph-name="C" unicode="C" horiz-adv-x="448" 
d="M128 0v64h256v-64h-256zM64 64v64h64v-64h-64zM0 128v256h64v-256h-64zM64 384v64h64v-64h-64zM128 448v64h256v-64h-256z" />
    <glyph glyph-name="D" unicode="D" horiz-adv-x="448" 
d="M256 64v64h64v-64h-64zM320 128v256h64v-256h-64zM256 384v64h64v-64h-64zM0 0v512h256v-64h-192v-384h192v-64h-256z" />
    <glyph glyph-name="E" unicode="E" 
d="M0 0v512h320v-64h-256v-128h192v-64h-192v-192h256v-64h-320z" />
    <glyph glyph-name="F" unicode="F" 
d="M0 0v512h320v-64h-256v-128h256v-64h-256v-256h-64z" />
    <glyph glyph-name="G" unicode="G" horiz-adv-x="448" 
d="M64 64v64h64v-64h-64zM128 0v64h192v128h-128v64h192v-256h-256zM0 128v256h64v-256h-64zM64 384v64h64v-64h-64zM128 448v64h256v-64h-256z" />
    <glyph glyph-name="H" unicode="H" horiz-adv-x="448" 
d="M0 0v512h64v-192h256v192h64v-512h-64v256h-256v-256h-64z" />
    <glyph glyph-name="I" unicode="I" horiz-adv-x="256" 
d="M0 0v64h64v384h-64v64h192v-64h-64v-384h64v-64h-192z" />
    <glyph glyph-name="J" unicode="J" horiz-adv-x="320" 
d="M0 0v64h192v-64h-192zM192 64v384h-128v64h192v-448h-64z" />
    <glyph glyph-name="K" unicode="K" 
d="M256 0v64h64v-64h-64zM192 64v64h64v-64h-64zM128 128v64h64v-64h-64zM128 320v64h64v-64h-64zM192 384v64h64v-64h-64zM0 0v512h64v-192h64v-128h-64v-192h-64zM256 448v64h64v-64h-64z" />
    <glyph glyph-name="L" unicode="L" horiz-adv-x="320" 
d="M0 0v512h64v-448h192v-64h-256z" />
    <glyph glyph-name="M" unicode="M" horiz-adv-x="512" 
d="M192 128v128h64v-128h-64zM128 256v128h64v-128h-64zM256 256v128h64v-128h-64zM0 0v512h128v-128h-64v-384h-64zM384 0v384h-64v128h128v-512h-64z" />
    <glyph glyph-name="N" unicode="N" horiz-adv-x="448" 
d="M192 128v128h64v-128h-64zM128 256v128h64v-128h-64zM0 0v512h128v-128h-64v-384h-64zM256 0v128h64v384h64v-512h-128z" />
    <glyph glyph-name="O" unicode="O" horiz-adv-x="512" 
d="M128 0v64h192v-64h-192zM64 64v64h64v-64h-64zM320 64v64h64v-64h-64zM0 128v256h64v-256h-64zM384 128v256h64v-256h-64zM64 384v64h64v-64h-64zM320 384v64h64v-64h-64zM128 448v64h192v-64h-192z" />
    <glyph glyph-name="P" unicode="P" 
d="M256 256v192h64v-192h-64zM0 0v512h256v-64h-192v-192h192v-64h-192v-192h-64z" />
    <glyph glyph-name="Q" unicode="Q" horiz-adv-x="512" 
d="M320 -128v64h128v-64h-128zM256 -64v64h-128v64h192v-128h-64zM64 64v64h64v-64h-64zM320 64v64h64v-64h-64zM0 128v256h64v-256h-64zM384 128v256h64v-256h-64zM64 384v64h64v-64h-64zM320 384v64h64v-64h-64zM128 448v64h192v-64h-192z" />
    <glyph glyph-name="R" unicode="R" horiz-adv-x="448" 
d="M320 0v64h64v-64h-64zM256 64v64h64v-64h-64zM256 256v192h64v-192h-64zM0 0v512h256v-64h-192v-192h192v-128h-64v64h-128v-192h-64z" />
    <glyph glyph-name="S" unicode="S" 
d="M0 0v64h256v-64h-256zM256 64v192h64v-192h-64zM64 256v64h192v-64h-192zM0 320v128h64v-128h-64zM64 448v64h256v-64h-256z" />
    <glyph glyph-name="T" unicode="T" 
d="M128 0v448h-128v64h320v-64h-128v-448h-64z" />
    <glyph glyph-name="U" unicode="U" horiz-adv-x="448" 
d="M64 0v64h256v-64h-256zM0 64v448h64v-448h-64zM320 64v448h64v-448h-64z" />
    <glyph glyph-name="V" unicode="V" 
d="M128 0v128h64v-128h-64zM64 128v192h64v-192h-64zM192 128v192h64v-192h-64zM0 320v192h64v-192h-64zM256 320v192h64v-192h-64z" />
    <glyph glyph-name="W" unicode="W" horiz-adv-x="640" 
d="M128 0v128h64v-128h-64zM384 0v128h64v-128h-64zM64 128v192h64v-192h-64zM192 128v192h64v-192h-64zM320 128v192h64v-192h-64zM448 128v192h64v-192h-64zM0 320v192h64v-192h-64zM256 320v192h64v-192h-64zM512 320v192h64v-192h-64z" />
    <glyph glyph-name="X" unicode="X" 
d="M0 0v128h64v-128h-64zM256 0v128h64v-128h-64zM64 128v64h64v-64h-64zM192 128v64h64v-64h-64zM128 192v128h64v-128h-64zM64 320v64h64v-64h-64zM192 320v64h64v-64h-64zM0 384v128h64v-128h-64zM256 384v128h64v-128h-64z" />
    <glyph glyph-name="Y" unicode="Y" 
d="M128 0v256h64v-256h-64zM64 256v128h64v-128h-64zM192 256v128h64v-128h-64zM0 384v128h64v-128h-64zM256 384v128h64v-128h-64z" />
    <glyph glyph-name="Z" unicode="Z" 
d="M0 0v128h64v-64h256v-64h-320zM64 128v64h64v-64h-64zM128 192v128h64v-128h-64zM192 320v64h64v-64h-64zM256 384v64h-256v64h320v-128h-64z" />
    <glyph glyph-name="bracketleft" unicode="[" horiz-adv-x="256" 
d="M0 -128v704h192v-64h-128v-576h128v-64h-192z" />
    <glyph glyph-name="backslash" unicode="\" horiz-adv-x="256" 
d="M128 -128v192h64v-192h-64zM64 64v320h64v-320h-64zM0 384v192h64v-192h-64z" />
    <glyph glyph-name="bracketright" unicode="]" horiz-adv-x="256" 
d="M0 -128v64h128v576h-128v64h192v-704h-192z" />
    <glyph glyph-name="asciicircum" unicode="^" horiz-adv-x="512" 
d="M0 256v64h64v-64h-64zM384 256v64h64v-64h-64zM64 320v64h64v-64h-64zM320 320v64h64v-64h-64zM128 384v64h64v-64h-64zM256 384v64h64v-64h-64zM192 448v64h64v-64h-64z" />
    <glyph glyph-name="underscore" unicode="_" horiz-adv-x="448" 
d="M0 -128v64h384v-64h-384z" />
    <glyph glyph-name="grave" unicode="`" horiz-adv-x="192" 
d="M64 448v64h64v-64h-64zM0 512v64h64v-64h-64z" />
    <glyph glyph-name="a" unicode="a" 
d="M0 64v128h64v-128h-64zM64 0v64h192v128h-192v64h192v64h64v-320h-256zM64 320v64h192v-64h-192z" />
    <glyph glyph-name="b" unicode="b" 
d="M256 64v256h64v-256h-64zM0 0v576h64v-192h192v-64h-192v-256h192v-64h-256z" />
    <glyph glyph-name="c" unicode="c" horiz-adv-x="320" 
d="M64 0v64h192v-64h-192zM0 64v256h64v-256h-64zM64 320v64h192v-64h-192z" />
    <glyph glyph-name="d" unicode="d" 
d="M0 64v256h64v-256h-64zM64 0v64h192v256h-192v64h192v192h64v-576h-256z" />
    <glyph glyph-name="e" unicode="e" 
d="M64 0v64h192v-64h-192zM256 64v64h64v-64h-64zM0 64v256h64v-64h192v64h64v-128h-256v-128h-64zM64 320v64h192v-64h-192z" />
    <glyph glyph-name="f" unicode="f" horiz-adv-x="256" 
d="M0 0v512h64v-128h128v-64h-128v-320h-64zM64 512v64h128v-64h-128z" />
    <glyph glyph-name="g" unicode="g" 
d="M64 -128v64h192v-64h-192zM0 64v256h64v-256h-64zM256 -64v64h-192v64h192v256h-192v64h256v-448h-64z" />
    <glyph glyph-name="h" unicode="h" 
d="M256 0v320h64v-320h-64zM0 0v576h64v-192h192v-64h-192v-320h-64z" />
    <glyph glyph-name="i" unicode="i" horiz-adv-x="128" 
d="M0 0v384h64v-384h-64zM0 448v64h64v-64h-64z" />
    <glyph glyph-name="j" unicode="j" horiz-adv-x="192" 
d="M0 -128v64h64v-64h-64zM64 -64v384h-64v64h128v-448h-64zM64 448v64h64v-64h-64z" />
    <glyph glyph-name="k" unicode="k" 
d="M256 0v64h64v-64h-64zM192 64v64h64v-64h-64zM128 128v64h64v-64h-64zM128 256v64h64v-64h-64zM192 320v64h64v-64h-64zM0 0v576h64v-320h64v-64h-64v-192h-64z" />
    <glyph glyph-name="l" unicode="l" horiz-adv-x="128" 
d="M0 0v576h64v-576h-64z" />
    <glyph glyph-name="m" unicode="m" horiz-adv-x="512" 
d="M192 0v320h64v-320h-64zM384 0v320h64v-320h-64zM0 0v384h192v-64h-128v-320h-64zM256 320v64h128v-64h-128z" />
    <glyph glyph-name="n" unicode="n" 
d="M256 0v320h64v-320h-64zM0 0v384h256v-64h-192v-320h-64z" />
    <glyph glyph-name="o" unicode="o" 
d="M64 0v64h192v-64h-192zM0 64v256h64v-256h-64zM256 64v256h64v-256h-64zM64 320v64h192v-64h-192z" />
    <glyph glyph-name="p" unicode="p" 
d="M256 64v256h64v-256h-64zM0 -128v512h256v-64h-192v-256h192v-64h-192v-128h-64z" />
    <glyph glyph-name="q" unicode="q" 
d="M0 64v256h64v-256h-64zM256 -128v128h-192v64h192v256h-192v64h256v-512h-64z" />
    <glyph glyph-name="r" unicode="r" horiz-adv-x="256" 
d="M0 0v384h64v-64h64v-64h-64v-256h-64zM128 320v64h64v-64h-64z" />
    <glyph glyph-name="s" unicode="s" horiz-adv-x="320" 
d="M0 0v64h192v-64h-192zM192 64v64h-64v64h128v-128h-64zM0 192v128h64v-64h64v-64h-128zM64 320v64h192v-64h-192z" />
    <glyph glyph-name="t" unicode="t" horiz-adv-x="256" 
d="M64 0v64h128v-64h-128zM0 64v448h64v-128h128v-64h-128v-256h-64z" />
    <glyph glyph-name="u" unicode="u" 
d="M0 64v320h64v-320h-64zM64 0v64h192v320h64v-384h-256z" />
    <glyph glyph-name="v" unicode="v" 
d="M128 0v128h64v-128h-64zM64 128v128h64v-128h-64zM192 128v128h64v-128h-64zM0 256v128h64v-128h-64zM256 256v128h64v-128h-64z" />
    <glyph glyph-name="w" unicode="w" horiz-adv-x="512" 
d="M64 0v128h64v-128h-64zM320 0v128h64v-128h-64zM128 128v128h64v-128h-64zM256 128v128h64v-128h-64zM0 128v256h64v-256h-64zM192 256v128h64v-128h-64zM384 128v256h64v-256h-64z" />
    <glyph glyph-name="x" unicode="x" 
d="M0 0v64h64v-64h-64zM256 0v64h64v-64h-64zM64 64v64h64v-64h-64zM192 64v64h64v-64h-64zM128 128v128h64v-128h-64zM64 256v64h64v-64h-64zM192 256v64h64v-64h-64zM0 320v64h64v-64h-64zM256 320v64h64v-64h-64z" />
    <glyph glyph-name="y" unicode="y" 
d="M64 -128v128h64v-128h-64zM128 0v128h64v-128h-64zM64 128v128h64v-128h-64zM192 128v128h64v-128h-64zM0 256v128h64v-128h-64zM256 256v128h64v-128h-64z" />
    <glyph glyph-name="z" unicode="z" horiz-adv-x="320" 
d="M0 0v128h64v-64h192v-64h-256zM64 128v64h64v-64h-64zM128 192v64h64v-64h-64zM192 256v64h-192v64h256v-128h-64z" />
    <glyph glyph-name="braceleft" unicode="{" horiz-adv-x="320" 
d="M192 -128v64h64v-64h-64zM128 -64v256h64v-256h-64zM0 192v64h128v-64h-128zM128 256v256h64v-256h-64zM192 512v64h64v-64h-64z" />
    <glyph glyph-name="bar" unicode="|" horiz-adv-x="128" 
d="M0 -128v704h64v-704h-64z" />
    <glyph glyph-name="braceright" unicode="}" horiz-adv-x="320" 
d="M0 -128v64h64v-64h-64zM64 -64v256h64v-256h-64zM128 192v64h128v-64h-128zM64 256v256h64v-256h-64zM0 512v64h64v-64h-64z" />
    <glyph glyph-name="asciitilde" unicode="~" horiz-adv-x="512" 
d="M256 128v64h128v-64h-128zM0 128v128h64v-128h-64zM192 192v64h64v-64h-64zM64 256v64h128v-64h-128zM384 192v128h64v-128h-64z" />
    <glyph glyph-name="exclamdown" unicode="&#xa1;" horiz-adv-x="128" 
d="M0 0v384h64v-384h-64zM0 448v64h64v-64h-64z" />
    <glyph glyph-name="cent" unicode="&#xa2;" 
d="M0 64v256h64v-256h-64zM128 -128v128h-64v64h64v256h-64v64h64v128h64v-128h128v-64h-128v-256h128v-64h-128v-128h-64z" />
    <glyph glyph-name="sterling" unicode="&#xa3;" 
d="M0 0v64h64v128h-64v64h64v192h64v-192h128v-64h-128v-128h192v-64h-320zM128 448v64h192v-64h-192z" />
    <glyph glyph-name="currency" unicode="&#xa4;" 
d="M0 64v64h64v-64h-64zM256 64v64h64v-64h-64zM192 192v64h-64v-64h64zM64 128v192h192v-192h-192zM0 320v64h64v-64h-64zM256 320v64h64v-64h-64z" />
    <glyph glyph-name="yen" unicode="&#xa5;" 
d="M128 0v128h-128v64h128v128h64v-128h128v-64h-128v-128h-64zM64 320v128h64v-128h-64zM192 320v128h64v-128h-64zM0 448v64h64v-64h-64zM256 448v64h64v-64h-64z" />
    <glyph glyph-name="brokenbar" unicode="&#xa6;" horiz-adv-x="128" 
d="M0 -128v320h64v-320h-64zM0 320v256h64v-256h-64z" />
    <glyph glyph-name="section" unicode="&#xa7;" 
d="M0 -128v64h256v-64h-256zM256 -64v128h64v-128h-64zM64 64v64h192v-64h-192zM0 128v128h64v-128h-64zM256 128v128h64v-128h-64zM64 256v64h192v-64h-192zM0 320v128h64v-128h-64zM64 448v64h256v-64h-256z" />
    <glyph glyph-name="dieresis" unicode="&#xa8;" horiz-adv-x="256" 
d="M0 448v64h64v-64h-64zM128 448v64h64v-64h-64z" />
    <glyph glyph-name="copyright" unicode="&#xa9;" horiz-adv-x="640" 
d="M128 -64v64h320v-64h-320zM64 0v64h64v-64h-64zM448 0v64h64v-64h-64zM192 64v64h192v-64h-192zM128 128v192h64v-192h-64zM0 64v320h64v-320h-64zM192 320v64h192v-64h-192zM512 64v320h64v-320h-64zM64 384v64h64v-64h-64zM448 384v64h64v-64h-64zM128 448v64h320v-64
h-320z" />
    <glyph glyph-name="ordfeminine" unicode="&#xaa;" horiz-adv-x="320" 
d="M0 256v64h64v-64h-64zM64 192v64h128v64h-128v64h128v64h64v-256h-192zM0 448v64h192v-64h-192z" />
    <glyph glyph-name="guillemotleft" unicode="&#xab;" 
d="M128 64v64h64v-64h-64zM256 64v64h64v-64h-64zM64 128v64h64v-64h-64zM192 128v64h64v-64h-64zM0 192v64h64v-64h-64zM128 192v64h64v-64h-64zM64 256v64h64v-64h-64zM192 256v64h64v-64h-64zM128 320v64h64v-64h-64zM256 320v64h64v-64h-64z" />
    <glyph glyph-name="logicalnot" unicode="&#xac;" horiz-adv-x="448" 
d="M320 0v192h-320v64h384v-256h-64z" />
    <glyph glyph-name="uni00AD" unicode="&#xad;" horiz-adv-x="256" 
d="M0 192v64h192v-64h-192z" />
    <glyph glyph-name="registered" unicode="&#xae;" horiz-adv-x="640" 
d="M128 -64v64h320v-64h-320zM64 0v64h64v-64h-64zM448 0v64h64v-64h-64zM384 64v64h64v-64h-64zM384 256v64h64v-64h-64zM0 64v320h64v-320h-64zM192 64v320h192v-64h-128v-64h128v-128h-64v64h-64v-128h-64zM512 64v320h64v-320h-64zM64 384v64h64v-64h-64zM448 384v64h64
v-64h-64zM128 448v64h320v-64h-320z" />
    <glyph glyph-name="macron" unicode="&#xaf;" horiz-adv-x="448" 
d="M0 576v64h384v-64h-384z" />
    <glyph glyph-name="degree" unicode="&#xb0;" horiz-adv-x="320" 
d="M64 256v64h128v-64h-128zM0 320v128h64v-128h-64zM192 320v128h64v-128h-64zM64 448v64h128v-64h-128z" />
    <glyph glyph-name="plusminus" unicode="&#xb1;" horiz-adv-x="512" 
d="M0 64v64h192v128h-192v64h192v192h64v-192h192v-64h-192v-128h192v-64h-448z" />
    <glyph glyph-name="uni00B2" unicode="&#xb2;" horiz-adv-x="256" 
d="M0 192v64h64v64h64v-64h64v-64h-192zM128 320v128h64v-128h-64zM0 448v64h128v-64h-128z" />
    <glyph glyph-name="uni00B3" unicode="&#xb3;" horiz-adv-x="256" 
d="M0 192v64h128v-64h-128zM128 256v64h64v-64h-64zM64 320v64h64v-64h-64zM128 384v64h64v-64h-64zM0 448v64h128v-64h-128z" />
    <glyph glyph-name="acute" unicode="&#xb4;" horiz-adv-x="192" 
d="M0 448v64h64v-64h-64zM64 512v64h64v-64h-64z" />
    <glyph glyph-name="mu" unicode="&#xb5;" 
d="M0 -128v512h64v-320h128v-64h-128v-128h-64zM256 0v64h-64v64h64v256h64v-384h-64z" />
    <glyph glyph-name="paragraph" unicode="&#xb6;" 
d="M128 -128v320h-64v64h-64v192h64v64h256v-640h-64v576h-64v-576h-64z" />
    <glyph glyph-name="periodcentered" unicode="&#xb7;" horiz-adv-x="128" 
d="M0 256v128h64v-128h-64z" />
    <glyph glyph-name="cedilla" unicode="&#xb8;" horiz-adv-x="448" 
d="M192 -64v64h128v-64h-128zM320 0v64h64v-64h-64z" />
    <glyph glyph-name="uni00B9" unicode="&#xb9;" horiz-adv-x="256" 
d="M0 192v64h64v128h-64v64h64v64h64v-256h64v-64h-192z" />
    <glyph glyph-name="ordmasculine" unicode="&#xba;" horiz-adv-x="320" 
d="M64 192v64h128v-64h-128zM0 256v192h64v-192h-64zM192 256v192h64v-192h-64zM64 448v64h128v-64h-128z" />
    <glyph glyph-name="guillemotright" unicode="&#xbb;" 
d="M0 64v64h64v-64h-64zM128 64v64h64v-64h-64zM64 128v64h64v-64h-64zM192 128v64h64v-64h-64zM128 192v64h64v-64h-64zM256 192v64h64v-64h-64zM64 256v64h64v-64h-64zM192 256v64h64v-64h-64zM0 320v64h64v-64h-64zM128 320v64h64v-64h-64z" />
    <glyph glyph-name="onequarter" unicode="&#xbc;" horiz-adv-x="640" 
d="M128 0v64h64v-64h-64zM192 64v128h64v-128h-64zM256 192v128h64v-128h-64zM448 0v64h-128v128h64v-64h64v64h-64v64h64v64h64v-192h64v-64h-64v-64h-64zM320 320v128h64v-128h-64zM64 192v192h-64v64h64v64h64v-320h-64zM384 448v64h64v-64h-64z" />
    <glyph glyph-name="onehalf" unicode="&#xbd;" horiz-adv-x="640" 
d="M128 0v64h64v-64h-64zM384 0v64h64v64h64v-64h64v-64h-192zM192 64v128h64v-128h-64zM512 128v128h64v-128h-64zM256 192v128h64v-128h-64zM384 256v64h128v-64h-128zM320 320v128h64v-128h-64zM64 192v192h-64v64h64v64h64v-320h-64zM384 448v64h64v-64h-64z" />
    <glyph glyph-name="threequarters" unicode="&#xbe;" horiz-adv-x="640" 
d="M128 0v64h64v-64h-64zM192 64v128h64v-128h-64zM0 192v64h192v-64h-192zM256 192v64h-64v64h128v-128h-64zM448 0v64h-128v128h64v-64h64v64h-64v64h64v64h64v-192h64v-64h-64v-64h-64zM64 320v64h128v-64h-128zM192 384v64h64v-64h-64zM320 320v128h64v-128h-64zM0 448
v64h192v-64h-192zM384 448v64h64v-64h-64z" />
    <glyph glyph-name="questiondown" unicode="&#xbf;" horiz-adv-x="320" 
d="M64 0v64h192v-64h-192zM0 64v128h64v-128h-64zM64 192v64h64v-64h-64zM128 256v128h64v-128h-64zM128 448v64h64v-64h-64z" />
    <glyph glyph-name="Agrave" unicode="&#xc0;" horiz-adv-x="448" 
d="M0 0v192h64v192h64v-192h128v192h64v-192h64v-192h-64v128h-256v-128h-64zM128 384v128h128v-128h-128zM192 576v64h64v-64h-64zM128 640v64h64v-64h-64z" />
    <glyph glyph-name="Aacute" unicode="&#xc1;" horiz-adv-x="448" 
d="M0 0v192h64v192h64v-192h128v192h64v-192h64v-192h-64v128h-256v-128h-64zM128 384v128h128v-128h-128zM128 576v64h64v-64h-64zM192 640v64h64v-64h-64z" />
    <glyph glyph-name="Acircumflex" unicode="&#xc2;" horiz-adv-x="448" 
d="M0 0v192h64v192h64v-192h128v192h64v-192h64v-192h-64v128h-256v-128h-64zM128 384v128h128v-128h-128zM64 576v64h64v-64h-64zM256 576v64h64v-64h-64zM128 640v64h128v-64h-128z" />
    <glyph glyph-name="Atilde" unicode="&#xc3;" horiz-adv-x="448" 
d="M0 0v192h64v192h64v-192h128v192h64v-192h64v-192h-64v128h-256v-128h-64zM128 384v128h128v-128h-128zM64 576v128h128v-64h-64v-64h-64zM192 576v64h64v64h64v-128h-128z" />
    <glyph glyph-name="Adieresis" unicode="&#xc4;" horiz-adv-x="448" 
d="M0 0v192h64v192h64v-192h128v192h64v-192h64v-192h-64v128h-256v-128h-64zM128 384v128h128v-128h-128zM64 576v64h64v-64h-64zM256 576v64h64v-64h-64z" />
    <glyph glyph-name="Aring" unicode="&#xc5;" horiz-adv-x="448" 
d="M0 0v192h64v192h64v-192h128v192h64v-192h64v-192h-64v128h-256v-128h-64zM128 384v128h128v-128h-128zM64 512v128h64v-128h-64zM256 512v128h64v-128h-64zM128 640v64h128v-64h-128z" />
    <glyph glyph-name="AE" unicode="&#xc6;" horiz-adv-x="640" 
d="M0 0v192h64v-192h-64zM256 0v192h-192v192h64v-128h128v192h-64v-64h-64v128h448v-64h-256v-128h192v-64h-192v-192h256v-64h-320z" />
    <glyph glyph-name="Ccedilla" unicode="&#xc7;" horiz-adv-x="448" 
d="M128 -128v64h128v-64h-128zM256 -64v64h-128v64h256v-64h-64v-64h-64zM64 64v64h64v-64h-64zM0 128v256h64v-256h-64zM64 384v64h64v-64h-64zM128 448v64h256v-64h-256z" />
    <glyph glyph-name="Egrave" unicode="&#xc8;" 
d="M0 0v512h320v-64h-256v-128h192v-64h-192v-192h256v-64h-320zM192 576v64h64v-64h-64zM128 640v64h64v-64h-64z" />
    <glyph glyph-name="Eacute" unicode="&#xc9;" 
d="M0 0v512h320v-64h-256v-128h192v-64h-192v-192h256v-64h-320zM128 576v64h64v-64h-64zM192 640v64h64v-64h-64z" />
    <glyph glyph-name="Ecircumflex" unicode="&#xca;" 
d="M0 0v512h320v-64h-256v-128h192v-64h-192v-192h256v-64h-320zM64 576v64h64v-64h-64zM256 576v64h64v-64h-64zM128 640v64h128v-64h-128z" />
    <glyph glyph-name="Edieresis" unicode="&#xcb;" 
d="M0 0v512h320v-64h-256v-128h192v-64h-192v-192h256v-64h-320zM64 576v64h64v-64h-64zM192 576v64h64v-64h-64z" />
    <glyph glyph-name="Igrave" unicode="&#xcc;" horiz-adv-x="256" 
d="M0 0v64h64v384h-64v64h192v-64h-64v-384h64v-64h-192zM64 576v64h64v-64h-64zM0 640v64h64v-64h-64z" />
    <glyph glyph-name="Iacute" unicode="&#xcd;" horiz-adv-x="256" 
d="M0 0v64h64v384h-64v64h192v-64h-64v-384h64v-64h-192zM64 576v64h64v-64h-64zM128 640v64h64v-64h-64z" />
    <glyph glyph-name="Icircumflex" unicode="&#xce;" horiz-adv-x="320" 
d="M0 0v64h64v384h-64v64h192v-64h-64v-384h64v-64h-192zM0 576v64h64v-64h-64zM192 576v64h64v-64h-64zM64 640v64h128v-64h-128z" />
    <glyph glyph-name="Idieresis" unicode="&#xcf;" horiz-adv-x="256" 
d="M0 0v64h64v384h-64v64h192v-64h-64v-384h64v-64h-192zM0 576v64h64v-64h-64zM128 576v64h64v-64h-64z" />
    <glyph glyph-name="Eth" unicode="&#xd0;" horiz-adv-x="512" 
d="M320 64v64h64v-64h-64zM384 128v256h64v-256h-64zM320 384v64h64v-64h-64zM64 0v256h-64v64h64v192h256v-64h-192v-128h128v-64h-128v-192h192v-64h-256z" />
    <glyph glyph-name="Ntilde" unicode="&#xd1;" horiz-adv-x="448" 
d="M192 128v128h64v-128h-64zM128 256v128h64v-128h-64zM0 0v512h128v-128h-64v-384h-64zM256 0v128h64v384h64v-512h-128zM64 576v128h128v-64h-64v-64h-64zM192 576v64h64v64h64v-128h-128z" />
    <glyph glyph-name="Ograve" unicode="&#xd2;" horiz-adv-x="512" 
d="M128 0v64h192v-64h-192zM64 64v64h64v-64h-64zM320 64v64h64v-64h-64zM0 128v256h64v-256h-64zM384 128v256h64v-256h-64zM64 384v64h64v-64h-64zM320 384v64h64v-64h-64zM128 448v64h192v-64h-192zM192 576v64h64v-64h-64zM128 640v64h64v-64h-64z" />
    <glyph glyph-name="Oacute" unicode="&#xd3;" horiz-adv-x="512" 
d="M128 0v64h192v-64h-192zM64 64v64h64v-64h-64zM320 64v64h64v-64h-64zM0 128v256h64v-256h-64zM384 128v256h64v-256h-64zM64 384v64h64v-64h-64zM320 384v64h64v-64h-64zM128 448v64h192v-64h-192zM192 576v64h64v-64h-64zM256 640v64h64v-64h-64z" />
    <glyph glyph-name="Ocircumflex" unicode="&#xd4;" horiz-adv-x="512" 
d="M128 0v64h192v-64h-192zM64 64v64h64v-64h-64zM320 64v64h64v-64h-64zM0 128v256h64v-256h-64zM384 128v256h64v-256h-64zM64 384v64h64v-64h-64zM320 384v64h64v-64h-64zM128 448v64h192v-64h-192zM128 576v64h64v-64h-64zM320 576v64h64v-64h-64zM192 640v64h128v-64
h-128z" />
    <glyph glyph-name="Otilde" unicode="&#xd5;" horiz-adv-x="512" 
d="M128 0v64h192v-64h-192zM64 64v64h64v-64h-64zM320 64v64h64v-64h-64zM0 128v256h64v-256h-64zM384 128v256h64v-256h-64zM64 384v64h64v-64h-64zM320 384v64h64v-64h-64zM128 448v64h192v-64h-192zM128 576v128h128v-64h-64v-64h-64zM256 576v64h64v64h64v-128h-128z
" />
    <glyph glyph-name="Odieresis" unicode="&#xd6;" horiz-adv-x="512" 
d="M128 0v64h192v-64h-192zM64 64v64h64v-64h-64zM320 64v64h64v-64h-64zM0 128v256h64v-256h-64zM384 128v256h64v-256h-64zM64 384v64h64v-64h-64zM320 384v64h64v-64h-64zM128 448v64h192v-64h-192zM128 576v64h64v-64h-64zM256 576v64h64v-64h-64z" />
    <glyph glyph-name="multiply" unicode="&#xd7;" horiz-adv-x="448" 
d="M64 64v64h64v-64h-64zM320 64v64h64v-64h-64zM128 128v64h64v-64h-64zM256 128v64h64v-64h-64zM192 192v64h64v-64h-64zM128 256v64h64v-64h-64zM256 256v64h64v-64h-64zM64 320v64h64v-64h-64zM320 320v64h64v-64h-64z" />
    <glyph glyph-name="Oslash" unicode="&#xd8;" horiz-adv-x="512" 
d="M0 0v64h64v-64h-64zM128 0v64h192v-64h-192zM64 64v64h64v-64h-64zM320 64v64h64v-64h-64zM128 128v64h64v-64h-64zM192 192v128h64v-128h-64zM0 128v256h64v-256h-64zM256 320v64h64v-64h-64zM384 128v256h64v-256h-64zM64 384v64h64v-64h-64zM320 384v64h64v-64h-64z
M128 448v64h192v-64h-192zM384 448v64h64v-64h-64z" />
    <glyph glyph-name="Ugrave" unicode="&#xd9;" horiz-adv-x="448" 
d="M64 0v64h256v-64h-256zM0 64v448h64v-448h-64zM320 64v448h64v-448h-64zM192 576v64h64v-64h-64zM128 640v64h64v-64h-64z" />
    <glyph glyph-name="Uacute" unicode="&#xda;" horiz-adv-x="448" 
d="M64 0v64h256v-64h-256zM0 64v448h64v-448h-64zM320 64v448h64v-448h-64zM128 576v64h64v-64h-64zM192 640v64h64v-64h-64z" />
    <glyph glyph-name="Ucircumflex" unicode="&#xdb;" horiz-adv-x="448" 
d="M64 0v64h256v-64h-256zM0 64v448h64v-448h-64zM320 64v448h64v-448h-64zM64 576v64h64v-64h-64zM256 576v64h64v-64h-64zM128 640v64h128v-64h-128z" />
    <glyph glyph-name="Udieresis" unicode="&#xdc;" horiz-adv-x="448" 
d="M64 0v64h256v-64h-256zM0 64v448h64v-448h-64zM320 64v448h64v-448h-64zM64 576v64h64v-64h-64zM256 576v64h64v-64h-64z" />
    <glyph glyph-name="Yacute" unicode="&#xdd;" 
d="M128 0v256h64v-256h-64zM64 256v128h64v-128h-64zM192 256v128h64v-128h-64zM0 384v128h64v-128h-64zM256 384v128h64v-128h-64zM128 576v64h64v-64h-64zM192 640v64h64v-64h-64z" />
    <glyph glyph-name="Thorn" unicode="&#xde;" 
d="M256 192v128h64v-128h-64zM0 0v512h64v-128h192v-64h-192v-128h192v-64h-192v-128h-64z" />
    <glyph glyph-name="germandbls" unicode="&#xdf;" 
d="M128 0v64h128v-64h-128zM256 64v192h64v-192h-64zM128 256v64h128v-64h-128zM0 0v448h64v-448h-64zM256 320v128h64v-128h-64zM64 448v64h192v-64h-192z" />
    <glyph glyph-name="agrave" unicode="&#xe0;" 
d="M0 64v128h64v-128h-64zM64 0v64h192v128h-192v64h192v64h64v-320h-256zM64 320v64h192v-64h-192zM192 448v64h64v-64h-64zM128 512v64h64v-64h-64z" />
    <glyph glyph-name="aacute" unicode="&#xe1;" 
d="M0 64v128h64v-128h-64zM64 0v64h192v128h-192v64h192v64h64v-320h-256zM64 320v64h192v-64h-192zM128 448v64h64v-64h-64zM192 512v64h64v-64h-64z" />
    <glyph glyph-name="acircumflex" unicode="&#xe2;" 
d="M0 64v128h64v-128h-64zM64 0v64h192v128h-192v64h192v64h64v-320h-256zM64 320v64h192v-64h-192zM64 448v64h64v-64h-64zM256 448v64h64v-64h-64zM128 512v64h128v-64h-128z" />
    <glyph glyph-name="atilde" unicode="&#xe3;" 
d="M0 64v128h64v-128h-64zM64 0v64h192v128h-192v64h192v64h64v-320h-256zM64 320v64h192v-64h-192zM64 448v128h128v-64h-64v-64h-64zM192 448v64h64v64h64v-128h-128z" />
    <glyph glyph-name="adieresis" unicode="&#xe4;" 
d="M0 64v128h64v-128h-64zM64 0v64h192v128h-192v64h192v64h64v-320h-256zM64 320v64h192v-64h-192zM64 448v64h64v-64h-64zM192 448v64h64v-64h-64z" />
    <glyph glyph-name="aring" unicode="&#xe5;" 
d="M0 64v128h64v-128h-64zM64 0v64h192v128h-192v64h192v64h64v-320h-256zM64 320v64h64v64h128v-128h-192zM64 448v128h64v-128h-64zM256 448v128h64v-128h-64zM128 576v64h128v-64h-128z" />
    <glyph glyph-name="ae" unicode="&#xe6;" horiz-adv-x="640" 
d="M64 0v64h192v-64h-192zM384 0v64h128v-64h-128zM512 64v64h64v-64h-64zM0 64v128h64v-128h-64zM256 64v128h-192v64h192v64h64v-64h192v64h64v-128h-256v-64h64v-64h-128zM64 320v64h192v-64h-192zM320 320v64h192v-64h-192z" />
    <glyph glyph-name="ccedilla" unicode="&#xe7;" horiz-adv-x="320" 
d="M0 -128v64h128v-64h-128zM128 -64v64h-64v64h192v-64h-64v-64h-64zM0 64v256h64v-256h-64zM64 320v64h192v-64h-192z" />
    <glyph glyph-name="egrave" unicode="&#xe8;" 
d="M64 0v64h192v-64h-192zM256 64v64h64v-64h-64zM0 64v256h64v-64h192v64h64v-128h-256v-128h-64zM64 320v64h192v-64h-192zM128 448v64h64v-64h-64zM64 512v64h64v-64h-64z" />
    <glyph glyph-name="eacute" unicode="&#xe9;" 
d="M64 0v64h192v-64h-192zM256 64v64h64v-64h-64zM0 64v256h64v-64h192v64h64v-128h-256v-128h-64zM64 320v64h192v-64h-192zM128 448v64h64v-64h-64zM192 512v64h64v-64h-64z" />
    <glyph glyph-name="ecircumflex" unicode="&#xea;" 
d="M64 0v64h192v-64h-192zM256 64v64h64v-64h-64zM0 64v256h64v-64h192v64h64v-128h-256v-128h-64zM64 320v64h192v-64h-192zM64 448v64h64v-64h-64zM256 448v64h64v-64h-64zM128 512v64h128v-64h-128z" />
    <glyph glyph-name="edieresis" unicode="&#xeb;" 
d="M64 0v64h192v-64h-192zM256 64v64h64v-64h-64zM0 64v256h64v-64h192v64h64v-128h-256v-128h-64zM64 320v64h192v-64h-192zM64 448v64h64v-64h-64zM192 448v64h64v-64h-64z" />
    <glyph glyph-name="igrave" unicode="&#xec;" horiz-adv-x="192" 
d="M64 0v384h64v-384h-64zM64 448v64h64v-64h-64zM0 512v64h64v-64h-64z" />
    <glyph glyph-name="iacute" unicode="&#xed;" horiz-adv-x="192" 
d="M0 0v384h64v-384h-64zM0 448v64h64v-64h-64zM64 512v64h64v-64h-64z" />
    <glyph glyph-name="icircumflex" unicode="&#xee;" horiz-adv-x="256" 
d="M64 0v384h64v-384h-64zM0 448v64h64v-64h-64zM128 448v64h64v-64h-64zM64 512v64h64v-64h-64z" />
    <glyph glyph-name="idieresis" unicode="&#xef;" horiz-adv-x="256" 
d="M64 0v384h64v-384h-64zM0 448v64h64v-64h-64zM128 448v64h64v-64h-64z" />
    <glyph glyph-name="eth" unicode="&#xf0;" 
d="M64 0v64h192v-64h-192zM0 64v192h64v-192h-64zM256 64v192h-192v64h192v64h64v-320h-64zM64 384v64h64v-64h-64zM192 384v64h-64v64h128v-128h-64z" />
    <glyph glyph-name="ntilde" unicode="&#xf1;" 
d="M256 0v320h64v-320h-64zM0 0v384h256v-64h-192v-320h-64zM64 448v128h128v-64h-64v-64h-64zM192 448v64h64v64h64v-128h-128z" />
    <glyph glyph-name="ograve" unicode="&#xf2;" 
d="M64 0v64h192v-64h-192zM0 64v256h64v-256h-64zM256 64v256h64v-256h-64zM64 320v64h192v-64h-192zM128 448v64h64v-64h-64zM64 512v64h64v-64h-64z" />
    <glyph glyph-name="oacute" unicode="&#xf3;" 
d="M64 0v64h192v-64h-192zM0 64v256h64v-256h-64zM256 64v256h64v-256h-64zM64 320v64h192v-64h-192zM128 448v64h64v-64h-64zM192 512v64h64v-64h-64z" />
    <glyph glyph-name="ocircumflex" unicode="&#xf4;" 
d="M64 0v64h192v-64h-192zM0 64v256h64v-256h-64zM256 64v256h64v-256h-64zM64 320v64h192v-64h-192zM64 448v64h64v-64h-64zM256 448v64h64v-64h-64zM128 512v64h128v-64h-128z" />
    <glyph glyph-name="otilde" unicode="&#xf5;" 
d="M64 0v64h192v-64h-192zM0 64v256h64v-256h-64zM256 64v256h64v-256h-64zM64 320v64h192v-64h-192zM64 448v128h128v-64h-64v-64h-64zM192 448v64h64v64h64v-128h-128z" />
    <glyph glyph-name="odieresis" unicode="&#xf6;" 
d="M64 0v64h192v-64h-192zM0 64v256h64v-256h-64zM256 64v256h64v-256h-64zM64 320v64h192v-64h-192zM64 448v64h64v-64h-64zM192 448v64h64v-64h-64z" />
    <glyph glyph-name="divide" unicode="&#xf7;" horiz-adv-x="512" 
d="M192 0v128h64v-128h-64zM0 192v64h448v-64h-448zM192 320v128h64v-128h-64z" />
    <glyph glyph-name="oslash" unicode="&#xf8;" 
d="M0 -64v64h64v-64h-64zM128 128v128h64v-128h-64zM64 0v64h-64v256h64v-192h64v-64h128v-64h-192zM256 64v192h-64v64h-128v64h192v-64h64v-256h-64zM256 384v64h64v-64h-64z" />
    <glyph glyph-name="ugrave" unicode="&#xf9;" 
d="M0 64v320h64v-320h-64zM64 0v64h192v320h64v-384h-256zM128 448v64h64v-64h-64zM64 512v64h64v-64h-64z" />
    <glyph glyph-name="uacute" unicode="&#xfa;" 
d="M0 64v320h64v-320h-64zM64 0v64h192v320h64v-384h-256zM128 448v64h64v-64h-64zM192 512v64h64v-64h-64z" />
    <glyph glyph-name="ucircumflex" unicode="&#xfb;" 
d="M0 64v320h64v-320h-64zM64 0v64h192v320h64v-384h-256zM64 448v64h64v-64h-64zM256 448v64h64v-64h-64zM128 512v64h128v-64h-128z" />
    <glyph glyph-name="udieresis" unicode="&#xfc;" 
d="M0 64v320h64v-320h-64zM64 0v64h192v320h64v-384h-256zM64 448v64h64v-64h-64zM192 448v64h64v-64h-64z" />
    <glyph glyph-name="yacute" unicode="&#xfd;" 
d="M64 -128v128h64v-128h-64zM128 0v128h64v-128h-64zM64 128v128h64v-128h-64zM192 128v128h64v-128h-64zM0 256v128h64v-128h-64zM256 256v128h64v-128h-64zM128 448v64h64v-64h-64zM192 512v64h64v-64h-64z" />
    <glyph glyph-name="thorn" unicode="&#xfe;" 
d="M256 64v256h64v-256h-64zM0 -128v704h64v-192h192v-64h-192v-256h192v-64h-192v-128h-64z" />
    <glyph glyph-name="ydieresis" unicode="&#xff;" 
d="M64 -128v128h64v-128h-64zM128 0v128h64v-128h-64zM64 128v128h64v-128h-64zM192 128v128h64v-128h-64zM0 256v128h64v-128h-64zM256 256v128h64v-128h-64zM64 448v64h64v-64h-64zM192 448v64h64v-64h-64z" />
    <glyph glyph-name="Amacron" unicode="&#x100;" horiz-adv-x="448" 
d="M0 0v192h64v192h64v-192h128v192h64v-192h64v-192h-64v128h-256v-128h-64zM128 384v128h128v-128h-128zM64 576v64h256v-64h-256z" />
    <glyph glyph-name="amacron" unicode="&#x101;" 
d="M0 64v128h64v-128h-64zM64 0v64h192v128h-192v64h192v64h64v-320h-256zM64 320v64h192v-64h-192zM64 448v64h256v-64h-256z" />
    <glyph glyph-name="Abreve" unicode="&#x102;" horiz-adv-x="448" 
d="M0 0v192h64v192h64v-192h128v192h64v-192h64v-192h-64v128h-256v-128h-64zM128 384v128h128v-128h-128zM128 576v64h128v-64h-128zM64 640v64h64v-64h-64zM256 640v64h64v-64h-64z" />
    <glyph glyph-name="abreve" unicode="&#x103;" 
d="M0 64v128h64v-128h-64zM64 0v64h192v128h-192v64h192v64h64v-320h-256zM64 320v64h192v-64h-192zM128 448v64h128v-64h-128zM64 512v64h64v-64h-64zM256 512v64h64v-64h-64z" />
    <glyph glyph-name="Aogonek" unicode="&#x104;" horiz-adv-x="512" 
d="M320 -128v256h-256v-128h-64v192h64v192h64v-192h128v192h64v-192h64v-256h64v-64h-128zM128 384v128h128v-128h-128z" />
    <glyph glyph-name="aogonek" unicode="&#x105;" horiz-adv-x="448" 
d="M0 64v128h64v-128h-64zM256 -128v128h-192v64h192v128h-192v64h192v64h64v-384h64v-64h-128zM64 320v64h192v-64h-192z" />
    <glyph glyph-name="Cacute" unicode="&#x106;" horiz-adv-x="448" 
d="M128 0v64h256v-64h-256zM64 64v64h64v-64h-64zM0 128v256h64v-256h-64zM64 384v64h64v-64h-64zM128 448v64h256v-64h-256zM192 576v64h64v-64h-64zM256 640v64h64v-64h-64z" />
    <glyph glyph-name="cacute" unicode="&#x107;" horiz-adv-x="320" 
d="M64 0v64h192v-64h-192zM0 64v256h64v-256h-64zM64 320v64h192v-64h-192zM128 448v64h64v-64h-64zM192 512v64h64v-64h-64z" />
    <glyph glyph-name="Ccircumflex" unicode="&#x108;" horiz-adv-x="448" 
d="M128 0v64h256v-64h-256zM64 64v64h64v-64h-64zM0 128v256h64v-256h-64zM64 384v64h64v-64h-64zM128 448v64h256v-64h-256zM128 576v64h64v-64h-64zM320 576v64h64v-64h-64zM192 640v64h128v-64h-128z" />
    <glyph glyph-name="ccircumflex" unicode="&#x109;" horiz-adv-x="320" 
d="M64 0v64h192v-64h-192zM0 64v256h64v-256h-64zM64 320v64h192v-64h-192zM0 448v64h64v-64h-64zM192 448v64h64v-64h-64zM64 512v64h128v-64h-128z" />
    <glyph glyph-name="Cdotaccent" unicode="&#x10a;" horiz-adv-x="448" 
d="M128 0v64h256v-64h-256zM64 64v64h64v-64h-64zM0 128v256h64v-256h-64zM64 384v64h64v-64h-64zM128 448v64h256v-64h-256zM192 576v64h64v-64h-64z" />
    <glyph glyph-name="cdotaccent" unicode="&#x10b;" horiz-adv-x="320" 
d="M64 0v64h192v-64h-192zM0 64v256h64v-256h-64zM64 320v64h192v-64h-192zM128 448v64h64v-64h-64z" />
    <glyph glyph-name="Ccaron" unicode="&#x10c;" horiz-adv-x="448" 
d="M128 0v64h256v-64h-256zM64 64v64h64v-64h-64zM0 128v256h64v-256h-64zM64 384v64h64v-64h-64zM128 448v64h256v-64h-256zM192 576v64h128v-64h-128zM128 640v64h64v-64h-64zM320 640v64h64v-64h-64z" />
    <glyph glyph-name="ccaron" unicode="&#x10d;" 
d="M64 0v64h192v-64h-192zM0 64v256h64v-256h-64zM64 320v64h192v-64h-192zM128 448v64h128v-64h-128zM64 512v64h64v-64h-64zM256 512v64h64v-64h-64z" />
    <glyph glyph-name="Dcaron" unicode="&#x10e;" horiz-adv-x="448" 
d="M256 64v64h64v-64h-64zM320 128v256h64v-256h-64zM256 384v64h64v-64h-64zM0 0v512h256v-64h-192v-384h192v-64h-256zM128 576v64h128v-64h-128zM64 640v64h64v-64h-64zM256 640v64h64v-64h-64z" />
    <glyph glyph-name="dcaron" unicode="&#x10f;" horiz-adv-x="576" 
d="M0 64v256h64v-256h-64zM384 384v64h64v-64h-64zM64 0v64h192v256h-192v64h192v192h64v-576h-256zM448 448v128h64v-128h-64z" />
    <glyph glyph-name="Dcroat" unicode="&#x110;" horiz-adv-x="512" 
d="M320 64v64h64v-64h-64zM384 128v256h64v-256h-64zM320 384v64h64v-64h-64zM64 0v256h-64v64h64v192h256v-64h-192v-128h128v-64h-128v-192h192v-64h-256z" />
    <glyph glyph-name="dcroat" unicode="&#x111;" horiz-adv-x="448" 
d="M0 64v256h64v-256h-64zM64 0v64h192v256h-192v64h192v64h-128v64h128v64h64v-64h64v-64h-64v-448h-256z" />
    <glyph glyph-name="Emacron" unicode="&#x112;" 
d="M0 0v512h320v-64h-256v-128h192v-64h-192v-192h256v-64h-320zM64 576v64h256v-64h-256z" />
    <glyph glyph-name="emacron" unicode="&#x113;" 
d="M64 0v64h192v-64h-192zM256 64v64h64v-64h-64zM0 64v256h64v-64h192v64h64v-128h-256v-128h-64zM64 320v64h192v-64h-192zM64 448v64h256v-64h-256z" />
    <glyph glyph-name="Ebreve" unicode="&#x114;" 
d="M0 0v512h320v-64h-256v-128h192v-64h-192v-192h256v-64h-320zM128 576v64h128v-64h-128zM64 640v64h64v-64h-64zM256 640v64h64v-64h-64z" />
    <glyph glyph-name="ebreve" unicode="&#x115;" 
d="M64 0v64h192v-64h-192zM256 64v64h64v-64h-64zM0 64v256h64v-64h192v64h64v-128h-256v-128h-64zM64 320v64h192v-64h-192zM128 448v64h128v-64h-128zM64 512v64h64v-64h-64zM256 512v64h64v-64h-64z" />
    <glyph glyph-name="Edotaccent" unicode="&#x116;" 
d="M0 0v512h320v-64h-256v-128h192v-64h-192v-192h256v-64h-320zM128 576v64h64v-64h-64z" />
    <glyph glyph-name="edotaccent" unicode="&#x117;" 
d="M64 0v64h192v-64h-192zM256 64v64h64v-64h-64zM0 64v256h64v-64h192v64h64v-128h-256v-128h-64zM64 320v64h192v-64h-192zM128 448v64h64v-64h-64z" />
    <glyph glyph-name="Eogonek" unicode="&#x118;" 
d="M256 -128v64h64v-64h-64zM192 -64v64h-192v512h320v-64h-256v-128h192v-64h-192v-192h256v-64h-64v-64h-64z" />
    <glyph glyph-name="eogonek" unicode="&#x119;" 
d="M192 -128v128h-128v64h256v-64h-64v-64h64v-64h-128zM0 64v256h64v-64h192v64h64v-128h-256v-128h-64zM64 320v64h192v-64h-192z" />
    <glyph glyph-name="Ecaron" unicode="&#x11a;" 
d="M0 0v512h320v-64h-256v-128h192v-64h-192v-192h256v-64h-320zM128 576v64h128v-64h-128zM64 640v64h64v-64h-64zM256 640v64h64v-64h-64z" />
    <glyph glyph-name="ecaron" unicode="&#x11b;" 
d="M64 0v64h192v-64h-192zM256 64v64h64v-64h-64zM0 64v256h64v-64h192v64h64v-128h-256v-128h-64zM64 320v64h192v-64h-192zM128 448v64h128v-64h-128zM64 512v64h64v-64h-64zM256 512v64h64v-64h-64z" />
    <glyph glyph-name="Gcircumflex" unicode="&#x11c;" horiz-adv-x="448" 
d="M64 64v64h64v-64h-64zM128 0v64h192v128h-128v64h192v-256h-256zM0 128v256h64v-256h-64zM64 384v64h64v-64h-64zM128 448v64h256v-64h-256zM64 576v64h64v-64h-64zM256 576v64h64v-64h-64zM128 640v64h128v-64h-128z" />
    <glyph glyph-name="gcircumflex" unicode="&#x11d;" 
d="M64 -128v64h192v-64h-192zM0 64v256h64v-256h-64zM256 -64v64h-192v64h192v256h-192v64h256v-448h-64zM64 448v64h64v-64h-64zM256 448v64h64v-64h-64zM128 512v64h128v-64h-128z" />
    <glyph glyph-name="Gbreve" unicode="&#x11e;" horiz-adv-x="448" 
d="M64 64v64h64v-64h-64zM128 0v64h192v128h-128v64h192v-256h-256zM0 128v256h64v-256h-64zM64 384v64h64v-64h-64zM128 448v64h256v-64h-256zM128 576v64h128v-64h-128zM64 640v64h64v-64h-64zM256 640v64h64v-64h-64z" />
    <glyph glyph-name="gbreve" unicode="&#x11f;" 
d="M64 -128v64h192v-64h-192zM0 64v256h64v-256h-64zM256 -64v64h-192v64h192v256h-192v64h256v-448h-64zM128 448v64h128v-64h-128zM64 512v64h64v-64h-64zM256 512v64h64v-64h-64z" />
    <glyph glyph-name="Gdotaccent" unicode="&#x120;" horiz-adv-x="448" 
d="M64 64v64h64v-64h-64zM128 0v64h192v128h-128v64h192v-256h-256zM0 128v256h64v-256h-64zM64 384v64h64v-64h-64zM128 448v64h256v-64h-256zM192 576v64h64v-64h-64z" />
    <glyph glyph-name="gdotaccent" unicode="&#x121;" 
d="M64 -128v64h192v-64h-192zM0 64v256h64v-256h-64zM256 -64v64h-192v64h192v256h-192v64h256v-448h-64zM128 448v64h64v-64h-64z" />
    <glyph glyph-name="uni0122" unicode="&#x122;" horiz-adv-x="448" 
d="M64 64v64h64v-64h-64zM64 -128v64h128v64h-64v64h192v128h-128v64h192v-256h-128v-128h-192zM0 128v256h64v-256h-64zM64 384v64h64v-64h-64zM128 448v64h256v-64h-256z" />
    <glyph glyph-name="uni0123" unicode="&#x123;" 
d="M64 -128v64h192v-64h-192zM0 64v256h64v-256h-64zM256 -64v64h-192v64h192v256h-192v64h256v-448h-64zM128 448v64h64v-64h-64zM192 512v64h64v-64h-64z" />
    <glyph glyph-name="Hcircumflex" unicode="&#x124;" horiz-adv-x="448" 
d="M0 0v512h64v-192h256v192h64v-512h-64v256h-256v-256h-64zM64 576v64h64v-64h-64zM256 576v64h64v-64h-64zM128 640v64h128v-64h-128z" />
    <glyph glyph-name="hcircumflex" unicode="&#x125;" 
d="M256 0v256h64v-256h-64zM0 0v576h64v-256h192v-64h-192v-256h-64zM64 576v64h64v-64h-64zM256 576v64h64v-64h-64zM128 640v64h128v-64h-128z" />
    <glyph glyph-name="Hbar" unicode="&#x126;" horiz-adv-x="576" 
d="M384 320v64h-256v-64h256zM64 0v384h-64v64h64v64h64v-64h256v64h64v-64h64v-64h-64v-384h-64v256h-256v-256h-64z" />
    <glyph glyph-name="hbar" unicode="&#x127;" horiz-adv-x="448" 
d="M320 0v256h64v-256h-64zM64 0v448h-64v64h64v64h64v-64h128v-64h-128v-128h192v-64h-192v-256h-64z" />
    <glyph glyph-name="Itilde" unicode="&#x128;" horiz-adv-x="256" 
d="M0 0v64h64v384h-64v64h192v-64h-64v-384h64v-64h-192zM0 576v128h64v-64h64v64h64v-128h-192z" />
    <glyph glyph-name="itilde" unicode="&#x129;" horiz-adv-x="320" 
d="M64 0v384h64v-384h-64zM0 448v128h128v-64h-64v-64h-64zM128 448v64h64v64h64v-128h-128z" />
    <glyph glyph-name="Imacron" unicode="&#x12a;" horiz-adv-x="256" 
d="M0 0v64h64v384h-64v64h192v-64h-64v-384h64v-64h-192zM0 576v64h192v-64h-192z" />
    <glyph glyph-name="imacron" unicode="&#x12b;" horiz-adv-x="256" 
d="M64 0v384h64v-384h-64zM0 448v64h192v-64h-192z" />
    <glyph glyph-name="Ibreve" unicode="&#x12c;" horiz-adv-x="256" 
d="M0 0v64h64v384h-64v64h192v-64h-64v-384h64v-64h-192zM0 576v128h64v-64h64v64h64v-128h-192z" />
    <glyph glyph-name="ibreve" unicode="&#x12d;" horiz-adv-x="256" 
d="M64 0v384h64v-384h-64zM0 448v128h64v-64h64v64h64v-128h-192z" />
    <glyph glyph-name="Iogonek" unicode="&#x12e;" horiz-adv-x="256" 
d="M128 -128v64h64v-64h-64zM64 -64v64h-64v64h64v384h-64v64h192v-64h-64v-384h64v-64h-64v-64h-64z" />
    <glyph glyph-name="iogonek" unicode="&#x12f;" horiz-adv-x="192" 
d="M64 -128v64h64v-64h-64zM0 -64v448h64v-448h-64zM0 448v64h64v-64h-64z" />
    <glyph glyph-name="Idotaccent" unicode="&#x130;" horiz-adv-x="256" 
d="M0 0v64h64v384h-64v64h192v-64h-64v-384h64v-64h-192zM64 576v64h64v-64h-64z" />
    <glyph glyph-name="dotlessi" unicode="&#x131;" horiz-adv-x="128" 
d="M0 0v384h64v-384h-64z" />
    <glyph glyph-name="IJ" unicode="&#x132;" horiz-adv-x="512" 
d="M256 0v64h128v-64h-128zM0 0v64h64v384h-64v64h192v-64h-64v-384h64v-64h-192zM384 64v384h-64v64h128v-448h-64z" />
    <glyph glyph-name="ij" unicode="&#x133;" horiz-adv-x="320" 
d="M64 -128v64h128v-64h-128zM0 0v384h64v-384h-64zM192 -64v384h-64v64h128v-448h-64zM0 448v64h64v-64h-64zM192 448v64h64v-64h-64z" />
    <glyph glyph-name="Jcircumflex" unicode="&#x134;" 
d="M0 0v64h192v-64h-192zM192 64v384h-128v64h192v-448h-64zM64 576v64h64v-64h-64zM256 576v64h64v-64h-64zM128 640v64h128v-64h-128z" />
    <glyph glyph-name="jcircumflex" unicode="&#x135;" horiz-adv-x="256" 
d="M0 -128v64h64v-64h-64zM64 -64v384h-64v64h128v-448h-64zM0 448v64h64v-64h-64zM128 448v64h64v-64h-64zM64 512v64h64v-64h-64z" />
    <glyph glyph-name="uni0136" unicode="&#x136;" 
d="M64 -128v64h128v-64h-128zM192 -64v64h64v-64h-64zM256 0v64h64v-64h-64zM192 64v64h64v-64h-64zM128 128v64h64v-64h-64zM128 320v64h64v-64h-64zM192 384v64h64v-64h-64zM0 0v512h64v-192h64v-128h-64v-192h-64zM256 448v64h64v-64h-64z" />
    <glyph glyph-name="uni0137" unicode="&#x137;" 
d="M0 -128v64h128v-64h-128zM128 -64v64h64v-64h-64zM256 0v64h64v-64h-64zM192 64v64h64v-64h-64zM128 128v64h64v-64h-64zM128 256v64h64v-64h-64zM192 320v64h64v-64h-64zM0 0v576h64v-320h64v-64h-64v-192h-64z" />
    <glyph glyph-name="kgreenlandic" unicode="&#x138;" horiz-adv-x="320" 
d="M192 0v64h64v-64h-64zM128 64v128h64v-128h-64zM128 256v64h64v-64h-64zM0 0v384h64v-128h64v-64h-64v-192h-64zM192 320v64h64v-64h-64z" />
    <glyph glyph-name="Lacute" unicode="&#x139;" horiz-adv-x="320" 
d="M0 0v512h64v-448h192v-64h-256zM64 576v64h64v-64h-64zM128 640v64h64v-64h-64z" />
    <glyph glyph-name="lacute" unicode="&#x13a;" horiz-adv-x="192" 
d="M0 0v512h64v-512h-64zM0 576v64h64v-64h-64zM64 640v64h64v-64h-64z" />
    <glyph glyph-name="uni013B" unicode="&#x13b;" horiz-adv-x="320" 
d="M0 -128v64h128v-64h-128zM128 -64v64h-128v512h64v-448h192v-64h-64v-64h-64z" />
    <glyph glyph-name="uni013C" unicode="&#x13c;" horiz-adv-x="256" 
d="M0 -128v64h128v-64h-128zM128 -64v64h64v-64h-64zM64 0v576h64v-576h-64z" />
    <glyph glyph-name="Lcaron" unicode="&#x13d;" horiz-adv-x="320" 
d="M128 384v64h64v-64h-64zM0 0v512h64v-448h192v-64h-256zM192 448v128h64v-128h-64z" />
    <glyph glyph-name="lcaron" unicode="&#x13e;" horiz-adv-x="320" 
d="M128 384v64h64v-64h-64zM0 0v576h64v-576h-64zM192 448v128h64v-128h-64z" />
    <glyph glyph-name="Ldot" unicode="&#x13f;" horiz-adv-x="320" 
d="M192 128v128h64v-128h-64zM0 0v512h64v-448h192v-64h-256z" />
    <glyph glyph-name="ldot" unicode="&#x140;" horiz-adv-x="256" 
d="M128 192v128h64v-128h-64zM0 0v576h64v-576h-64z" />
    <glyph glyph-name="Lslash" unicode="&#x141;" 
d="M64 0v192h-64v64h64v256h64v-128h64v-64h-64v-256h192v-64h-256z" />
    <glyph glyph-name="lslash" unicode="&#x142;" horiz-adv-x="256" 
d="M64 0v192h-64v64h64v256h64v-128h64v-64h-64v-320h-64z" />
    <glyph glyph-name="Nacute" unicode="&#x143;" horiz-adv-x="448" 
d="M192 128v128h64v-128h-64zM128 256v128h64v-128h-64zM0 0v512h128v-128h-64v-384h-64zM256 0v128h64v384h64v-512h-128zM192 576v64h64v-64h-64zM256 640v64h64v-64h-64z" />
    <glyph glyph-name="nacute" unicode="&#x144;" 
d="M256 0v320h64v-320h-64zM0 0v384h256v-64h-192v-320h-64zM128 448v64h64v-64h-64zM192 512v64h64v-64h-64z" />
    <glyph glyph-name="uni0145" unicode="&#x145;" horiz-adv-x="448" 
d="M64 -128v64h128v-64h-128zM192 -64v64h64v-64h-64zM192 128v128h64v-128h-64zM128 256v128h64v-128h-64zM0 0v512h128v-128h-64v-384h-64zM256 0v128h64v384h64v-512h-128z" />
    <glyph glyph-name="uni0146" unicode="&#x146;" 
d="M64 -128v64h128v-64h-128zM192 -64v64h64v-64h-64zM256 0v320h64v-320h-64zM0 0v384h256v-64h-192v-320h-64z" />
    <glyph glyph-name="Ncaron" unicode="&#x147;" horiz-adv-x="448" 
d="M192 128v128h64v-128h-64zM128 256v128h64v-128h-64zM0 0v512h128v-128h-64v-384h-64zM256 0v128h64v384h64v-512h-128zM128 576v64h128v-64h-128zM64 640v64h64v-64h-64zM256 640v64h64v-64h-64z" />
    <glyph glyph-name="ncaron" unicode="&#x148;" 
d="M256 0v320h64v-320h-64zM0 0v384h256v-64h-192v-320h-64zM128 448v64h128v-64h-128zM64 512v64h64v-64h-64zM256 512v64h64v-64h-64z" />
    <glyph glyph-name="napostrophe" unicode="&#x149;" horiz-adv-x="512" 
d="M384 0v320h64v-320h-64zM128 0v384h256v-64h-192v-320h-64zM0 384v64h64v-64h-64zM64 448v128h64v-128h-64z" />
    <glyph glyph-name="Eng" unicode="&#x14a;" horiz-adv-x="448" 
d="M192 -128v64h128v-64h-128zM192 128v128h64v-128h-64zM128 256v128h64v-128h-64zM0 0v512h128v-128h-64v-384h-64zM320 -64v64h-64v128h64v384h64v-576h-64z" />
    <glyph glyph-name="eng" unicode="&#x14b;" 
d="M64 -128v64h128v-64h-128zM192 -64v64h64v-64h-64zM256 0v320h64v-320h-64zM0 0v384h256v-64h-192v-320h-64z" />
    <glyph glyph-name="Omacron" unicode="&#x14c;" horiz-adv-x="512" 
d="M128 0v64h192v-64h-192zM64 64v64h64v-64h-64zM320 64v64h64v-64h-64zM0 128v256h64v-256h-64zM384 128v256h64v-256h-64zM64 384v64h64v-64h-64zM320 384v64h64v-64h-64zM128 448v64h192v-64h-192zM128 576v64h256v-64h-256z" />
    <glyph glyph-name="omacron" unicode="&#x14d;" 
d="M64 0v64h192v-64h-192zM0 64v256h64v-256h-64zM256 64v256h64v-256h-64zM64 320v64h192v-64h-192zM64 448v64h256v-64h-256z" />
    <glyph glyph-name="Obreve" unicode="&#x14e;" horiz-adv-x="512" 
d="M128 0v64h192v-64h-192zM64 64v64h64v-64h-64zM320 64v64h64v-64h-64zM0 128v256h64v-256h-64zM384 128v256h64v-256h-64zM64 384v64h64v-64h-64zM320 384v64h64v-64h-64zM128 448v64h192v-64h-192zM192 576v64h128v-64h-128zM128 640v64h64v-64h-64zM320 640v64h64v-64
h-64z" />
    <glyph glyph-name="obreve" unicode="&#x14f;" 
d="M64 0v64h192v-64h-192zM0 64v256h64v-256h-64zM256 64v256h64v-256h-64zM64 320v64h192v-64h-192zM128 448v64h128v-64h-128zM64 512v64h64v-64h-64zM256 512v64h64v-64h-64z" />
    <glyph glyph-name="Ohungarumlaut" unicode="&#x150;" horiz-adv-x="512" 
d="M128 0v64h192v-64h-192zM64 64v64h64v-64h-64zM320 64v64h64v-64h-64zM0 128v256h64v-256h-64zM384 128v256h64v-256h-64zM64 384v64h64v-64h-64zM320 384v64h64v-64h-64zM128 448v64h192v-64h-192zM128 576v64h64v-64h-64zM256 576v64h64v-64h-64zM192 640v64h64v-64
h-64zM320 640v64h64v-64h-64z" />
    <glyph glyph-name="ohungarumlaut" unicode="&#x151;" 
d="M64 0v64h192v-64h-192zM0 64v256h64v-256h-64zM256 64v256h64v-256h-64zM64 320v64h192v-64h-192zM64 448v64h64v-64h-64zM192 448v64h64v-64h-64zM128 512v64h64v-64h-64zM256 512v64h64v-64h-64z" />
    <glyph glyph-name="OE" unicode="&#x152;" horiz-adv-x="704" 
d="M64 64v64h64v-64h-64zM0 128v256h64v-256h-64zM64 384v64h64v-64h-64zM128 0v64h192v384h-192v64h512v-64h-256v-128h192v-64h-192v-192h256v-64h-512z" />
    <glyph glyph-name="oe" unicode="&#x153;" horiz-adv-x="640" 
d="M64 0v64h192v-64h-192zM320 0v64h256v-64h-256zM0 64v256h64v-256h-64zM256 64v256h64v-64h192v64h64v-128h-256v-128h-64zM64 320v64h192v-64h-192zM320 320v64h192v-64h-192z" />
    <glyph glyph-name="Racute" unicode="&#x154;" horiz-adv-x="448" 
d="M320 0v64h64v-64h-64zM256 64v64h64v-64h-64zM256 256v192h64v-192h-64zM0 0v512h256v-64h-192v-192h192v-128h-64v64h-128v-192h-64zM128 576v64h64v-64h-64zM192 640v64h64v-64h-64z" />
    <glyph glyph-name="racute" unicode="&#x155;" horiz-adv-x="256" 
d="M0 0v384h64v-64h64v-64h-64v-256h-64zM128 320v64h64v-64h-64zM64 448v64h64v-64h-64zM128 512v64h64v-64h-64z" />
    <glyph glyph-name="uni0156" unicode="&#x156;" horiz-adv-x="448" 
d="M64 -128v64h128v-64h-128zM192 -64v64h64v-64h-64zM320 0v64h64v-64h-64zM256 64v64h64v-64h-64zM256 256v192h64v-192h-64zM0 0v512h256v-64h-192v-192h192v-128h-64v64h-128v-192h-64z" />
    <glyph glyph-name="uni0157" unicode="&#x157;" horiz-adv-x="320" 
d="M0 -128v64h128v-64h-128zM128 -64v64h64v-64h-64zM64 0v384h64v-64h64v-64h-64v-256h-64zM192 320v64h64v-64h-64z" />
    <glyph glyph-name="Rcaron" unicode="&#x158;" horiz-adv-x="448" 
d="M320 0v64h64v-64h-64zM256 64v64h64v-64h-64zM256 256v192h64v-192h-64zM0 0v512h256v-64h-192v-192h192v-128h-64v64h-128v-192h-64z" />
    <glyph glyph-name="rcaron" unicode="&#x159;" horiz-adv-x="320" 
d="M0 0v384h64v-64h64v-64h-64v-256h-64zM128 320v64h64v-64h-64zM64 448v64h128v-64h-128zM0 512v64h64v-64h-64zM192 512v64h64v-64h-64z" />
    <glyph glyph-name="Sacute" unicode="&#x15a;" 
d="M0 0v64h256v-64h-256zM256 64v192h64v-192h-64zM64 256v64h192v-64h-192zM0 320v128h64v-128h-64zM64 448v64h256v-64h-256zM128 576v64h64v-64h-64zM192 640v64h64v-64h-64z" />
    <glyph glyph-name="sacute" unicode="&#x15b;" horiz-adv-x="320" 
d="M0 0v64h192v-64h-192zM192 64v64h-64v64h128v-128h-64zM0 192v128h64v-64h64v-64h-128zM64 320v64h192v-64h-192zM128 448v64h64v-64h-64zM192 512v64h64v-64h-64z" />
    <glyph glyph-name="Scircumflex" unicode="&#x15c;" 
d="M0 0v64h256v-64h-256zM256 64v192h64v-192h-64zM64 256v64h192v-64h-192zM0 320v128h64v-128h-64zM64 448v64h256v-64h-256zM64 576v64h64v-64h-64zM256 576v64h64v-64h-64zM128 640v64h128v-64h-128z" />
    <glyph glyph-name="scircumflex" unicode="&#x15d;" horiz-adv-x="320" 
d="M0 0v64h192v-64h-192zM192 64v64h-64v64h128v-128h-64zM0 192v128h64v-64h64v-64h-128zM64 320v64h192v-64h-192zM0 448v64h64v-64h-64zM192 448v64h64v-64h-64zM64 512v64h128v-64h-128z" />
    <glyph glyph-name="Scedilla" unicode="&#x15e;" 
d="M64 -128v64h128v-64h-128zM192 -64v64h-192v64h256v-128h-64zM256 64v192h64v-192h-64zM64 256v64h192v-64h-192zM0 320v128h64v-128h-64zM64 448v64h256v-64h-256z" />
    <glyph glyph-name="scedilla" unicode="&#x15f;" horiz-adv-x="320" 
d="M0 -128v64h128v64h-128v64h192v-192h-192zM192 64v64h-64v64h128v-128h-64zM0 192v128h64v-64h64v-64h-128zM64 320v64h192v-64h-192z" />
    <glyph glyph-name="Scaron" unicode="&#x160;" 
d="M0 0v64h256v-64h-256zM256 64v192h64v-192h-64zM64 256v64h192v-64h-192zM0 320v128h64v-128h-64zM64 448v64h256v-64h-256zM128 576v64h128v-64h-128zM64 640v64h64v-64h-64zM256 640v64h64v-64h-64z" />
    <glyph glyph-name="scaron" unicode="&#x161;" horiz-adv-x="320" 
d="M0 0v64h192v-64h-192zM192 64v64h-64v64h128v-128h-64zM0 192v128h64v-64h64v-64h-128zM64 320v64h192v-64h-192zM64 448v64h128v-64h-128zM0 512v64h64v-64h-64zM192 512v64h64v-64h-64z" />
    <glyph glyph-name="uni0162" unicode="&#x162;" 
d="M64 -128v64h128v-64h-128zM192 -64v64h64v-64h-64zM128 0v448h-128v64h320v-64h-128v-448h-64z" />
    <glyph glyph-name="uni0163" unicode="&#x163;" horiz-adv-x="256" 
d="M0 -128v64h128v64h-64v64h128v-192h-192zM0 64v448h64v-128h128v-64h-128v-256h-64z" />
    <glyph glyph-name="Tcaron" unicode="&#x164;" 
d="M128 0v448h-128v64h320v-64h-128v-448h-64zM128 576v64h128v-64h-128zM64 640v64h64v-64h-64zM256 640v64h64v-64h-64z" />
    <glyph glyph-name="tcaron" unicode="&#x165;" 
d="M64 0v64h128v-64h-128zM192 384v64h64v-64h-64zM0 64v448h64v-128h128v-64h-128v-256h-64zM256 448v128h64v-128h-64z" />
    <glyph glyph-name="Tbar" unicode="&#x166;" 
d="M128 0v256h-64v64h64v128h-128v64h320v-64h-128v-128h64v-64h-64v-256h-64z" />
    <glyph glyph-name="tbar" unicode="&#x167;" horiz-adv-x="256" 
d="M64 0v64h128v-64h-128zM0 64v448h64v-128h128v-64h-128v-64h128v-64h-128v-128h-64z" />
    <glyph glyph-name="Utilde" unicode="&#x168;" horiz-adv-x="448" 
d="M64 0v64h256v-64h-256zM0 64v448h64v-448h-64zM320 64v448h64v-448h-64zM64 576v128h128v-64h-64v-64h-64zM192 576v64h64v64h64v-128h-128z" />
    <glyph glyph-name="utilde" unicode="&#x169;" 
d="M0 64v320h64v-320h-64zM64 0v64h192v320h64v-384h-256zM64 448v128h128v-64h-64v-64h-64zM192 448v64h64v64h64v-128h-128z" />
    <glyph glyph-name="Umacron" unicode="&#x16a;" horiz-adv-x="448" 
d="M64 0v64h256v-64h-256zM0 64v448h64v-448h-64zM320 64v448h64v-448h-64zM64 576v64h256v-64h-256z" />
    <glyph glyph-name="umacron" unicode="&#x16b;" 
d="M0 64v320h64v-320h-64zM64 0v64h192v320h64v-384h-256zM64 448v64h256v-64h-256z" />
    <glyph glyph-name="Ubreve" unicode="&#x16c;" horiz-adv-x="448" 
d="M64 0v64h256v-64h-256zM0 64v448h64v-448h-64zM320 64v448h64v-448h-64zM128 576v64h128v-64h-128zM64 640v64h64v-64h-64zM256 640v64h64v-64h-64z" />
    <glyph glyph-name="ubreve" unicode="&#x16d;" 
d="M0 64v320h64v-320h-64zM64 0v64h192v320h64v-384h-256zM128 448v64h128v-64h-128zM64 512v64h64v-64h-64zM256 512v64h64v-64h-64z" />
    <glyph glyph-name="Uring" unicode="&#x16e;" horiz-adv-x="448" 
d="M64 0v64h256v-64h-256zM0 64v448h64v-448h-64zM320 64v448h64v-448h-64zM192 512v64h64v-64h-64zM128 576v64h64v-64h-64zM256 576v64h64v-64h-64zM192 640v64h64v-64h-64z" />
    <glyph glyph-name="uring" unicode="&#x16f;" 
d="M0 64v320h64v-320h-64zM64 0v64h192v320h64v-384h-256zM128 384v64h64v-64h-64zM64 448v64h64v-64h-64zM192 448v64h64v-64h-64zM128 512v64h64v-64h-64z" />
    <glyph glyph-name="Uhungarumlaut" unicode="&#x170;" horiz-adv-x="448" 
d="M64 0v64h256v-64h-256zM0 64v448h64v-448h-64zM320 64v448h64v-448h-64zM64 576v64h64v-64h-64zM192 576v64h64v-64h-64zM128 640v64h64v-64h-64zM256 640v64h64v-64h-64z" />
    <glyph glyph-name="uhungarumlaut" unicode="&#x171;" 
d="M0 64v320h64v-320h-64zM64 0v64h192v320h64v-384h-256zM64 448v64h64v-64h-64zM192 448v64h64v-64h-64zM128 512v64h64v-64h-64zM256 512v64h64v-64h-64z" />
    <glyph glyph-name="Uogonek" unicode="&#x172;" horiz-adv-x="448" 
d="M256 -128v64h128v-64h-128zM192 -64v64h-128v64h256v-64h-64v-64h-64zM0 64v448h64v-448h-64zM320 64v448h64v-448h-64z" />
    <glyph glyph-name="uogonek" unicode="&#x173;" horiz-adv-x="448" 
d="M0 64v320h64v-320h-64zM256 -128v128h-192v64h192v320h64v-448h64v-64h-128z" />
    <glyph glyph-name="Wcircumflex" unicode="&#x174;" horiz-adv-x="640" 
d="M128 0v128h64v-128h-64zM384 0v128h64v-128h-64zM64 128v192h64v-192h-64zM192 128v192h64v-192h-64zM320 128v192h64v-192h-64zM448 128v192h64v-192h-64zM0 320v192h64v-192h-64zM256 320v192h64v-192h-64zM512 320v192h64v-192h-64zM192 576v64h64v-64h-64zM384 576
v64h64v-64h-64zM256 640v64h128v-64h-128z" />
    <glyph glyph-name="wcircumflex" unicode="&#x175;" horiz-adv-x="512" 
d="M64 0v128h64v-128h-64zM320 0v128h64v-128h-64zM128 128v128h64v-128h-64zM256 128v128h64v-128h-64zM0 128v256h64v-256h-64zM192 256v128h64v-128h-64zM384 128v256h64v-256h-64zM128 448v64h64v-64h-64zM320 448v64h64v-64h-64zM192 512v64h128v-64h-128z" />
    <glyph glyph-name="Ycircumflex" unicode="&#x176;" 
d="M128 0v256h64v-256h-64zM64 256v128h64v-128h-64zM192 256v128h64v-128h-64zM0 384v128h64v-128h-64zM256 384v128h64v-128h-64zM64 576v64h64v-64h-64zM256 576v64h64v-64h-64zM128 640v64h128v-64h-128z" />
    <glyph glyph-name="ycircumflex" unicode="&#x177;" 
d="M64 -128v128h64v-128h-64zM128 0v128h64v-128h-64zM64 128v128h64v-128h-64zM192 128v128h64v-128h-64zM0 256v128h64v-128h-64zM256 256v128h64v-128h-64zM64 448v64h64v-64h-64zM256 448v64h64v-64h-64zM128 512v64h128v-64h-128z" />
    <glyph glyph-name="Ydieresis" unicode="&#x178;" 
d="M128 0v256h64v-256h-64zM64 256v128h64v-128h-64zM192 256v128h64v-128h-64zM0 384v128h64v-128h-64zM256 384v128h64v-128h-64zM64 576v64h64v-64h-64zM192 576v64h64v-64h-64z" />
    <glyph glyph-name="Zacute" unicode="&#x179;" 
d="M0 0v128h64v-64h256v-64h-320zM64 128v64h64v-64h-64zM128 192v128h64v-128h-64zM192 320v64h64v-64h-64zM256 384v64h-256v64h320v-128h-64zM128 576v64h64v-64h-64zM192 640v64h64v-64h-64z" />
    <glyph glyph-name="zacute" unicode="&#x17a;" horiz-adv-x="320" 
d="M0 0v128h64v-64h192v-64h-256zM64 128v64h64v-64h-64zM128 192v64h64v-64h-64zM192 256v64h-192v64h256v-128h-64zM64 448v64h64v-64h-64zM128 512v64h64v-64h-64z" />
    <glyph glyph-name="Zdotaccent" unicode="&#x17b;" 
d="M0 0v128h64v-64h256v-64h-320zM64 128v64h64v-64h-64zM128 192v128h64v-128h-64zM192 320v64h64v-64h-64zM256 384v64h-256v64h320v-128h-64zM128 576v64h64v-64h-64z" />
    <glyph glyph-name="zdotaccent" unicode="&#x17c;" horiz-adv-x="320" 
d="M0 0v128h64v-64h192v-64h-256zM64 128v64h64v-64h-64zM128 192v64h64v-64h-64zM192 256v64h-192v64h256v-128h-64zM128 448v64h64v-64h-64z" />
    <glyph glyph-name="Zcaron" unicode="&#x17d;" 
d="M0 0v128h64v-64h256v-64h-320zM64 128v64h64v-64h-64zM128 192v128h64v-128h-64zM192 320v64h64v-64h-64zM256 384v64h-256v64h320v-128h-64zM128 576v64h128v-64h-128zM64 640v64h64v-64h-64zM256 640v64h64v-64h-64z" />
    <glyph glyph-name="zcaron" unicode="&#x17e;" horiz-adv-x="320" 
d="M0 0v128h64v-64h192v-64h-256zM64 128v64h64v-64h-64zM128 192v64h64v-64h-64zM192 256v64h-192v64h256v-128h-64zM64 448v64h128v-64h-128zM0 512v64h64v-64h-64zM192 512v64h64v-64h-64z" />
    <glyph glyph-name="longs" unicode="&#x17f;" horiz-adv-x="320" 
d="M64 0v448h64v-448h-64zM128 448v64h128v-64h-128z" />
    <glyph glyph-name="uni0180" unicode="&#x180;" 
d="M256 64v256h64v-256h-64zM0 0v448h-64v64h64v64h64v-64h128v-64h-128v-64h192v-64h-192v-256h192v-64h-256z" />
    <glyph glyph-name="uni0181" unicode="&#x181;" horiz-adv-x="576" 
d="M448 64v192h64v-192h-64zM0 320v128h64v-128h-64zM448 320v128h64v-128h-64zM128 0v448h-64v64h384v-64h-256v-128h256v-64h-256v-192h256v-64h-320z" />
    <glyph glyph-name="uni0182" unicode="&#x182;" horiz-adv-x="448" 
d="M320 64v192h64v-192h-64zM0 0v512h384v-64h-320v-128h256v-64h-256v-192h256v-64h-320z" />
    <glyph glyph-name="uni0183" unicode="&#x183;" 
d="M256 64v256h64v-256h-64zM0 0v576h320v-64h-256v-128h192v-64h-192v-256h192v-64h-256z" />
    <glyph glyph-name="uni0184" unicode="&#x184;" horiz-adv-x="448" 
d="M320 64v192h64v-192h-64zM0 0v384h-64v64h64v64h64v-192h256v-64h-256v-192h256v-64h-320z" />
    <glyph glyph-name="uni0185" unicode="&#x185;" 
d="M256 64v256h64v-256h-64zM0 0v448h-64v64h64v64h64v-192h192v-64h-192v-256h192v-64h-256z" />
    <glyph glyph-name="uni0186" unicode="&#x186;" horiz-adv-x="448" 
d="M0 0v64h256v-64h-256zM256 64v64h64v-64h-64zM320 128v256h64v-256h-64zM256 384v64h64v-64h-64zM0 448v64h256v-64h-256z" />
    <glyph glyph-name="uni0187" unicode="&#x187;" horiz-adv-x="576" 
d="M128 0v64h256v-64h-256zM64 64v64h64v-64h-64zM0 128v256h64v-256h-64zM64 384v64h64v-64h-64zM128 448v64h256v-64h-256zM384 512v64h128v-64h-128z" />
    <glyph glyph-name="uni0188" unicode="&#x188;" 
d="M64 0v64h192v-64h-192zM0 64v256h64v-256h-64zM64 320v64h128v64h64v-128h-192zM256 448v64h64v-64h-64z" />
    <glyph glyph-name="uni0189" unicode="&#x189;" horiz-adv-x="448" 
d="M256 64v64h64v-64h-64zM320 128v256h64v-256h-64zM256 384v64h64v-64h-64zM0 0v256h-64v64h64v192h256v-64h-192v-128h128v-64h-128v-192h192v-64h-256z" />
    <glyph glyph-name="uni018A" unicode="&#x18a;" horiz-adv-x="576" 
d="M384 64v64h64v-64h-64zM448 128v256h64v-256h-64zM0 320v128h64v-128h-64zM384 384v64h64v-64h-64zM128 0v448h-64v64h320v-64h-192v-384h192v-64h-256z" />
    <glyph glyph-name="uni018B" unicode="&#x18b;" horiz-adv-x="448" 
d="M0 64v192h64v-192h-64zM64 0v64h256v192h-256v64h256v128h-320v64h384v-512h-320z" />
    <glyph glyph-name="uni018C" unicode="&#x18c;" 
d="M0 64v256h64v-256h-64zM64 0v64h192v256h-192v64h192v128h-192v64h256v-576h-256z" />
    <glyph glyph-name="uni018D" unicode="&#x18d;" 
d="M0 -128v64h192v64h64v-128h-256zM128 0v64h-64v64h192v-64h-64v-64h-64zM0 128v256h64v-256h-64zM256 128v256h64v-256h-64zM64 384v64h192v-64h-192z" />
    <glyph glyph-name="uni018E" unicode="&#x18e;" horiz-adv-x="448" 
d="M0 0v64h320v128h-256v64h256v192h-320v64h384v-512h-384z" />
    <glyph glyph-name="uni018F" unicode="&#x18f;" horiz-adv-x="512" 
d="M128 0v64h192v-64h-192zM64 64v64h64v-64h-64zM320 64v64h64v-64h-64zM0 128v128h384v128h64v-256h-64v64h-320v-64h-64zM320 384v64h64v-64h-64zM64 384v128h256v-64h-192v-64h-64z" />
    <glyph glyph-name="uni0190" unicode="&#x190;" horiz-adv-x="448" 
d="M64 0v64h256v-64h-256zM320 64v64h64v-64h-64zM0 64v192h64v-192h-64zM64 256v64h192v-64h-192zM0 320v128h64v-128h-64zM320 384v64h64v-64h-64zM64 448v64h256v-64h-256z" />
    <glyph glyph-name="uni0191" unicode="&#x191;" horiz-adv-x="448" 
d="M-128 -128v64h128v-64h-128zM0 -64v576h384v-64h-320v-128h256v-64h-256v-320h-64z" />
    <glyph glyph-name="florin" unicode="&#x192;" 
d="M-64 -64v64h128v-64h-128zM64 0v128h64v-128h-64zM128 128v128h-64v64h64v128h64v-128h64v-64h-64v-128h-64zM192 448v64h128v-64h-128z" />
    <glyph glyph-name="uni0193" unicode="&#x193;" horiz-adv-x="576" 
d="M64 64v64h64v-64h-64zM128 0v64h192v128h-128v64h192v-256h-256zM0 128v256h64v-256h-64zM64 384v64h64v-64h-64zM128 448v64h256v-64h-256zM384 512v64h128v-64h-128z" />
    <glyph glyph-name="uni0194" unicode="&#x194;" horiz-adv-x="576" 
d="M192 -128v64h128v-64h-128zM128 -64v64h64v-64h-64zM320 -64v64h64v-64h-64zM192 0v192h128v-192h-128zM128 192v128h64v-128h-64zM320 192v128h64v-128h-64zM64 320v128h64v-128h-64zM384 320v128h64v-128h-64zM0 448v64h64v-64h-64zM448 448v64h64v-64h-64z" />
    <glyph glyph-name="uni0195" unicode="&#x195;" horiz-adv-x="640" 
d="M320 0v64h192v-64h-192zM256 64v256h64v-256h-64zM512 64v320h64v-320h-64zM0 0v576h64v-192h192v-64h-192v-320h-64z" />
    <glyph glyph-name="uni0196" unicode="&#x196;" horiz-adv-x="128" 
d="M0 0v576h64v-576h-64z" />
    <glyph glyph-name="uni0197" unicode="&#x197;" horiz-adv-x="256" 
d="M0 0v64h64v192h-64v64h64v128h-64v64h192v-64h-64v-128h64v-64h-64v-192h64v-64h-192z" />
    <glyph glyph-name="uni0198" unicode="&#x198;" 
d="M256 0v64h64v-64h-64zM192 64v64h64v-64h-64zM128 128v64h64v-64h-64zM128 320v64h64v-64h-64zM0 0v448h64v-128h64v-128h-64v-192h-64zM192 384v64h64v-64h-64zM64 448v64h64v-64h-64zM256 448v64h64v-64h-64z" />
    <glyph glyph-name="uni0199" unicode="&#x199;" 
d="M256 0v64h64v-64h-64zM192 64v64h64v-64h-64zM128 128v64h64v-64h-64zM128 256v64h64v-64h-64zM192 320v64h64v-64h-64zM0 0v512h64v-256h64v-64h-64v-192h-64zM64 512v64h128v-64h-128z" />
    <glyph glyph-name="uni019A" unicode="&#x19a;" horiz-adv-x="256" 
d="M64 0v256h-64v64h64v256h64v-256h64v-64h-64v-256h-64z" />
    <glyph glyph-name="uni019B" unicode="&#x19b;" horiz-adv-x="448" 
d="M0 0v64h64v-64h-64zM320 0v64h64v-64h-64zM64 64v128h64v-128h-64zM256 64v128h64v-128h-64zM128 192v128h64v64h64v-192h-128zM0 384v64h128v128h128v-64h-64v-128h-192z" />
    <glyph glyph-name="uni019C" unicode="&#x19c;" horiz-adv-x="640" 
d="M64 0v64h128v-64h-128zM320 0v64h128v-64h-128zM0 64v448h64v-448h-64zM192 64v64h64v384h64v-448h-128zM512 0v64h-64v64h64v384h64v-512h-64z" />
    <glyph glyph-name="uni019D" unicode="&#x19d;" horiz-adv-x="448" 
d="M-128 -128v64h128v-64h-128zM192 128v128h64v-128h-64zM128 256v128h64v-128h-64zM0 -64v576h128v-128h-64v-448h-64zM256 0v128h64v384h64v-512h-128z" />
    <glyph glyph-name="uni019E" unicode="&#x19e;" 
d="M256 -128v448h64v-448h-64zM0 0v384h256v-64h-192v-320h-64z" />
    <glyph glyph-name="uni019F" unicode="&#x19f;" horiz-adv-x="512" 
d="M128 0v64h192v-64h-192zM64 64v64h64v-64h-64zM320 64v64h64v-64h-64zM0 128v256h64v-64h320v64h64v-256h-64v128h-320v-128h-64zM64 384v64h64v-64h-64zM320 384v64h64v-64h-64zM128 448v64h192v-64h-192z" />
    <glyph glyph-name="Ohorn" unicode="&#x1a0;" horiz-adv-x="576" 
d="M128 0v64h192v-64h-192zM64 64v64h64v-64h-64zM320 64v64h64v-64h-64zM0 128v256h64v-256h-64zM64 384v64h64v-64h-64zM384 128v256h-64v64h128v-320h-64zM128 448v64h192v-64h-192zM448 448v64h64v-64h-64z" />
    <glyph glyph-name="ohorn" unicode="&#x1a1;" horiz-adv-x="448" 
d="M64 0v64h192v-64h-192zM0 64v256h64v-256h-64zM256 64v256h-192v64h256v-320h-64zM320 384v64h64v-64h-64z" />
    <glyph glyph-name="uni01A2" unicode="&#x1a2;" horiz-adv-x="640" 
d="M128 0v64h192v-64h-192zM64 64v64h64v-64h-64zM0 128v256h64v-256h-64zM64 384v64h64v-64h-64zM128 448v64h192v-64h-192zM384 -128v64h64v448h-64v-320h-64v384h128v64h64v-576h64v-64h-192z" />
    <glyph glyph-name="uni01A3" unicode="&#x1a3;" horiz-adv-x="512" 
d="M64 0v64h192v-64h-192zM0 64v256h64v-256h-64zM384 -128v448h-64v-256h-64v256h-192v64h384v-512h-64z" />
    <glyph glyph-name="uni01A4" unicode="&#x1a4;" horiz-adv-x="512" 
d="M0 320v128h64v-128h-64zM384 256v192h64v-192h-64zM128 0v448h-64v64h320v-64h-192v-192h192v-64h-192v-192h-64z" />
    <glyph glyph-name="uni01A5" unicode="&#x1a5;" 
d="M256 64v256h64v-256h-64zM0 -128v640h64v-128h192v-64h-192v-256h192v-64h-192v-128h-64zM64 512v64h128v-64h-128z" />
    <glyph glyph-name="uni01A6" unicode="&#x1a6;" horiz-adv-x="512" 
d="M384 -64v64h64v-64h-64zM320 0v64h64v-64h-64zM256 64v64h64v-64h-64zM256 256v192h64v-192h-64zM0 0v576h64v-64h192v-64h-192v-192h192v-128h-64v64h-128v-192h-64z" />
    <glyph glyph-name="uni01A7" unicode="&#x1a7;" 
d="M64 0v64h256v-64h-256zM0 64v192h64v-192h-64zM64 256v64h192v-64h-192zM256 320v128h64v-128h-64zM0 448v64h256v-64h-256z" />
    <glyph glyph-name="uni01A8" unicode="&#x1a8;" horiz-adv-x="320" 
d="M64 0v64h192v-64h-192zM0 64v128h64v-128h-64zM64 192v64h128v-64h-128zM192 256v64h64v-64h-64zM0 320v64h192v-64h-192z" />
    <glyph glyph-name="uni01A9" unicode="&#x1a9;" horiz-adv-x="448" 
d="M0 0v128h64v-64h320v-64h-384zM64 128v64h64v-64h-64zM128 192v128h64v-128h-64zM64 320v64h64v-64h-64zM0 384v128h384v-64h-320v-64h-64z" />
    <glyph glyph-name="uni01AA" unicode="&#x1aa;" horiz-adv-x="448" 
d="M256 -128v64h128v-64h-128zM0 384v128h64v-128h-64zM192 -64v384h-128v64h128v128h64v-576h-64zM64 512v64h128v-64h-128z" />
    <glyph glyph-name="uni01AB" unicode="&#x1ab;" horiz-adv-x="256" 
d="M0 -128v64h128v-64h-128zM128 -64v64h-64v64h128v-128h-64zM0 64v448h64v-128h128v-64h-128v-256h-64z" />
    <glyph glyph-name="uni01AC" unicode="&#x1ac;" 
d="M-64 320v128h64v-128h-64zM128 0v448h-128v64h320v-64h-128v-448h-64z" />
    <glyph glyph-name="uni01AD" unicode="&#x1ad;" horiz-adv-x="256" 
d="M64 0v64h128v-64h-128zM0 64v448h64v-128h128v-64h-128v-256h-64zM64 512v64h128v-64h-128z" />
    <glyph glyph-name="uni01AE" unicode="&#x1ae;" 
d="M192 -128v64h128v-64h-128zM128 -64v512h-128v64h320v-64h-128v-512h-64z" />
    <glyph glyph-name="Uhorn" unicode="&#x1af;" horiz-adv-x="576" 
d="M64 0v64h256v-64h-256zM0 64v448h64v-448h-64zM320 64v448h128v-64h-64v-384h-64zM448 512v64h64v-64h-64z" />
    <glyph glyph-name="uhorn" unicode="&#x1b0;" horiz-adv-x="512" 
d="M0 64v320h64v-320h-64zM64 0v64h192v320h128v-64h-64v-320h-256zM384 384v64h64v-64h-64z" />
    <glyph glyph-name="uni01B1" unicode="&#x1b1;" horiz-adv-x="512" 
d="M128 0v64h192v-64h-192zM64 64v64h64v-64h-64zM320 64v64h64v-64h-64zM0 128v192h64v-192h-64zM384 128v192h64v-192h-64zM64 320v64h64v-64h-64zM320 320v64h64v-64h-64zM128 384v64h-128v64h192v-128h-64zM256 384v128h192v-64h-128v-64h-64z" />
    <glyph glyph-name="uni01B2" unicode="&#x1b2;" horiz-adv-x="448" 
d="M64 0v64h192v-64h-192zM256 64v64h64v-64h-64zM320 128v320h64v-320h-64zM0 64v448h64v-448h-64zM192 448v64h128v-64h-128z" />
    <glyph glyph-name="uni01B3" unicode="&#x1b3;" horiz-adv-x="576" 
d="M320 0v256h64v-256h-64zM256 256v64h64v-64h-64zM384 256v128h64v-128h-64zM0 320v128h64v-128h-64zM192 320v128h64v-128h-64zM64 448v64h128v-64h-128zM448 384v128h64v-128h-64z" />
    <glyph glyph-name="uni01B4" unicode="&#x1b4;" horiz-adv-x="512" 
d="M64 -128v128h64v-128h-64zM128 0v128h64v-128h-64zM64 128v128h64v-128h-64zM192 128v128h64v-128h-64zM0 256v128h64v-128h-64zM256 256v128h64v-128h-64zM320 384v128h128v-64h-64v-64h-64z" />
    <glyph glyph-name="uni01B5" unicode="&#x1b5;" horiz-adv-x="448" 
d="M0 0v128h64v-64h320v-64h-384zM64 128v64h64v-64h-64zM128 192v64h-64v64h192v64h64v-128h-128v-64h-64zM320 384v64h-320v64h384v-128h-64z" />
    <glyph glyph-name="uni01B6" unicode="&#x1b6;" horiz-adv-x="320" 
d="M0 0v128h64v-64h192v-64h-256zM64 128v64h-64v64h192v64h-192v64h256v-192h-128v-64h-64z" />
    <glyph glyph-name="uni01B7" unicode="&#x1b7;" 
d="M64 -128v64h192v-64h-192zM0 -64v64h64v-64h-64zM256 -64v256h64v-256h-64zM128 192v128h64v-64h64v-64h-128zM192 320v64h64v-64h-64zM256 384v64h-256v64h320v-128h-64z" />
    <glyph glyph-name="uni01B8" unicode="&#x1b8;" 
d="M64 -128v64h256v-64h-256zM0 -64v192h64v-192h-64zM64 128v64h64v64h64v-128h-128zM64 256v128h64v-128h-64zM0 384v64h-64v64h384v-64h-256v-64h-64z" />
    <glyph glyph-name="uni01B9" unicode="&#x1b9;" 
d="M128 -128v64h192v-64h-192zM64 -64v64h64v-64h-64zM0 0v192h64v-192h-64zM64 192v64h64v-64h-64zM128 256v128h64v-64h64v-64h-128zM64 384v64h-64v64h320v-64h-192v-64h-64z" />
    <glyph glyph-name="uni01BA" unicode="&#x1ba;" 
d="M64 -128v64h256v-64h-256zM0 -64v192h192v-64h-128v-128h-64zM192 128v128h-64v128h64v-64h64v-192h-64zM192 384v64h-192v64h320v-64h-64v-64h-64z" />
    <glyph glyph-name="uni01BB" unicode="&#x1bb;" 
d="M0 0v128h64v-64h256v-64h-320zM64 128v64h-64v64h192v64h64v-64h64v-64h-192v-64h-64zM0 384v64h64v-64h-64zM256 320v128h64v-128h-64zM64 448v64h192v-64h-192z" />
    <glyph glyph-name="uni01BC" unicode="&#x1bc;" 
d="M64 0v64h192v-64h-192zM0 64v64h64v-64h-64zM256 64v192h64v-192h-64zM0 256v256h320v-64h-256v-128h192v-64h-256z" />
    <glyph glyph-name="uni01BD" unicode="&#x1bd;" horiz-adv-x="320" 
d="M0 0v64h192v-64h-192zM192 64v128h64v-128h-64zM0 192v192h256v-64h-192v-64h128v-64h-192z" />
    <glyph glyph-name="uni01BE" unicode="&#x1be;" 
d="M64 0v64h192v-64h-192zM256 64v128h64v-128h-64zM128 192v64h128v-64h-128zM64 256v64h-64v64h64v128h64v-128h128v-64h-128v-64h-64z" />
    <glyph glyph-name="uni01BF" unicode="&#x1bf;" 
d="M128 0v64h64v-64h-64zM192 64v64h64v-64h-64zM256 128v192h64v-192h-64zM0 -128v512h256v-64h-192v-320h64v-64h-64v-64h-64z" />
    <glyph glyph-name="uni01C0" unicode="&#x1c0;" horiz-adv-x="128" 
d="M0 -128v768h64v-768h-64z" />
    <glyph glyph-name="uni01C1" unicode="&#x1c1;" horiz-adv-x="256" 
d="M0 -128v768h64v-768h-64zM128 -128v768h64v-768h-64z" />
    <glyph glyph-name="uni01C2" unicode="&#x1c2;" horiz-adv-x="512" 
d="M192 -128v320h-192v64h192v128h-192v64h192v192h64v-192h192v-64h-192v-128h192v-64h-192v-320h-64z" />
    <glyph glyph-name="uni01C3" unicode="&#x1c3;" horiz-adv-x="128" 
d="M0 0v128h64v-128h-64zM0 192v384h64v-384h-64z" />
    <glyph glyph-name="uni01C4" unicode="&#x1c4;" horiz-adv-x="832" 
d="M256 64v64h64v-64h-64zM448 0v128h64v-64h256v-64h-320zM512 128v64h64v-64h-64zM576 192v128h64v-128h-64zM320 128v256h64v-256h-64zM640 320v64h64v-64h-64zM256 384v64h64v-64h-64zM0 0v512h256v-64h-192v-384h192v-64h-256zM704 384v64h-256v64h320v-128h-64z
M576 576v64h128v-64h-128zM512 640v64h64v-64h-64zM704 640v64h64v-64h-64z" />
    <glyph glyph-name="uni01C5" unicode="&#x1c5;" horiz-adv-x="768" 
d="M256 64v64h64v-64h-64zM448 0v128h64v-64h192v-64h-256zM512 128v64h64v-64h-64zM576 192v64h64v-64h-64zM320 128v256h64v-256h-64zM640 256v64h-192v64h256v-128h-64zM256 384v64h64v-64h-64zM0 0v512h256v-64h-192v-384h192v-64h-256zM512 448v64h128v-64h-128z
M448 512v64h64v-64h-64zM640 512v64h64v-64h-64z" />
    <glyph glyph-name="uni01C6" unicode="&#x1c6;" horiz-adv-x="704" 
d="M384 0v128h64v-64h192v-64h-256zM448 128v64h64v-64h-64zM512 192v64h64v-64h-64zM0 64v256h64v-256h-64zM576 256v64h-192v64h256v-128h-64zM448 448v64h128v-64h-128zM64 0v64h192v256h-192v64h192v192h64v-576h-256zM384 512v64h64v-64h-64zM576 512v64h64v-64h-64z
" />
    <glyph glyph-name="uni01C7" unicode="&#x1c7;" horiz-adv-x="640" 
d="M0 0v512h64v-448h448v-64h-512zM512 64v384h-128v64h192v-448h-64z" />
    <glyph glyph-name="uni01C8" unicode="&#x1c8;" horiz-adv-x="576" 
d="M384 -128v64h64v-64h-64zM448 -64v384h-64v64h128v-448h-64zM0 0v512h64v-448h256v-64h-320zM448 448v64h64v-64h-64z" />
    <glyph glyph-name="uni01C9" unicode="&#x1c9;" horiz-adv-x="320" 
d="M128 -128v64h64v-64h-64zM192 -64v384h-64v64h128v-448h-64zM192 448v64h64v-64h-64zM0 0v576h64v-576h-64z" />
    <glyph glyph-name="uni01CA" unicode="&#x1ca;" horiz-adv-x="768" 
d="M448 0v64h192v-64h-192zM192 128v128h64v-128h-64zM128 256v128h64v-128h-64zM0 0v512h128v-128h-64v-384h-64zM256 0v128h64v384h64v-512h-128zM640 64v384h-128v64h192v-448h-64z" />
    <glyph glyph-name="uni01CB" unicode="&#x1cb;" horiz-adv-x="640" 
d="M448 -128v64h64v-64h-64zM192 128v128h64v-128h-64zM128 256v128h64v-128h-64zM512 -64v384h-64v64h128v-448h-64zM0 0v512h128v-128h-64v-384h-64zM256 0v128h64v384h64v-512h-128zM512 448v64h64v-64h-64z" />
    <glyph glyph-name="uni01CC" unicode="&#x1cc;" horiz-adv-x="576" 
d="M384 -128v64h64v-64h-64zM256 0v320h64v-320h-64zM0 0v384h256v-64h-192v-320h-64zM448 -64v384h-64v64h128v-448h-64zM448 448v64h64v-64h-64z" />
    <glyph glyph-name="uni01CD" unicode="&#x1cd;" horiz-adv-x="448" 
d="M0 0v192h64v192h64v-192h128v192h64v-192h64v-192h-64v128h-256v-128h-64zM128 384v128h128v-128h-128zM128 576v64h128v-64h-128zM64 640v64h64v-64h-64zM256 640v64h64v-64h-64z" />
    <glyph glyph-name="uni01CE" unicode="&#x1ce;" 
d="M0 64v128h64v-128h-64zM64 0v64h192v128h-192v64h192v64h64v-320h-256zM64 320v64h192v-64h-192zM128 448v64h128v-64h-128zM64 512v64h64v-64h-64zM256 512v64h64v-64h-64z" />
    <glyph glyph-name="uni01CF" unicode="&#x1cf;" horiz-adv-x="320" 
d="M0 0v64h64v384h-64v64h192v-64h-64v-384h64v-64h-192zM64 576v64h128v-64h-128zM0 640v64h64v-64h-64zM192 640v64h64v-64h-64z" />
    <glyph glyph-name="uni01D0" unicode="&#x1d0;" horiz-adv-x="256" 
d="M0 0v384h64v-384h-64zM0 448v64h128v-64h-128zM-64 512v64h64v-64h-64zM128 512v64h64v-64h-64z" />
    <glyph glyph-name="uni01D1" unicode="&#x1d1;" horiz-adv-x="512" 
d="M128 0v64h192v-64h-192zM64 64v64h64v-64h-64zM320 64v64h64v-64h-64zM0 128v256h64v-256h-64zM384 128v256h64v-256h-64zM64 384v64h64v-64h-64zM320 384v64h64v-64h-64zM128 448v64h192v-64h-192zM192 576v64h128v-64h-128zM128 640v64h64v-64h-64zM320 640v64h64v-64
h-64z" />
    <glyph glyph-name="uni01D2" unicode="&#x1d2;" 
d="M64 0v64h192v-64h-192zM0 64v256h64v-256h-64zM256 64v256h64v-256h-64zM64 320v64h192v-64h-192zM128 448v64h128v-64h-128zM64 512v64h64v-64h-64zM256 512v64h64v-64h-64z" />
    <glyph glyph-name="uni01D3" unicode="&#x1d3;" horiz-adv-x="448" 
d="M64 0v64h256v-64h-256zM0 64v448h64v-448h-64zM320 64v448h64v-448h-64zM128 576v64h128v-64h-128zM64 640v64h64v-64h-64zM256 640v64h64v-64h-64z" />
    <glyph glyph-name="uni01D4" unicode="&#x1d4;" 
d="M0 64v320h64v-320h-64zM64 0v64h192v320h64v-384h-256zM128 448v64h128v-64h-128zM64 512v64h64v-64h-64zM256 512v64h64v-64h-64z" />
    <glyph glyph-name="uni01D5" unicode="&#x1d5;" horiz-adv-x="448" 
d="M64 0v64h256v-64h-256zM0 64v448h64v-448h-64zM320 64v448h64v-448h-64zM128 512v64h64v-64h-64zM256 512v64h64v-64h-64zM64 640v64h256v-64h-256z" />
    <glyph glyph-name="uni01D6" unicode="&#x1d6;" 
d="M0 64v320h64v-320h-64zM64 0v64h192v320h64v-384h-256zM64 448v64h64v-64h-64zM192 448v64h64v-64h-64zM64 576v64h256v-64h-256z" />
    <glyph glyph-name="uni01D7" unicode="&#x1d7;" horiz-adv-x="448" 
d="M64 0v64h256v-64h-256zM0 64v448h64v-448h-64zM320 64v448h64v-448h-64zM128 512v64h64v-64h-64zM256 512v64h64v-64h-64zM192 576v64h64v-64h-64zM256 640v64h64v-64h-64z" />
    <glyph glyph-name="uni01D8" unicode="&#x1d8;" 
d="M0 64v320h64v-320h-64zM64 0v64h192v320h64v-384h-256zM64 448v64h64v-64h-64zM192 448v64h64v-64h-64zM128 576v64h64v-64h-64zM192 640v64h64v-64h-64z" />
    <glyph glyph-name="uni01D9" unicode="&#x1d9;" horiz-adv-x="448" 
d="M64 0v64h256v-64h-256zM0 64v448h64v-448h-64zM320 64v448h64v-448h-64zM128 512v64h64v-64h-64zM256 512v64h64v-64h-64zM192 576v64h64v-64h-64zM128 640v64h64v-64h-64zM256 640v64h64v-64h-64z" />
    <glyph glyph-name="uni01DA" unicode="&#x1da;" 
d="M0 64v320h64v-320h-64zM64 0v64h192v320h64v-384h-256zM64 448v64h64v-64h-64zM192 448v64h64v-64h-64zM128 576v64h128v-64h-128zM64 640v64h64v-64h-64zM256 640v64h64v-64h-64z" />
    <glyph glyph-name="uni01DB" unicode="&#x1db;" horiz-adv-x="448" 
d="M64 0v64h256v-64h-256zM0 64v448h64v-448h-64zM320 64v448h64v-448h-64zM128 512v64h64v-64h-64zM256 512v64h64v-64h-64zM192 576v64h64v-64h-64zM128 640v64h64v-64h-64z" />
    <glyph glyph-name="uni01DC" unicode="&#x1dc;" 
d="M0 64v320h64v-320h-64zM64 0v64h192v320h64v-384h-256zM64 448v64h64v-64h-64zM192 448v64h64v-64h-64zM128 576v64h64v-64h-64zM64 640v64h64v-64h-64z" />
    <glyph glyph-name="uni01DD" unicode="&#x1dd;" 
d="M64 0v64h192v-64h-192zM0 256v64h64v-64h-64zM0 64v128h256v128h64v-256h-64v64h-192v-64h-64zM64 320v64h192v-64h-192z" />
    <glyph glyph-name="uni01DE" unicode="&#x1de;" horiz-adv-x="448" 
d="M0 0v192h64v192h64v-192h128v192h64v-192h64v-192h-64v128h-256v-128h-64zM128 384v128h128v-128h-128zM64 512v64h64v-64h-64zM256 512v64h64v-64h-64zM64 640v64h256v-64h-256z" />
    <glyph glyph-name="uni01DF" unicode="&#x1df;" 
d="M0 64v128h64v-128h-64zM64 0v64h192v128h-192v64h192v64h64v-320h-256zM64 320v64h192v-64h-192zM64 448v64h64v-64h-64zM256 448v64h64v-64h-64zM64 576v64h256v-64h-256z" />
    <glyph glyph-name="uni01E0" unicode="&#x1e0;" horiz-adv-x="448" 
d="M0 0v192h64v192h64v-192h128v192h64v-192h64v-192h-64v128h-256v-128h-64zM128 384v128h64v64h64v-192h-128zM64 640v64h256v-64h-256z" />
    <glyph glyph-name="uni01E1" unicode="&#x1e1;" 
d="M0 64v128h64v-128h-64zM64 0v64h192v128h-192v64h192v64h64v-320h-256zM64 320v64h192v-64h-192zM128 448v64h64v-64h-64zM64 576v64h256v-64h-256z" />
    <glyph glyph-name="uni01E2" unicode="&#x1e2;" horiz-adv-x="640" 
d="M0 0v192h64v-192h-64zM256 0v192h-192v192h64v-128h128v192h-64v-64h-64v128h448v-64h-256v-128h192v-64h-192v-192h256v-64h-320zM256 576v64h256v-64h-256z" />
    <glyph glyph-name="uni01E3" unicode="&#x1e3;" horiz-adv-x="640" 
d="M64 0v64h192v-64h-192zM384 0v64h128v-64h-128zM512 64v64h64v-64h-64zM0 64v128h64v-128h-64zM256 64v128h-192v64h192v64h64v-64h192v64h64v-128h-256v-64h64v-64h-128zM64 320v64h192v-64h-192zM320 320v64h192v-64h-192zM192 448v64h256v-64h-256z" />
    <glyph glyph-name="uni01E4" unicode="&#x1e4;" horiz-adv-x="512" 
d="M64 64v64h64v-64h-64zM128 0v64h192v64h-128v64h128v64h-128v64h192v-128h64v-64h-64v-128h-256zM0 128v256h64v-256h-64zM64 384v64h64v-64h-64zM128 448v64h256v-64h-256z" />
    <glyph glyph-name="uni01E5" unicode="&#x1e5;" 
d="M64 -128v64h192v-64h-192zM0 192v128h64v-128h-64zM256 -64v64h-256v64h256v64h-192v64h192v128h-192v64h256v-448h-64z" />
    <glyph glyph-name="Gcaron" unicode="&#x1e6;" horiz-adv-x="448" 
d="M64 64v64h64v-64h-64zM128 0v64h192v128h-128v64h192v-256h-256zM0 128v256h64v-256h-64zM64 384v64h64v-64h-64zM128 448v64h256v-64h-256zM192 576v64h128v-64h-128zM128 640v64h64v-64h-64zM320 640v64h64v-64h-64z" />
    <glyph glyph-name="gcaron" unicode="&#x1e7;" 
d="M64 -128v64h192v-64h-192zM0 64v256h64v-256h-64zM256 -64v64h-192v64h192v256h-192v64h256v-448h-64zM128 448v64h128v-64h-128zM64 512v64h64v-64h-64zM256 512v64h64v-64h-64z" />
    <glyph glyph-name="uni01E8" unicode="&#x1e8;" 
d="M256 0v64h64v-64h-64zM192 64v64h64v-64h-64zM128 128v64h64v-64h-64zM128 320v64h64v-64h-64zM192 384v64h64v-64h-64zM0 0v512h64v-192h64v-128h-64v-192h-64zM256 448v64h64v-64h-64zM64 576v64h128v-64h-128zM0 640v64h64v-64h-64zM192 640v64h64v-64h-64z" />
    <glyph glyph-name="uni01E9" unicode="&#x1e9;" 
d="M256 0v64h64v-64h-64zM192 64v64h64v-64h-64zM128 128v64h64v-64h-64zM128 256v64h64v-64h-64zM192 320v64h64v-64h-64zM0 0v576h64v-320h64v-64h-64v-192h-64zM128 576v64h128v-64h-128zM64 640v64h64v-64h-64zM256 640v64h64v-64h-64z" />
    <glyph glyph-name="uni01EA" unicode="&#x1ea;" horiz-adv-x="512" 
d="M256 -128v64h128v-64h-128zM192 -64v64h-64v64h192v-64h-64v-64h-64zM64 64v64h64v-64h-64zM320 64v64h64v-64h-64zM0 128v256h64v-256h-64zM384 128v256h64v-256h-64zM64 384v64h64v-64h-64zM320 384v64h64v-64h-64zM128 448v64h192v-64h-192z" />
    <glyph glyph-name="uni01EB" unicode="&#x1eb;" 
d="M192 -128v64h128v-64h-128zM128 -64v64h-64v64h192v-64h-64v-64h-64zM0 64v256h64v-256h-64zM256 64v256h64v-256h-64zM64 320v64h192v-64h-192z" />
    <glyph glyph-name="uni01EC" unicode="&#x1ec;" horiz-adv-x="512" 
d="M192 -128v128h-64v64h192v-64h-64v-64h64v-64h-128zM64 64v64h64v-64h-64zM320 64v64h64v-64h-64zM0 128v256h64v-256h-64zM384 128v256h64v-256h-64zM64 384v64h64v-64h-64zM320 384v64h64v-64h-64zM128 448v64h192v-64h-192z" />
    <glyph glyph-name="uni01ED" unicode="&#x1ed;" 
d="M128 -128v128h-64v64h192v-64h-64v-64h64v-64h-128zM0 64v256h64v-256h-64zM256 64v256h64v-256h-64zM64 320v64h192v-64h-192z" />
    <glyph glyph-name="uni01EE" unicode="&#x1ee;" 
d="M64 -128v64h192v-64h-192zM0 -64v64h64v-64h-64zM256 -64v256h64v-256h-64zM128 192v128h64v-64h64v-64h-128zM192 320v64h64v-64h-64zM256 384v64h-256v64h320v-128h-64zM128 576v64h128v-64h-128zM64 640v64h64v-64h-64zM256 640v64h64v-64h-64z" />
    <glyph glyph-name="uni01EF" unicode="&#x1ef;" horiz-adv-x="320" 
d="M0 -128v64h192v-64h-192zM192 -64v192h64v-192h-64zM64 128v64h64v64h64v-128h-128zM192 256v64h-192v64h256v-128h-64zM64 448v64h128v-64h-128zM0 512v64h64v-64h-64zM192 512v64h64v-64h-64z" />
    <glyph glyph-name="uni01F0" unicode="&#x1f0;" horiz-adv-x="256" 
d="M0 -128v64h64v-64h-64zM64 -64v384h-64v64h128v-448h-64zM0 448v64h128v-64h-128zM-64 512v64h64v-64h-64zM128 512v64h64v-64h-64z" />
    <glyph glyph-name="uni01F1" unicode="&#x1f1;" horiz-adv-x="832" 
d="M256 64v64h64v-64h-64zM448 0v128h64v-64h256v-64h-320zM512 128v64h64v-64h-64zM576 192v128h64v-128h-64zM320 128v256h64v-256h-64zM640 320v64h64v-64h-64zM256 384v64h64v-64h-64zM0 0v512h256v-64h-192v-384h192v-64h-256zM704 384v64h-256v64h320v-128h-64z" />
    <glyph glyph-name="uni01F2" unicode="&#x1f2;" horiz-adv-x="768" 
d="M256 64v64h64v-64h-64zM448 0v128h64v-64h192v-64h-256zM512 128v64h64v-64h-64zM576 192v64h64v-64h-64zM320 128v256h64v-256h-64zM640 256v64h-192v64h256v-128h-64zM256 384v64h64v-64h-64zM0 0v512h256v-64h-192v-384h192v-64h-256z" />
    <glyph glyph-name="uni01F3" unicode="&#x1f3;" horiz-adv-x="704" 
d="M384 0v128h64v-64h192v-64h-256zM448 128v64h64v-64h-64zM512 192v64h64v-64h-64zM0 64v256h64v-256h-64zM576 256v64h-192v64h256v-128h-64zM64 0v64h192v256h-192v64h192v192h64v-576h-256z" />
    <glyph glyph-name="uni01F4" unicode="&#x1f4;" horiz-adv-x="448" 
d="M64 64v64h64v-64h-64zM128 0v64h192v128h-128v64h192v-256h-256zM0 128v256h64v-256h-64zM64 384v64h64v-64h-64zM128 448v64h256v-64h-256zM192 576v64h64v-64h-64zM256 640v64h64v-64h-64z" />
    <glyph glyph-name="uni01F5" unicode="&#x1f5;" 
d="M64 -128v64h192v-64h-192zM0 64v256h64v-256h-64zM256 -64v64h-192v64h192v256h-192v64h256v-448h-64zM128 448v64h64v-64h-64zM192 512v64h64v-64h-64z" />
    <glyph glyph-name="uni01F6" unicode="&#x1f6;" horiz-adv-x="704" 
d="M384 0v64h192v-64h-192zM576 64v320h64v-320h-64zM0 0v512h64v-192h256v192h64v-448h-64v192h-256v-256h-64z" />
    <glyph glyph-name="uni01F7" unicode="&#x1f7;" 
d="M128 64v64h64v-64h-64zM192 128v64h64v-64h-64zM256 192v256h64v-256h-64zM0 -128v640h64v-64h64v-64h-64v-320h64v-64h-64v-128h-64zM128 448v64h128v-64h-128z" />
    <glyph glyph-name="uni01F8" unicode="&#x1f8;" horiz-adv-x="448" 
d="M192 128v128h64v-128h-64zM128 256v128h64v-128h-64zM0 0v512h128v-128h-64v-384h-64zM256 0v128h64v384h64v-512h-128zM192 576v64h64v-64h-64zM128 640v64h64v-64h-64z" />
    <glyph glyph-name="uni01F9" unicode="&#x1f9;" 
d="M256 0v320h64v-320h-64zM0 0v384h256v-64h-192v-320h-64zM128 448v64h64v-64h-64zM64 512v64h64v-64h-64z" />
    <glyph glyph-name="Aringacute" unicode="&#x1fa;" horiz-adv-x="448" 
d="M0 0v192h64v192h64v-192h128v192h64v-192h64v-192h-64v128h-256v-128h-64zM128 384v128h128v-128h-128zM64 512v128h64v64h64v-64h128v-128h-64v64h-128v-64h-64z" />
    <glyph glyph-name="aringacute" unicode="&#x1fb;" 
d="M0 64v128h64v-128h-64zM64 0v64h192v128h-192v64h192v64h64v-320h-256zM64 320v64h64v64h64v-64h64v-64h-192zM256 384v64h64v-64h-64zM192 448v64h64v-64h-64zM128 512v64h64v-64h-64z" />
    <glyph glyph-name="AEacute" unicode="&#x1fc;" horiz-adv-x="640" 
d="M0 0v192h64v-192h-64zM256 0v192h-192v192h64v-128h128v192h-64v-64h-64v128h448v-64h-256v-128h192v-64h-192v-192h256v-64h-320zM320 576v64h64v-64h-64zM384 640v64h64v-64h-64z" />
    <glyph glyph-name="aeacute" unicode="&#x1fd;" horiz-adv-x="640" 
d="M64 0v64h192v-64h-192zM384 0v64h128v-64h-128zM512 64v64h64v-64h-64zM0 64v128h64v-128h-64zM256 64v128h-192v64h192v64h64v-64h192v64h64v-128h-256v-64h64v-64h-128zM64 320v64h192v-64h-192zM320 320v64h192v-64h-192zM256 448v64h64v-64h-64zM320 512v64h64v-64
h-64z" />
    <glyph glyph-name="Oslashacute" unicode="&#x1fe;" horiz-adv-x="512" 
d="M0 0v64h64v-64h-64zM128 0v64h192v-64h-192zM64 64v64h64v-64h-64zM320 64v64h64v-64h-64zM128 128v64h64v-64h-64zM192 192v128h64v-128h-64zM0 128v256h64v-256h-64zM256 320v64h64v-64h-64zM384 128v256h64v-256h-64zM64 384v64h64v-64h-64zM320 384v64h64v-64h-64z
M128 448v64h192v-64h-192zM384 448v64h64v-64h-64zM128 576v64h64v-64h-64zM192 640v64h64v-64h-64z" />
    <glyph glyph-name="oslashacute" unicode="&#x1ff;" 
d="M0 -64v64h64v-64h-64zM128 128v128h64v-128h-64zM64 0v64h-64v256h64v-192h64v-64h128v-64h-192zM256 64v192h-64v64h-128v64h192v-64h64v-256h-64zM256 384v64h64v-64h-64zM128 448v64h64v-64h-64zM192 512v64h64v-64h-64z" />
    <glyph glyph-name="uni0200" unicode="&#x200;" horiz-adv-x="448" 
d="M0 0v192h64v192h64v-192h128v192h64v-192h64v-192h-64v128h-256v-128h-64zM128 384v128h128v-128h-128zM128 576v64h64v-64h-64zM256 576v64h64v-64h-64zM64 640v64h64v-64h-64zM192 640v64h64v-64h-64z" />
    <glyph glyph-name="uni0201" unicode="&#x201;" 
d="M0 64v128h64v-128h-64zM64 0v64h192v128h-192v64h192v64h64v-320h-256zM64 320v64h192v-64h-192zM128 448v64h64v-64h-64zM256 448v64h64v-64h-64zM64 512v64h64v-64h-64zM192 512v64h64v-64h-64z" />
    <glyph glyph-name="uni0202" unicode="&#x202;" horiz-adv-x="448" 
d="M0 0v192h64v192h64v-192h128v192h64v-192h64v-192h-64v128h-256v-128h-64zM128 384v128h128v-128h-128zM64 576v64h64v-64h-64zM256 576v64h64v-64h-64zM128 640v64h128v-64h-128z" />
    <glyph glyph-name="uni0203" unicode="&#x203;" 
d="M0 64v128h64v-128h-64zM64 0v64h192v128h-192v64h192v64h64v-320h-256zM64 320v64h192v-64h-192zM64 448v64h64v-64h-64zM256 448v64h64v-64h-64zM128 512v64h128v-64h-128z" />
    <glyph glyph-name="uni0204" unicode="&#x204;" 
d="M0 0v512h320v-64h-256v-128h192v-64h-192v-192h256v-64h-320zM128 576v64h64v-64h-64zM256 576v64h64v-64h-64zM64 640v64h64v-64h-64zM192 640v64h64v-64h-64z" />
    <glyph glyph-name="uni0205" unicode="&#x205;" 
d="M64 0v64h192v-64h-192zM256 64v64h64v-64h-64zM0 64v256h64v-64h192v64h64v-128h-256v-128h-64zM64 320v64h192v-64h-192zM128 448v64h64v-64h-64zM256 448v64h64v-64h-64zM64 512v64h64v-64h-64zM192 512v64h64v-64h-64z" />
    <glyph glyph-name="uni0206" unicode="&#x206;" 
d="M0 0v512h320v-64h-256v-128h192v-64h-192v-192h256v-64h-320zM64 576v64h64v-64h-64zM256 576v64h64v-64h-64zM128 640v64h128v-64h-128z" />
    <glyph glyph-name="uni0207" unicode="&#x207;" 
d="M64 0v64h192v-64h-192zM256 64v64h64v-64h-64zM0 64v256h64v-64h192v64h64v-128h-256v-128h-64zM64 320v64h192v-64h-192zM64 448v64h64v-64h-64zM256 448v64h64v-64h-64zM128 512v64h128v-64h-128z" />
    <glyph glyph-name="uni0208" unicode="&#x208;" horiz-adv-x="256" 
d="M0 0v64h64v384h-64v64h192v-64h-64v-384h64v-64h-192zM0 576v64h64v-64h-64zM128 576v64h64v-64h-64zM-64 640v64h64v-64h-64zM64 640v64h64v-64h-64z" />
    <glyph glyph-name="uni0209" unicode="&#x209;" horiz-adv-x="256" 
d="M0 0v384h64v-384h-64zM0 448v64h64v-64h-64zM128 448v64h64v-64h-64zM-64 512v64h64v-64h-64zM64 512v64h64v-64h-64z" />
    <glyph glyph-name="uni020A" unicode="&#x20a;" horiz-adv-x="320" 
d="M0 0v64h64v384h-64v64h192v-64h-64v-384h64v-64h-192zM0 576v64h64v-64h-64zM192 576v64h64v-64h-64zM64 640v64h128v-64h-128z" />
    <glyph glyph-name="uni020B" unicode="&#x20b;" horiz-adv-x="256" 
d="M0 0v384h64v-384h-64zM-64 448v64h64v-64h-64zM128 448v64h64v-64h-64zM0 512v64h128v-64h-128z" />
    <glyph glyph-name="uni020C" unicode="&#x20c;" horiz-adv-x="512" 
d="M128 0v64h192v-64h-192zM64 64v64h64v-64h-64zM320 64v64h64v-64h-64zM0 128v256h64v-256h-64zM384 128v256h64v-256h-64zM64 384v64h64v-64h-64zM320 384v64h64v-64h-64zM128 448v64h192v-64h-192zM128 576v64h64v-64h-64zM256 576v64h64v-64h-64zM64 640v64h64v-64h-64
zM192 640v64h64v-64h-64z" />
    <glyph glyph-name="uni020D" unicode="&#x20d;" 
d="M64 0v64h192v-64h-192zM0 64v256h64v-256h-64zM256 64v256h64v-256h-64zM64 320v64h192v-64h-192zM128 448v64h64v-64h-64zM256 448v64h64v-64h-64zM64 512v64h64v-64h-64zM192 512v64h64v-64h-64z" />
    <glyph glyph-name="uni020E" unicode="&#x20e;" horiz-adv-x="512" 
d="M128 0v64h192v-64h-192zM64 64v64h64v-64h-64zM320 64v64h64v-64h-64zM0 128v256h64v-256h-64zM384 128v256h64v-256h-64zM64 384v64h64v-64h-64zM320 384v64h64v-64h-64zM128 448v64h192v-64h-192zM128 576v64h64v-64h-64zM320 576v64h64v-64h-64zM192 640v64h128v-64
h-128z" />
    <glyph glyph-name="uni020F" unicode="&#x20f;" 
d="M64 0v64h192v-64h-192zM0 64v256h64v-256h-64zM256 64v256h64v-256h-64zM64 320v64h192v-64h-192zM64 448v64h64v-64h-64zM256 448v64h64v-64h-64zM128 512v64h128v-64h-128z" />
    <glyph glyph-name="uni0210" unicode="&#x210;" horiz-adv-x="448" 
d="M320 0v64h64v-64h-64zM256 64v64h64v-64h-64zM256 256v192h64v-192h-64zM0 0v512h256v-64h-192v-192h192v-128h-64v64h-128v-192h-64zM128 576v64h64v-64h-64zM256 576v64h64v-64h-64zM64 640v64h64v-64h-64zM192 640v64h64v-64h-64z" />
    <glyph glyph-name="uni0211" unicode="&#x211;" horiz-adv-x="320" 
d="M0 0v384h64v-64h64v-64h-64v-256h-64zM128 320v64h64v-64h-64zM64 448v64h64v-64h-64zM192 448v64h64v-64h-64zM0 512v64h64v-64h-64zM128 512v64h64v-64h-64z" />
    <glyph glyph-name="uni0212" unicode="&#x212;" horiz-adv-x="448" 
d="M320 0v64h64v-64h-64zM256 64v64h64v-64h-64zM256 256v192h64v-192h-64zM0 0v512h256v-64h-192v-192h192v-128h-64v64h-128v-192h-64zM64 576v64h64v-64h-64zM256 576v64h64v-64h-64zM128 640v64h128v-64h-128z" />
    <glyph glyph-name="uni0213" unicode="&#x213;" horiz-adv-x="320" 
d="M0 0v384h64v-64h64v-64h-64v-256h-64zM128 320v64h64v-64h-64zM0 448v64h64v-64h-64zM192 448v64h64v-64h-64zM64 512v64h128v-64h-128z" />
    <glyph glyph-name="uni0214" unicode="&#x214;" horiz-adv-x="448" 
d="M64 0v64h256v-64h-256zM0 64v448h64v-448h-64zM320 64v448h64v-448h-64zM128 576v64h64v-64h-64zM256 576v64h64v-64h-64zM64 640v64h64v-64h-64zM192 640v64h64v-64h-64z" />
    <glyph glyph-name="uni0215" unicode="&#x215;" 
d="M0 64v320h64v-320h-64zM64 0v64h192v320h64v-384h-256zM128 448v64h64v-64h-64zM256 448v64h64v-64h-64zM64 512v64h64v-64h-64zM192 512v64h64v-64h-64z" />
    <glyph glyph-name="uni0216" unicode="&#x216;" horiz-adv-x="448" 
d="M64 0v64h256v-64h-256zM0 64v448h64v-448h-64zM320 64v448h64v-448h-64zM64 576v64h64v-64h-64zM256 576v64h64v-64h-64zM128 640v64h128v-64h-128z" />
    <glyph glyph-name="uni0217" unicode="&#x217;" 
d="M0 64v320h64v-320h-64zM64 0v64h192v320h64v-384h-256zM64 448v64h64v-64h-64zM256 448v64h64v-64h-64zM128 512v64h128v-64h-128z" />
    <glyph glyph-name="uni0218" unicode="&#x218;" 
d="M128 -128v64h64v-64h-64zM192 -64v64h-192v64h256v-128h-64zM256 64v192h64v-192h-64zM64 256v64h192v-64h-192zM0 320v128h64v-128h-64zM64 448v64h256v-64h-256z" />
    <glyph glyph-name="uni0219" unicode="&#x219;" horiz-adv-x="320" 
d="M64 -128v64h64v-64h-64zM128 -64v64h-128v64h192v-128h-64zM192 64v64h-64v64h128v-128h-64zM0 192v128h64v-64h64v-64h-128zM64 320v64h192v-64h-192z" />
    <glyph glyph-name="uni021A" unicode="&#x21a;" 
d="M64 -128v64h64v-64h-64zM128 -64v512h-128v64h320v-64h-128v-512h-64z" />
    <glyph glyph-name="uni021B" unicode="&#x21b;" horiz-adv-x="256" 
d="M0 -128v64h64v-64h-64zM64 -64v128h128v-64h-64v-64h-64zM0 64v448h64v-128h128v-64h-128v-256h-64z" />
    <glyph glyph-name="uni021C" unicode="&#x21c;" 
d="M0 -128v64h192v-64h-192zM192 -64v64h64v-64h-64zM0 128v64h128v-64h-128zM256 0v192h-128v64h64v64h64v-64h64v-256h-64zM0 384v64h64v-64h-64zM256 320v128h64v-128h-64zM64 448v64h192v-64h-192z" />
    <glyph glyph-name="uni021D" unicode="&#x21d;" 
d="M64 -128v64h192v-64h-192zM64 64v64h64v-64h-64zM0 256v64h64v-64h-64zM256 -64v192h-128v64h128v128h64v-384h-64zM64 320v64h192v-64h-192z" />
    <glyph glyph-name="uni021E" unicode="&#x21e;" horiz-adv-x="448" 
d="M0 0v512h64v-192h256v192h64v-512h-64v256h-256v-256h-64zM192 576v64h64v-64h-64zM128 640v64h64v-64h-64zM256 640v64h64v-64h-64z" />
    <glyph glyph-name="uni021F" unicode="&#x21f;" 
d="M256 0v320h64v-320h-64zM0 0v576h64v-192h192v-64h-192v-320h-64zM128 576v64h128v-64h-128zM64 640v64h64v-64h-64zM256 640v64h64v-64h-64z" />
    <glyph glyph-name="uni0220" unicode="&#x220;" horiz-adv-x="448" 
d="M320 -128v576h64v-576h-64zM0 0v512h64v-64h64v-64h-64v-384h-64zM128 448v64h192v-64h-192z" />
    <glyph glyph-name="uni0221" unicode="&#x221;" horiz-adv-x="576" 
d="M192 -128v64h64v-64h-64zM320 -128v64h128v-64h-128zM448 -64v64h64v-64h-64zM0 64v256h64v-256h-64zM256 -64v64h-192v64h192v256h-192v64h192v192h64v-512h128v-64h-128v-64h-64z" />
    <glyph glyph-name="uni0222" unicode="&#x222;" horiz-adv-x="448" 
d="M64 0v64h256v-64h-256zM0 64v192h64v-192h-64zM320 64v192h64v-192h-64zM64 256v64h256v-64h-256zM0 320v64h64v-64h-64zM64 384v64h64v-64h-64zM320 320v128h64v-128h-64zM192 448v64h128v-64h-128z" />
    <glyph glyph-name="uni0223" unicode="&#x223;" 
d="M64 0v64h192v-64h-192zM0 64v192h64v-192h-64zM256 64v192h64v-192h-64zM64 256v64h192v-64h-192zM0 320v128h64v-128h-64zM256 320v128h64v-128h-64zM64 448v64h64v-64h-64zM192 448v64h64v-64h-64z" />
    <glyph glyph-name="uni0224" unicode="&#x224;" horiz-adv-x="448" 
d="M320 -128v128h64v-128h-64zM0 0v128h64v-64h256v-64h-320zM64 128v64h64v-64h-64zM128 192v128h64v-128h-64zM192 320v64h64v-64h-64zM256 384v64h-256v64h320v-128h-64z" />
    <glyph glyph-name="uni0225" unicode="&#x225;" 
d="M256 -128v128h64v-128h-64zM0 0v128h64v-64h192v-64h-256zM64 128v64h64v-64h-64zM128 192v64h64v-64h-64zM192 256v64h-192v64h256v-128h-64z" />
    <glyph glyph-name="uni0226" unicode="&#x226;" horiz-adv-x="448" 
d="M0 0v192h64v192h64v-192h128v192h64v-192h64v-192h-64v128h-256v-128h-64zM128 384v128h128v-128h-128zM192 576v64h64v-64h-64z" />
    <glyph glyph-name="uni0227" unicode="&#x227;" 
d="M0 64v128h64v-128h-64zM64 0v64h192v128h-192v64h192v64h64v-320h-256zM64 320v64h192v-64h-192zM128 448v64h64v-64h-64z" />
    <glyph glyph-name="uni0228" unicode="&#x228;" 
d="M64 -128v64h64v64h-128v512h320v-64h-256v-128h192v-64h-192v-192h256v-64h-128v-128h-128z" />
    <glyph glyph-name="uni0229" unicode="&#x229;" 
d="M64 -128v64h128v-64h-128zM192 -64v64h-128v64h192v-128h-64zM256 64v64h64v-64h-64zM0 64v256h64v-64h192v64h64v-128h-256v-128h-64zM64 320v64h192v-64h-192z" />
    <glyph glyph-name="uni022A" unicode="&#x22a;" horiz-adv-x="512" 
d="M128 0v64h192v-64h-192zM64 64v64h64v-64h-64zM320 64v64h64v-64h-64zM0 128v256h64v-256h-64zM384 128v256h64v-256h-64zM64 384v64h64v-64h-64zM320 384v64h64v-64h-64zM128 448v128h64v-64h64v64h64v-128h-192zM128 640v64h256v-64h-256z" />
    <glyph glyph-name="uni022B" unicode="&#x22b;" 
d="M64 0v64h192v-64h-192zM0 64v256h64v-256h-64zM256 64v256h64v-256h-64zM64 320v64h192v-64h-192zM64 448v64h64v-64h-64zM192 448v64h64v-64h-64zM64 576v64h192v-64h-192z" />
    <glyph glyph-name="uni022C" unicode="&#x22c;" horiz-adv-x="512" 
d="M128 0v64h192v-64h-192zM64 64v64h64v-64h-64zM320 64v64h64v-64h-64zM0 128v256h64v-256h-64zM384 128v256h64v-256h-64zM64 384v64h64v-64h-64zM320 384v64h64v-64h-64zM128 448v128h64v-64h64v64h64v-128h-192zM192 576v64h-64v64h256v-128h-64v64h-64v-64h-64z" />
    <glyph glyph-name="uni022D" unicode="&#x22d;" 
d="M64 0v64h192v-64h-192zM0 64v256h64v-256h-64zM256 64v256h64v-256h-64zM64 320v64h192v-64h-192zM64 448v64h64v-64h-64zM192 448v64h64v-64h-64zM128 512v64h64v-64h-64zM256 512v64h64v-64h-64zM64 640v64h256v-64h-256z" />
    <glyph glyph-name="uni022E" unicode="&#x22e;" horiz-adv-x="512" 
d="M128 0v64h192v-64h-192zM64 64v64h64v-64h-64zM320 64v64h64v-64h-64zM0 128v256h64v-256h-64zM384 128v256h64v-256h-64zM64 384v64h64v-64h-64zM320 384v64h64v-64h-64zM128 448v64h192v-64h-192zM192 576v64h64v-64h-64z" />
    <glyph glyph-name="uni022F" unicode="&#x22f;" 
d="M64 0v64h192v-64h-192zM0 64v256h64v-256h-64zM256 64v256h64v-256h-64zM64 320v64h192v-64h-192zM128 448v64h64v-64h-64z" />
    <glyph glyph-name="uni0230" unicode="&#x230;" horiz-adv-x="512" 
d="M128 0v64h192v-64h-192zM64 64v64h64v-64h-64zM320 64v64h64v-64h-64zM0 128v256h64v-256h-64zM384 128v256h64v-256h-64zM64 384v64h64v-64h-64zM320 384v64h64v-64h-64zM128 448v64h64v64h64v-64h64v-64h-192zM128 640v64h256v-64h-256z" />
    <glyph glyph-name="uni0231" unicode="&#x231;" 
d="M64 0v64h192v-64h-192zM0 64v256h64v-256h-64zM256 64v256h64v-256h-64zM64 320v64h192v-64h-192zM128 448v64h64v-64h-64zM64 576v64h256v-64h-256z" />
    <glyph glyph-name="uni0232" unicode="&#x232;" 
d="M128 0v256h64v-256h-64zM64 256v128h64v-128h-64zM192 256v128h64v-128h-64zM0 384v128h64v-128h-64zM256 384v128h64v-128h-64zM64 576v64h256v-64h-256z" />
    <glyph glyph-name="uni0233" unicode="&#x233;" 
d="M64 -128v128h64v-128h-64zM128 0v128h64v-128h-64zM64 128v128h64v-128h-64zM192 128v128h64v-128h-64zM0 256v128h64v-128h-64zM256 256v128h64v-128h-64zM64 448v64h256v-64h-256z" />
    <glyph glyph-name="uni0234" unicode="&#x234;" 
d="M0 -64v64h64v-64h-64zM128 -64v64h128v-64h-128zM64 0v64h64v-64h-64zM256 0v64h64v-64h-64zM128 64v64h128v-64h-128zM0 64v512h64v-512h-64z" />
    <glyph glyph-name="uni0235" unicode="&#x235;" horiz-adv-x="576" 
d="M192 -128v64h64v-64h-64zM320 -128v64h128v-64h-128zM256 -64v64h64v-64h-64zM448 -64v64h64v-64h-64zM320 0v64h128v-64h-128zM256 64v256h64v-256h-64zM0 0v384h256v-64h-192v-320h-64z" />
    <glyph glyph-name="uni0236" unicode="&#x236;" 
d="M0 -64v64h64v-64h-64zM128 -64v64h128v-64h-128zM64 0v64h64v-64h-64zM256 0v64h64v-64h-64zM128 64v64h128v-64h-128zM0 64v448h64v-128h128v-64h-128v-256h-64z" />
    <glyph glyph-name="uni0237" unicode="&#x237;" horiz-adv-x="192" 
d="M0 -128v64h64v-64h-64zM64 -64v384h-64v64h128v-448h-64z" />
    <glyph glyph-name="uni0238" unicode="&#x238;" horiz-adv-x="640" 
d="M0 64v256h64v-256h-64zM512 64v256h64v-256h-64zM64 0v64h192v256h-192v64h192v192h64v-192h192v-64h-192v-256h192v-64h-448z" />
    <glyph glyph-name="uni0239" unicode="&#x239;" horiz-adv-x="640" 
d="M0 64v256h64v-256h-64zM512 64v256h64v-256h-64zM256 -128v128h-192v64h192v256h-192v64h448v-64h-192v-256h192v-64h-192v-128h-64z" />
    <glyph glyph-name="uni023A" unicode="&#x23a;" horiz-adv-x="512" 
d="M-64 -64v64h64v-64h-64zM0 0v192h64v192h64v-128h64v-64h64v64h-64v64h64v64h-128v128h128v-64h64v-256h64v-192h-64v128h-192v-64h-64v-64h-64zM320 448v64h64v-64h-64zM384 512v64h64v-64h-64z" />
    <glyph glyph-name="uni023B" unicode="&#x23b;" horiz-adv-x="512" 
d="M0 -64v64h64v-64h-64zM64 0v128h64v-64h256v-64h-320zM128 128v64h64v-64h-64zM192 192v128h64v-128h-64zM0 128v256h64v-256h-64zM256 320v64h64v-64h-64zM64 384v64h64v-64h-64zM320 384v64h-192v64h256v-128h-64zM384 512v64h64v-64h-64z" />
    <glyph glyph-name="uni023C" unicode="&#x23c;" 
d="M0 -64v64h64v-64h-64zM128 128v128h64v-128h-64zM64 0v64h-64v256h64v-192h64v-64h128v-64h-192zM192 256v64h-128v64h192v-128h-64zM256 384v64h64v-64h-64z" />
    <glyph glyph-name="uni023D" unicode="&#x23d;" horiz-adv-x="320" 
d="M0 0v256h-64v64h64v192h64v-192h128v-64h-128v-192h192v-64h-256z" />
    <glyph glyph-name="uni023E" unicode="&#x23e;" horiz-adv-x="448" 
d="M0 -64v64h64v-64h-64zM64 0v128h64v320h-128v64h320v-128h-64v64h-64v-64h64v-128h-64v-256h-128zM320 512v64h64v-64h-64z" />
    <glyph glyph-name="uni023F" unicode="&#x23f;" 
d="M192 -128v64h128v-64h-128zM128 -64v64h-128v64h192v-128h-64zM192 64v128h64v-128h-64zM64 192v64h128v-64h-128zM0 256v64h64v-64h-64zM64 320v64h192v-64h-192z" />
    <glyph glyph-name="uni0240" unicode="&#x240;" 
d="M192 -128v64h128v-64h-128zM128 -64v64h64v-64h-64zM0 0v128h64v-64h64v-64h-128zM64 128v64h64v-64h-64zM128 192v64h64v-64h-64zM192 256v64h-192v64h256v-128h-64z" />
    <glyph glyph-name="uni0241" unicode="&#x241;" 
d="M128 0v256h128v-64h-64v-192h-64zM0 384v64h64v-64h-64zM256 256v192h64v-192h-64zM64 448v64h192v-64h-192z" />
    <glyph glyph-name="uni0242" unicode="&#x242;" 
d="M0 64v64h128v128h128v-64h-64v-64h128v-64h-320zM0 320v64h64v-64h-64zM256 256v128h64v-128h-64zM64 384v64h192v-64h-192z" />
    <glyph glyph-name="uni0243" unicode="&#x243;" 
d="M256 64v192h64v-192h-64zM256 320v128h64v-128h-64zM0 0v128h-64v64h64v320h256v-64h-192v-128h192v-64h-192v-64h128v-64h-128v-64h192v-64h-256z" />
    <glyph glyph-name="uni0244" unicode="&#x244;" horiz-adv-x="512" 
d="M64 0v64h256v-64h-256zM0 64v192h-64v64h64v192h64v-192h256v192h64v-192h64v-64h-64v-192h-64v192h-256v-192h-64z" />
    <glyph glyph-name="uni0245" unicode="&#x245;" horiz-adv-x="448" 
d="M0 0v192h64v-192h-64zM320 0v192h64v-192h-64zM64 192v192h64v-192h-64zM256 192v192h64v-192h-64zM128 384v128h128v-128h-128z" />
    <glyph glyph-name="uni0246" unicode="&#x246;" 
d="M128 64v192h-64v-192h64zM192 320v128h-128v-128h128zM64 -64v64h-64v512h256v128h64v-192h-64v-192h-64v-192h128v-64h-192v-64h-64z" />
    <glyph glyph-name="uni0247" unicode="&#x247;" 
d="M0 -128v128h64v-128h-64zM256 64v64h64v-64h-64zM64 0v64h-64v256h64v-64h128v64h-128v64h192v-64h64v-128h-128v-64h-64v64h-64v-64h64v-64h128v-64h-192zM256 384v128h64v-128h-64z" />
    <glyph glyph-name="uni0248" unicode="&#x248;" 
d="M0 0v64h192v-64h-192zM192 64v192h-64v64h64v128h-128v64h192v-192h64v-64h-64v-192h-64z" />
    <glyph glyph-name="uni0249" unicode="&#x249;" horiz-adv-x="256" 
d="M0 -128v64h64v-64h-64zM64 -64v192h-64v64h64v128h-64v64h128v-192h64v-64h-64v-192h-64zM64 448v64h64v-64h-64z" />
    <glyph glyph-name="uni024A" unicode="&#x24a;" horiz-adv-x="640" 
d="M448 -128v64h128v-64h-128zM128 0v64h192v-64h-192zM64 64v64h64v-64h-64zM0 128v256h64v-256h-64zM64 384v64h64v-64h-64zM128 448v64h192v-64h-192zM384 -64v128h-64v64h64v256h-64v64h64v64h64v-576h-64z" />
    <glyph glyph-name="uni024B" unicode="&#x24b;" horiz-adv-x="512" 
d="M320 -128v64h128v-64h-128zM0 64v256h64v-256h-64zM256 -64v64h-192v64h192v256h-192v64h256v-448h-64z" />
    <glyph glyph-name="uni024C" unicode="&#x24c;" horiz-adv-x="448" 
d="M320 0v64h64v-64h-64zM256 64v64h64v-64h-64zM256 256v192h64v-192h-64zM0 0v192h-64v64h64v256h256v-64h-192v-192h192v-128h-64v64h-128v-192h-64z" />
    <glyph glyph-name="uni024D" unicode="&#x24d;" horiz-adv-x="256" 
d="M0 0v64h-64v64h64v256h64v-64h64v-64h-64v-128h64v-64h-64v-64h-64zM128 320v64h64v-64h-64z" />
    <glyph glyph-name="uni024E" unicode="&#x24e;" 
d="M128 0v256h-128v64h64v64h64v-64h64v64h64v-64h64v-64h-128v-256h-64zM0 384v128h64v-128h-64zM256 384v128h64v-128h-64z" />
    <glyph glyph-name="uni024F" unicode="&#x24f;" 
d="M64 -128v128h64v-128h-64zM128 0v128h-128v64h64v64h64v-64h64v64h64v-64h64v-64h-128v-128h-64zM0 256v128h64v-128h-64zM256 256v128h64v-128h-64z" />
    <glyph glyph-name="uni0250" unicode="&#x250;" 
d="M64 0v64h192v-64h-192zM256 192v128h64v-128h-64zM0 64v320h256v-64h-192v-128h192v-64h-192v-64h-64z" />
    <glyph glyph-name="uni0251" unicode="&#x251;" 
d="M0 64v256h64v-256h-64zM64 0v64h192v256h-192v64h256v-384h-256z" />
    <glyph glyph-name="uni0252" unicode="&#x252;" 
d="M256 64v256h64v-256h-64zM0 0v384h256v-64h-192v-256h192v-64h-256z" />
    <glyph glyph-name="uni0253" unicode="&#x253;" 
d="M256 64v256h64v-256h-64zM0 0v512h64v-128h192v-64h-192v-256h192v-64h-256zM64 512v64h128v-64h-128z" />
    <glyph glyph-name="uni0254" unicode="&#x254;" horiz-adv-x="320" 
d="M0 0v64h192v-64h-192zM192 64v256h64v-256h-64zM0 320v64h192v-64h-192z" />
    <glyph glyph-name="uni0255" unicode="&#x255;" horiz-adv-x="320" 
d="M-64 0v64h64v-64h-64zM64 0v64h128v-64h-128zM192 64v64h64v-64h-64zM0 64v256h64v-128h128v-64h-128v-64h-64zM64 320v64h192v-64h-192z" />
    <glyph glyph-name="uni0256" unicode="&#x256;" horiz-adv-x="512" 
d="M320 -128v64h128v-64h-128zM0 64v256h64v-256h-64zM256 -64v64h-192v64h192v256h-192v64h192v192h64v-640h-64z" />
    <glyph glyph-name="uni0257" unicode="&#x257;" horiz-adv-x="448" 
d="M0 64v256h64v-256h-64zM64 0v64h192v256h-192v64h192v128h64v-512h-256zM320 512v64h128v-64h-128z" />
    <glyph glyph-name="uni0258" unicode="&#x258;" 
d="M64 0v64h192v-64h-192zM0 64v64h64v-64h-64zM256 64v128h-256v128h64v-64h192v64h64v-256h-64zM64 320v64h192v-64h-192z" />
    <glyph glyph-name="uni0259" unicode="&#x259;" 
d="M64 0v64h192v-64h-192zM0 64v128h256v128h64v-256h-64v64h-192v-64h-64zM0 256v128h256v-64h-192v-64h-64z" />
    <glyph glyph-name="uni025A" unicode="&#x25a;" horiz-adv-x="576" 
d="M64 0v64h192v-64h-192zM384 64v64h128v-64h-128zM0 64v128h256v128h64v-64h64v-128h-64v-64h-64v64h-192v-64h-64zM0 256v128h256v-64h-192v-64h-64z" />
    <glyph glyph-name="uni025B" unicode="&#x25b;" 
d="M64 0v64h192v-64h-192zM256 64v64h64v-64h-64zM0 64v128h64v-128h-64zM64 192v64h128v-64h-128zM0 256v64h64v-64h-64zM256 256v64h64v-64h-64zM64 320v64h192v-64h-192z" />
    <glyph glyph-name="uni025C" unicode="&#x25c;" 
d="M64 0v64h192v-64h-192zM0 64v64h64v-64h-64zM256 64v128h64v-128h-64zM128 192v64h128v-64h-128zM0 256v64h64v-64h-64zM256 256v64h64v-64h-64zM64 320v64h192v-64h-192z" />
    <glyph glyph-name="uni025D" unicode="&#x25d;" horiz-adv-x="576" 
d="M64 0v64h192v-64h-192zM0 64v64h64v-64h-64zM256 64v128h64v-128h-64zM384 128v64h128v-64h-128zM128 192v64h128v-64h-128zM0 256v64h64v-64h-64zM320 192v64h-64v64h128v-128h-64zM64 320v64h192v-64h-192z" />
    <glyph glyph-name="uni025E" unicode="&#x25e;" 
d="M64 0v64h192v-64h-192zM256 64v128h64v-128h-64zM128 192v64h128v-64h-128zM0 64v256h64v-256h-64zM256 256v64h64v-64h-64zM64 320v64h192v-64h-192z" />
    <glyph glyph-name="uni025F" unicode="&#x25f;" horiz-adv-x="256" 
d="M0 -128v64h64v-64h-64zM64 -64v192h-128v64h128v128h-64v64h128v-192h64v-64h-64v-192h-64z" />
    <glyph glyph-name="uni0260" unicode="&#x260;" horiz-adv-x="512" 
d="M64 -128v64h192v-64h-192zM0 64v256h64v-256h-64zM256 -64v64h-192v64h192v256h-192v64h192v128h64v-576h-64zM320 512v64h128v-64h-128z" />
    <glyph glyph-name="uni0261" unicode="&#x261;" 
d="M64 -128v64h192v-64h-192zM0 64v256h64v-256h-64zM256 -64v64h-192v64h192v256h-192v64h256v-448h-64z" />
    <glyph glyph-name="uni0262" unicode="&#x262;" 
d="M64 0v64h192v64h-64v64h128v-192h-256zM0 64v256h64v-256h-64zM256 256v64h64v-64h-64zM64 320v64h192v-64h-192z" />
    <glyph glyph-name="uni0263" unicode="&#x263;" horiz-adv-x="448" 
d="M128 -128v64h128v-64h-128zM64 -64v64h64v-64h-64zM256 -64v64h64v-64h-64zM128 0v128h128v-128h-128zM64 128v128h64v-128h-64zM256 128v128h64v-128h-64zM0 256v128h64v-128h-64zM320 256v128h64v-128h-64z" />
    <glyph glyph-name="uni0264" unicode="&#x264;" horiz-adv-x="512" 
d="M-64 256v64h64v-64h-64zM128 0v320h128v-320h-128zM384 256v64h64v-64h-64zM0 320v64h128v-64h-128zM256 320v64h128v-64h-128z" />
    <glyph glyph-name="uni0265" unicode="&#x265;" 
d="M0 64v320h64v-320h-64zM256 -128v128h-192v64h192v320h64v-512h-64z" />
    <glyph glyph-name="uni0266" unicode="&#x266;" 
d="M256 0v320h64v-320h-64zM0 0v512h64v-128h192v-64h-192v-320h-64zM64 512v64h128v-64h-128z" />
    <glyph glyph-name="uni0267" unicode="&#x267;" 
d="M128 -128v64h128v-64h-128zM256 -64v384h64v-384h-64zM0 0v512h64v-128h192v-64h-192v-320h-64zM64 512v64h128v-64h-128z" />
    <glyph glyph-name="uni0268" unicode="&#x268;" horiz-adv-x="256" 
d="M64 0v192h-64v64h64v128h64v-128h64v-64h-64v-192h-64zM64 448v64h64v-64h-64z" />
    <glyph glyph-name="uni0269" unicode="&#x269;" horiz-adv-x="128" 
d="M0 0v384h64v-384h-64z" />
    <glyph glyph-name="uni026A" unicode="&#x26a;" horiz-adv-x="256" 
d="M0 0v64h64v256h-64v64h192v-64h-64v-256h64v-64h-192z" />
    <glyph glyph-name="uni026B" unicode="&#x26b;" horiz-adv-x="320" 
d="M-64 256v64h64v-64h-64zM192 320v64h64v-64h-64zM64 0v320h-64v64h64v192h64v-256h64v-64h-64v-256h-64z" />
    <glyph glyph-name="uni026C" unicode="&#x26c;" horiz-adv-x="256" 
d="M64 0v192h-64v64h64v320h64v-320h64v-64h-64v-192h-64z" />
    <glyph glyph-name="uni026D" unicode="&#x26d;" horiz-adv-x="256" 
d="M64 -128v64h128v-64h-128zM0 -64v640h64v-640h-64z" />
    <glyph glyph-name="uni026E" unicode="&#x26e;" 
d="M64 -128v64h192v-64h-192zM256 -64v256h64v-256h-64zM192 192v64h64v-64h-64zM0 0v576h64v-192h256v-128h-64v64h-192v-320h-64z" />
    <glyph glyph-name="uni026F" unicode="&#x26f;" horiz-adv-x="512" 
d="M64 0v64h128v-64h-128zM0 64v320h64v-320h-64zM192 64v320h64v-320h-64zM256 0v64h128v320h64v-384h-192z" />
    <glyph glyph-name="uni0270" unicode="&#x270;" horiz-adv-x="512" 
d="M64 0v64h128v-64h-128zM0 64v320h64v-320h-64zM192 64v320h64v-320h-64zM384 -128v128h-128v64h128v320h64v-512h-64z" />
    <glyph glyph-name="uni0271" unicode="&#x271;" horiz-adv-x="512" 
d="M256 -128v64h128v-64h-128zM192 0v320h64v-320h-64zM384 -64v384h64v-384h-64zM0 0v384h192v-64h-128v-320h-64zM256 320v64h128v-64h-128z" />
    <glyph glyph-name="uni0272" unicode="&#x272;" 
d="M-128 -128v64h128v-64h-128zM256 0v320h64v-320h-64zM0 -64v448h256v-64h-192v-384h-64z" />
    <glyph glyph-name="uni0273" unicode="&#x273;" horiz-adv-x="512" 
d="M320 -128v64h128v-64h-128zM256 -64v384h64v-384h-64zM0 0v384h256v-64h-192v-320h-64z" />
    <glyph glyph-name="uni0274" unicode="&#x274;" 
d="M128 128v128h64v-128h-64zM0 0v384h64v-64h64v-64h-64v-256h-64zM256 0v64h-64v64h64v256h64v-384h-64z" />
    <glyph glyph-name="uni0275" unicode="&#x275;" 
d="M64 0v64h192v-64h-192zM0 64v256h64v-64h192v64h64v-256h-64v128h-192v-128h-64zM64 320v64h192v-64h-192z" />
    <glyph glyph-name="uni0276" unicode="&#x276;" horiz-adv-x="576" 
d="M0 64v256h64v-256h-64zM64 0v64h192v256h-192v64h448v-64h-192v-64h128v-64h-128v-128h192v-64h-448z" />
    <glyph glyph-name="uni0277" unicode="&#x277;" horiz-adv-x="512" 
d="M64 0v64h128v-64h-128zM256 0v64h128v-64h-128zM192 64v192h64v-192h-64zM0 64v256h64v-256h-64zM384 64v256h64v-256h-64zM64 320v64h320v-64h-320z" />
    <glyph glyph-name="uni0278" unicode="&#x278;" 
d="M0 64v256h64v-256h-64zM256 64v256h64v-256h-64zM128 -128v128h-64v64h64v256h-64v64h64v192h64v-192h64v-64h-64v-256h64v-64h-64v-128h-64z" />
    <glyph glyph-name="uni0279" unicode="&#x279;" horiz-adv-x="256" 
d="M0 0v64h64v-64h-64zM128 0v64h-64v64h64v256h64v-384h-64z" />
    <glyph glyph-name="uni027A" unicode="&#x27a;" horiz-adv-x="256" 
d="M0 0v64h64v-64h-64zM128 0v64h-64v64h64v448h64v-576h-64z" />
    <glyph glyph-name="uni027B" unicode="&#x27b;" 
d="M192 -128v64h128v-64h-128zM0 0v64h64v-64h-64zM128 -64v128h-64v64h64v256h64v-448h-64z" />
    <glyph glyph-name="uni027C" unicode="&#x27c;" horiz-adv-x="256" 
d="M0 -128v512h64v-64h64v-64h-64v-384h-64zM128 320v64h64v-64h-64z" />
    <glyph glyph-name="uni027D" unicode="&#x27d;" horiz-adv-x="256" 
d="M64 -128v64h128v-64h-128zM0 -64v448h64v-64h64v-64h-64v-320h-64zM128 320v64h64v-64h-64z" />
    <glyph glyph-name="uni027E" unicode="&#x27e;" horiz-adv-x="320" 
d="M0 0v320h64v-320h-64zM64 320v64h192v-64h-192z" />
    <glyph glyph-name="uni027F" unicode="&#x27f;" horiz-adv-x="256" 
d="M128 0v320h64v-320h-64zM-64 320v64h192v-64h-192z" />
    <glyph glyph-name="uni0280" unicode="&#x280;" 
d="M256 0v64h64v-64h-64zM256 192v128h64v-128h-64zM0 0v384h256v-64h-192v-128h192v-128h-64v64h-128v-128h-64z" />
    <glyph glyph-name="uni0281" unicode="&#x281;" 
d="M256 64v128h64v-128h-64zM0 0v384h64v-128h128v64h64v-128h-192v-128h192v-64h-256zM256 320v64h64v-64h-64z" />
    <glyph glyph-name="uni0282" unicode="&#x282;" horiz-adv-x="320" 
d="M64 -128v64h128v-64h-128zM0 -64v128h192v-64h-128v-64h-64zM192 64v128h64v-128h-64zM64 192v64h128v-64h-128zM0 256v64h64v-64h-64zM64 320v64h192v-64h-192z" />
    <glyph glyph-name="uni0283" unicode="&#x283;" 
d="M0 -128v64h128v-64h-128zM128 -64v576h64v-576h-64zM192 512v64h128v-64h-128z" />
    <glyph glyph-name="uni0284" unicode="&#x284;" horiz-adv-x="320" 
d="M-64 -128v64h128v-64h-128zM64 -64v192h-128v64h128v320h64v-320h64v-64h-64v-192h-64zM128 512v64h128v-64h-128z" />
    <glyph glyph-name="uni0285" unicode="&#x285;" horiz-adv-x="320" 
d="M128 0v64h128v-64h-128zM64 64v448h64v-448h-64zM-64 512v64h128v-64h-128z" />
    <glyph glyph-name="uni0286" unicode="&#x286;" horiz-adv-x="448" 
d="M0 -128v64h128v-64h-128zM192 -128v64h64v-64h-64zM-64 -64v64h64v-64h-64zM128 -64v64h64v-64h-64zM0 0v64h128v-64h-128zM192 0v512h64v-512h-64zM256 512v64h128v-64h-128z" />
    <glyph glyph-name="uni0287" unicode="&#x287;" horiz-adv-x="256" 
d="M128 0v128h-128v64h128v256h64v-448h-64zM0 448v64h128v-64h-128z" />
    <glyph glyph-name="uni0288" unicode="&#x288;" horiz-adv-x="256" 
d="M64 -128v64h128v-64h-128zM0 -64v576h64v-128h128v-64h-128v-384h-64z" />
    <glyph glyph-name="uni0289" unicode="&#x289;" horiz-adv-x="448" 
d="M64 0v64h192v128h-192v-128h-64v128h-64v64h64v128h64v-128h192v128h64v-128h64v-64h-64v-192h-256z" />
    <glyph glyph-name="uni028A" unicode="&#x28a;" 
d="M64 0v64h192v-64h-192zM0 64v192h64v-192h-64zM256 64v192h64v-192h-64zM64 256v64h-64v64h128v-128h-64zM192 256v128h128v-64h-64v-64h-64z" />
    <glyph glyph-name="uni028B" unicode="&#x28b;" 
d="M64 0v64h128v-64h-128zM192 64v64h64v-64h-64zM256 128v192h64v-192h-64zM0 64v320h64v-320h-64zM192 320v64h64v-64h-64z" />
    <glyph glyph-name="uni028C" unicode="&#x28c;" 
d="M0 0v128h64v-128h-64zM256 0v128h64v-128h-64zM64 128v128h64v-128h-64zM192 128v128h64v-128h-64zM128 256v128h64v-128h-64z" />
    <glyph glyph-name="uni028D" unicode="&#x28d;" horiz-adv-x="512" 
d="M192 0v128h64v-128h-64zM0 0v256h64v-256h-64zM128 128v128h64v-128h-64zM256 128v128h64v-128h-64zM384 0v256h64v-256h-64zM64 256v128h64v-128h-64zM320 256v128h64v-128h-64z" />
    <glyph glyph-name="uni028E" unicode="&#x28e;" 
d="M0 0v128h64v-128h-64zM256 0v128h64v-128h-64zM64 128v128h64v-128h-64zM192 128v128h64v-128h-64zM128 256v128h64v-128h-64zM192 384v128h64v-128h-64z" />
    <glyph glyph-name="uni028F" unicode="&#x28f;" 
d="M128 0v192h64v-192h-64zM64 192v64h64v-64h-64zM192 192v64h64v-64h-64zM0 256v128h64v-128h-64zM256 256v128h64v-128h-64z" />
    <glyph glyph-name="uni0290" unicode="&#x290;" horiz-adv-x="448" 
d="M256 -128v64h128v-64h-128zM192 -64v64h-192v128h64v-64h192v-128h-64zM64 128v64h64v-64h-64zM128 192v64h64v-64h-64zM192 256v64h-192v64h256v-128h-64z" />
    <glyph glyph-name="uni0291" unicode="&#x291;" horiz-adv-x="512" 
d="M64 -64v64h-64v128h64v-64h128v64h64v-64h128v-64h-256v-64h-64zM384 64v64h64v-64h-64zM64 128v64h64v-64h-64zM256 128v64h128v-64h-128zM128 192v64h64v-64h-64zM192 256v64h-192v64h256v-128h-64z" />
    <glyph glyph-name="uni0292" unicode="&#x292;" horiz-adv-x="320" 
d="M0 -128v64h192v-64h-192zM192 -64v192h64v-192h-64zM64 128v64h64v64h64v-128h-128zM192 256v64h-192v64h256v-128h-64z" />
    <glyph glyph-name="uni0293" unicode="&#x293;" 
d="M64 -128v64h128v-64h-128zM0 -64v64h64v-64h-64zM192 -64v64h-128v64h128v64h64v-64h64v-64h-64v-64h-64zM64 128v64h64v64h64v-128h-128zM192 256v64h-192v64h256v-128h-64z" />
    <glyph glyph-name="uni0294" unicode="&#x294;" 
d="M128 0v256h128v-64h-64v-192h-64zM0 448v64h64v-64h-64zM256 256v256h64v-256h-64zM64 512v64h192v-64h-192z" />
    <glyph glyph-name="uni0295" unicode="&#x295;" 
d="M128 0v192h-64v64h128v-256h-64zM0 256v256h64v-256h-64zM256 448v64h64v-64h-64zM64 512v64h192v-64h-192z" />
    <glyph glyph-name="uni0296" unicode="&#x296;" 
d="M64 0v64h192v-64h-192zM0 64v64h64v-64h-64zM256 64v256h64v-256h-64zM128 320v256h64v-192h64v-64h-128z" />
    <glyph glyph-name="uni0297" unicode="&#x297;" horiz-adv-x="320" 
d="M64 -128v64h192v-64h-192zM0 -64v384h64v-384h-64zM64 320v64h192v-64h-192z" />
    <glyph glyph-name="uni0298" unicode="&#x298;" horiz-adv-x="512" 
d="M128 0v64h192v-64h-192zM64 64v64h64v-64h-64zM320 64v64h64v-64h-64zM192 256v64h64v-64h-64zM0 128v256h64v-256h-64zM384 128v256h64v-256h-64zM64 384v64h64v-64h-64zM320 384v64h64v-64h-64zM128 448v64h192v-64h-192z" />
    <glyph glyph-name="uni0299" unicode="&#x299;" 
d="M256 64v128h64v-128h-64zM256 256v64h64v-64h-64zM0 0v384h256v-64h-192v-64h192v-64h-192v-128h192v-64h-256z" />
    <glyph glyph-name="uni029A" unicode="&#x29a;" 
d="M64 0v64h192v-64h-192zM0 64v128h64v-128h-64zM64 192v64h128v-64h-128zM0 256v64h64v-64h-64zM256 64v256h64v-256h-64zM64 320v64h192v-64h-192z" />
    <glyph glyph-name="uni029B" unicode="&#x29b;" horiz-adv-x="512" 
d="M64 0v64h192v64h-64v64h128v-192h-256zM0 64v256h64v-256h-64zM256 256v64h-192v64h192v64h64v-192h-64zM320 448v64h128v-64h-128z" />
    <glyph glyph-name="uni029C" unicode="&#x29c;" 
d="M0 0v384h64v-128h192v128h64v-384h-64v192h-192v-192h-64z" />
    <glyph glyph-name="uni029D" unicode="&#x29d;" horiz-adv-x="320" 
d="M0 -128v64h128v-64h-128zM-64 -64v64h64v-64h-64zM128 -64v64h-128v64h128v256h-64v64h128v-320h64v-64h-64v-64h-64zM128 448v64h64v-64h-64z" />
    <glyph glyph-name="uni029E" unicode="&#x29e;" 
d="M64 0v64h64v-64h-64zM128 64v64h64v-64h-64zM128 192v64h64v-64h-64zM64 256v64h64v-64h-64zM0 320v64h64v-64h-64zM256 -128v256h-64v64h64v192h64v-512h-64z" />
    <glyph glyph-name="uni029F" unicode="&#x29f;" horiz-adv-x="320" 
d="M0 0v384h64v-320h192v-64h-256z" />
    <glyph glyph-name="uni02A0" unicode="&#x2a0;" horiz-adv-x="512" 
d="M0 64v256h64v-256h-64zM256 -128v128h-192v64h192v256h-192v64h192v128h64v-640h-64zM320 512v64h128v-64h-128z" />
    <glyph glyph-name="uni02A1" unicode="&#x2a1;" 
d="M128 0v64h-128v64h128v128h128v-64h-64v-64h128v-64h-128v-64h-64zM0 384v64h64v-64h-64zM256 256v192h64v-192h-64zM64 448v64h192v-64h-192z" />
    <glyph glyph-name="uni02A2" unicode="&#x2a2;" 
d="M128 0v64h-128v64h128v128h128v-64h-64v-64h128v-64h-128v-64h-64zM0 384v64h64v-64h-64zM256 256v192h64v-192h-64zM64 448v64h192v-64h-192z" />
    <glyph glyph-name="uni02A3" unicode="&#x2a3;" horiz-adv-x="640" 
d="M384 128v64h64v-64h-64zM448 192v64h64v-64h-64zM0 64v256h64v-256h-64zM64 0v64h192v256h-192v64h192v192h64v-192h256v-128h-64v64h-192v-192h64v-64h192v-64h-512z" />
    <glyph glyph-name="uni02A4" unicode="&#x2a4;" horiz-adv-x="640" 
d="M320 -128v64h192v-64h-192zM512 -64v192h64v-192h-64zM384 128v64h64v64h64v-128h-128zM0 64v256h64v-256h-64zM64 0v64h192v256h-192v64h192v192h64v-192h256v-128h-64v64h-192v-320h-256z" />
    <glyph glyph-name="uni02A5" unicode="&#x2a5;" horiz-adv-x="832" 
d="M704 64v64h64v-64h-64zM384 128v64h64v-64h-64zM576 128v64h128v-64h-128zM448 192v64h64v-64h-64zM0 64v256h64v-256h-64zM384 -64v64h-320v64h192v256h-192v64h192v192h64v-192h256v-128h-64v64h-192v-192h64v-64h128v64h64v-64h128v-64h-256v-64h-64z" />
    <glyph glyph-name="uni02A6" unicode="&#x2a6;" horiz-adv-x="512" 
d="M64 0v64h320v-64h-320zM384 64v128h64v-128h-64zM256 192v64h128v-64h-128zM0 64v448h64v-128h384v-64h-192v-64h-64v64h-128v-256h-64z" />
    <glyph glyph-name="uni02A7" unicode="&#x2a7;" horiz-adv-x="448" 
d="M64 -128v64h128v-64h-128zM192 -64v64h-128v64h128v256h-128v-256h-64v448h64v-128h128v128h64v-576h-64zM256 512v64h128v-64h-128z" />
    <glyph glyph-name="uni02A8" unicode="&#x2a8;" horiz-adv-x="640" 
d="M64 0v64h192v-64h-192zM512 64v64h64v-64h-64zM384 128v64h128v-64h-128zM320 0v64h-64v256h64v-192h64v-64h128v-64h-192zM512 256v64h64v-64h-64zM320 320v64h192v-64h-192zM0 64v448h64v-128h128v-64h-128v-256h-64z" />
    <glyph glyph-name="uni02A9" unicode="&#x2a9;" horiz-adv-x="512" 
d="M384 0v320h64v-320h-64zM0 0v320h-64v64h64v128h64v-128h320v-64h-192v-320h-64v320h-64v-320h-64zM64 512v64h128v-64h-128z" />
    <glyph glyph-name="uni02AA" unicode="&#x2aa;" horiz-adv-x="448" 
d="M128 0v64h192v-64h-192zM320 64v128h64v-128h-64zM192 192v64h128v-64h-128zM128 256v64h64v-64h-64zM192 320v64h192v-64h-192zM0 0v576h64v-448h64v-64h-64v-64h-64z" />
    <glyph glyph-name="uni02AB" unicode="&#x2ab;" 
d="M128 128v64h64v-64h-64zM192 192v64h64v-64h-64zM0 0v576h64v-192h256v-128h-64v64h-192v-192h64v-64h192v-64h-320z" />
    <glyph glyph-name="uni02AC" unicode="&#x2ac;" horiz-adv-x="448" 
d="M64 0v128h64v-128h-64zM256 0v128h64v-128h-64zM0 128v128h64v-128h-64zM128 128v128h128v-128h-128zM320 128v128h64v-128h-64zM64 320v128h64v-128h-64zM256 320v128h64v-128h-64zM0 448v128h64v-128h-64zM128 448v128h128v-128h-128zM320 448v128h64v-128h-64z" />
    <glyph glyph-name="uni02AD" unicode="&#x2ad;" horiz-adv-x="448" 
d="M0 0v192h384v-192h-64v128h-256v-128h-64zM0 384v192h384v-192h-64v128h-256v-128h-64z" />
    <glyph glyph-name="uni02AE" unicode="&#x2ae;" horiz-adv-x="448" 
d="M64 64v256h64v-256h-64zM-64 320v64h128v-64h-128zM320 -128v128h-192v64h192v320h64v-512h-64z" />
    <glyph glyph-name="uni02AF" unicode="&#x2af;" horiz-adv-x="576" 
d="M384 -128v64h128v-64h-128zM64 64v256h64v-256h-64zM-64 320v64h128v-64h-128zM320 -64v64h-192v64h192v320h64v-448h-64z" />
    <glyph glyph-name="uni02B0" unicode="&#x2b0;" horiz-adv-x="128" 
d="M0 448v64h64v-64h-64z" />
    <glyph glyph-name="circumflex" unicode="&#x2c6;" 
d="M64 448v64h64v-64h-64zM256 448v64h64v-64h-64zM128 512v64h128v-64h-128z" />
    <glyph glyph-name="caron" unicode="&#x2c7;" 
d="M128 448v64h128v-64h-128zM64 512v64h64v-64h-64zM256 512v64h64v-64h-64z" />
    <glyph glyph-name="uni02C9" unicode="&#x2c9;" 
d="M64 448v64h256v-64h-256z" />
    <glyph glyph-name="breve" unicode="&#x2d8;" 
d="M128 448v64h128v-64h-128zM64 512v64h64v-64h-64zM256 512v64h64v-64h-64z" />
    <glyph glyph-name="dotaccent" unicode="&#x2d9;" horiz-adv-x="256" 
d="M128 448v64h64v-64h-64z" />
    <glyph glyph-name="ring" unicode="&#x2da;" horiz-adv-x="448" 
d="M256 384v64h64v-64h-64zM192 448v64h64v-64h-64zM320 448v64h64v-64h-64zM256 512v64h64v-64h-64z" />
    <glyph glyph-name="ogonek" unicode="&#x2db;" horiz-adv-x="320" 
d="M128 -128v128h64v-64h64v-64h-128z" />
    <glyph glyph-name="tilde" unicode="&#x2dc;" horiz-adv-x="448" 
d="M128 448v128h128v-64h-64v-64h-64zM256 448v64h64v64h64v-128h-128z" />
    <glyph glyph-name="hungarumlaut" unicode="&#x2dd;" 
d="M64 448v64h64v-64h-64zM192 448v64h64v-64h-64zM128 512v64h64v-64h-64zM256 512v64h64v-64h-64z" />
    <glyph glyph-name="uni037E" unicode="&#x37e;" horiz-adv-x="192" 
d="M0 -128v64h64v-64h-64zM64 -64v192h64v-192h-64zM64 256v128h64v-128h-64z" />
    <glyph glyph-name="tonos" unicode="&#x384;" horiz-adv-x="320" 
d="M192 448v128h64v-128h-64z" />
    <glyph glyph-name="dieresistonos" unicode="&#x385;" horiz-adv-x="512" 
d="M128 448v64h64v-64h-64zM384 448v64h64v-64h-64zM256 448v128h64v-128h-64z" />
    <glyph glyph-name="Alphatonos" unicode="&#x386;" horiz-adv-x="512" 
d="M64 0v192h64v192h64v-192h128v192h64v-192h64v-192h-64v128h-256v-128h-64zM0 384v128h64v-128h-64zM192 384v128h128v-128h-128z" />
    <glyph glyph-name="anoteleia" unicode="&#x387;" horiz-adv-x="192" 
d="M64 256v128h64v-128h-64z" />
    <glyph glyph-name="Epsilontonos" unicode="&#x388;" horiz-adv-x="512" 
d="M0 384v128h64v-128h-64zM128 0v512h320v-64h-256v-128h192v-64h-192v-192h256v-64h-320z" />
    <glyph glyph-name="Etatonos" unicode="&#x389;" horiz-adv-x="576" 
d="M0 384v128h64v-128h-64zM128 0v512h64v-192h256v192h64v-512h-64v256h-256v-256h-64z" />
    <glyph glyph-name="Iotatonos" unicode="&#x38a;" 
d="M0 384v128h64v-128h-64zM128 0v64h64v384h-64v64h192v-64h-64v-384h64v-64h-192z" />
    <glyph glyph-name="Omicrontonos" unicode="&#x38c;" horiz-adv-x="576" 
d="M192 0v64h192v-64h-192zM128 64v64h64v-64h-64zM384 64v64h64v-64h-64zM64 128v256h64v-256h-64zM448 128v256h64v-256h-64zM128 384v64h64v-64h-64zM384 384v64h64v-64h-64zM0 384v128h64v-128h-64zM192 448v64h192v-64h-192z" />
    <glyph glyph-name="Upsilontonos" unicode="&#x38e;" horiz-adv-x="512" 
d="M256 0v256h64v-256h-64zM192 256v128h64v-128h-64zM320 256v128h64v-128h-64zM0 384v128h64v-128h-64zM128 384v128h64v-128h-64zM384 384v128h64v-128h-64z" />
    <glyph glyph-name="Omegatonos" unicode="&#x38f;" horiz-adv-x="576" 
d="M64 0v64h128v64h64v-128h-192zM320 0v128h64v-64h128v-64h-192zM128 128v64h64v-64h-64zM384 128v64h64v-64h-64zM64 192v192h64v-192h-64zM448 192v192h64v-192h-64zM128 384v64h64v-64h-64zM384 384v64h64v-64h-64zM0 384v128h64v-128h-64zM192 448v64h192v-64h-192z
" />
    <glyph glyph-name="iotadieresistonos" unicode="&#x390;" horiz-adv-x="320" 
d="M64 0v384h64v-384h-64zM-64 448v64h64v-64h-64zM192 448v64h64v-64h-64zM64 448v128h64v-128h-64z" />
    <glyph glyph-name="Alpha" unicode="&#x391;" horiz-adv-x="448" 
d="M0 0v192h64v192h64v-192h128v192h64v-192h64v-192h-64v128h-256v-128h-64zM128 384v128h128v-128h-128z" />
    <glyph glyph-name="Beta" unicode="&#x392;" 
d="M256 64v192h64v-192h-64zM256 320v128h64v-128h-64zM0 0v512h256v-64h-192v-128h192v-64h-192v-192h192v-64h-256z" />
    <glyph glyph-name="Gamma" unicode="&#x393;" 
d="M0 0v512h320v-64h-256v-448h-64z" />
    <glyph glyph-name="uni0394" unicode="&#x394;" horiz-adv-x="448" 
d="M0 0v128h64v-64h256v64h64v-128h-384zM64 128v192h64v-192h-64zM256 128v192h64v-192h-64zM128 320v192h128v-192h-128z" />
    <glyph glyph-name="Epsilon" unicode="&#x395;" 
d="M0 0v512h320v-64h-256v-128h192v-64h-192v-192h256v-64h-320z" />
    <glyph glyph-name="Zeta" unicode="&#x396;" 
d="M0 0v128h64v-64h256v-64h-320zM64 128v64h64v-64h-64zM128 192v128h64v-128h-64zM192 320v64h64v-64h-64zM256 384v64h-256v64h320v-128h-64z" />
    <glyph glyph-name="Eta" unicode="&#x397;" horiz-adv-x="448" 
d="M0 0v512h64v-192h256v192h64v-512h-64v256h-256v-256h-64z" />
    <glyph glyph-name="Theta" unicode="&#x398;" horiz-adv-x="512" 
d="M128 0v64h192v-64h-192zM64 64v64h64v-64h-64zM320 64v64h64v-64h-64zM128 256v64h192v-64h-192zM0 128v256h64v-256h-64zM384 128v256h64v-256h-64zM64 384v64h64v-64h-64zM320 384v64h64v-64h-64zM128 448v64h192v-64h-192z" />
    <glyph glyph-name="Iota" unicode="&#x399;" horiz-adv-x="256" 
d="M0 0v64h64v384h-64v64h192v-64h-64v-384h64v-64h-192z" />
    <glyph glyph-name="Kappa" unicode="&#x39a;" 
d="M256 0v64h64v-64h-64zM192 64v64h64v-64h-64zM128 128v64h64v-64h-64zM128 320v64h64v-64h-64zM192 384v64h64v-64h-64zM0 0v512h64v-192h64v-128h-64v-192h-64zM256 448v64h64v-64h-64z" />
    <glyph glyph-name="Lambda" unicode="&#x39b;" horiz-adv-x="448" 
d="M0 0v192h64v-192h-64zM320 0v192h64v-192h-64zM64 192v192h64v-192h-64zM256 192v192h64v-192h-64zM128 384v128h128v-128h-128z" />
    <glyph glyph-name="Mu" unicode="&#x39c;" horiz-adv-x="512" 
d="M192 128v128h64v-128h-64zM128 256v128h64v-128h-64zM256 256v128h64v-128h-64zM0 0v512h128v-128h-64v-384h-64zM384 0v384h-64v128h128v-512h-64z" />
    <glyph glyph-name="Nu" unicode="&#x39d;" horiz-adv-x="448" 
d="M192 128v128h64v-128h-64zM128 256v128h64v-128h-64zM0 0v512h128v-128h-64v-384h-64zM256 0v128h64v384h64v-512h-128z" />
    <glyph glyph-name="Xi" unicode="&#x39e;" 
d="M0 0v64h320v-64h-320zM0 256v64h320v-64h-320zM0 448v64h320v-64h-320z" />
    <glyph glyph-name="Omicron" unicode="&#x39f;" horiz-adv-x="512" 
d="M128 0v64h192v-64h-192zM64 64v64h64v-64h-64zM320 64v64h64v-64h-64zM0 128v256h64v-256h-64zM384 128v256h64v-256h-64zM64 384v64h64v-64h-64zM320 384v64h64v-64h-64zM128 448v64h192v-64h-192z" />
    <glyph glyph-name="Pi" unicode="&#x3a0;" horiz-adv-x="448" 
d="M0 0v512h384v-512h-64v448h-256v-448h-64z" />
    <glyph glyph-name="Rho" unicode="&#x3a1;" 
d="M256 256v192h64v-192h-64zM0 0v512h256v-64h-192v-192h192v-64h-192v-192h-64z" />
    <glyph glyph-name="Sigma" unicode="&#x3a3;" 
d="M0 0v128h64v-64h256v-64h-320zM64 128v64h64v-64h-64zM128 192v64h64v-64h-64zM192 256v64h64v-64h-64zM128 320v64h64v-64h-64zM64 384v64h-64v64h320v-64h-192v-64h-64z" />
    <glyph glyph-name="Tau" unicode="&#x3a4;" 
d="M128 0v448h-128v64h320v-64h-128v-448h-64z" />
    <glyph glyph-name="Upsilon" unicode="&#x3a5;" 
d="M128 0v256h64v-256h-64zM64 256v128h64v-128h-64zM192 256v128h64v-128h-64zM0 384v128h64v-128h-64zM256 384v128h64v-128h-64z" />
    <glyph glyph-name="Phi" unicode="&#x3a6;" horiz-adv-x="512" 
d="M0 128v256h64v-256h-64zM384 128v256h64v-256h-64zM192 0v64h-128v64h128v256h-128v64h128v64h64v-64h128v-64h-128v-256h128v-64h-128v-64h-64z" />
    <glyph glyph-name="Chi" unicode="&#x3a7;" 
d="M0 0v128h64v-128h-64zM256 0v128h64v-128h-64zM64 128v64h64v-64h-64zM192 128v64h64v-64h-64zM128 192v128h64v-128h-64zM64 320v64h64v-64h-64zM192 320v64h64v-64h-64zM0 384v128h64v-128h-64zM256 384v128h64v-128h-64z" />
    <glyph glyph-name="Psi" unicode="&#x3a8;" horiz-adv-x="512" 
d="M0 192v320h64v-320h-64zM192 0v128h-128v64h128v320h64v-320h128v-64h-128v-128h-64zM384 192v320h64v-320h-64z" />
    <glyph glyph-name="uni03A9" unicode="&#x3a9;" horiz-adv-x="512" 
d="M0 0v64h128v64h64v-128h-192zM256 0v128h64v-64h128v-64h-192zM64 128v64h64v-64h-64zM320 128v64h64v-64h-64zM0 192v192h64v-192h-64zM384 192v192h64v-192h-64zM64 384v64h64v-64h-64zM320 384v64h64v-64h-64zM128 448v64h192v-64h-192z" />
    <glyph glyph-name="Iotadieresis" unicode="&#x3aa;" horiz-adv-x="256" 
d="M0 0v64h64v384h-64v64h192v-64h-64v-384h64v-64h-192zM0 576v64h64v-64h-64zM128 576v64h64v-64h-64z" />
    <glyph glyph-name="Upsilondieresis" unicode="&#x3ab;" 
d="M128 0v256h64v-256h-64zM64 256v128h64v-128h-64zM192 256v128h64v-128h-64zM0 384v128h64v-128h-64zM256 384v128h64v-128h-64zM64 576v64h64v-64h-64zM192 576v64h64v-64h-64z" />
    <glyph glyph-name="alphatonos" unicode="&#x3ac;" 
d="M0 64v256h64v-256h-64zM64 0v64h192v256h-192v64h256v-384h-256zM128 448v128h64v-128h-64z" />
    <glyph glyph-name="epsilontonos" unicode="&#x3ad;" horiz-adv-x="320" 
d="M64 0v64h192v-64h-192zM0 64v128h64v-128h-64zM64 192v64h128v-64h-128zM0 256v64h64v-64h-64zM64 320v64h192v-64h-192zM128 448v128h64v-128h-64z" />
    <glyph glyph-name="etatonos" unicode="&#x3ae;" 
d="M256 -128v448h64v-448h-64zM0 0v384h256v-64h-192v-320h-64zM128 448v128h64v-128h-64z" />
    <glyph glyph-name="iotatonos" unicode="&#x3af;" horiz-adv-x="128" 
d="M0 0v384h64v-384h-64zM0 448v128h64v-128h-64z" />
    <glyph glyph-name="upsilondieresistonos" unicode="&#x3b0;" 
d="M64 0v64h192v-64h-192zM0 64v320h64v-320h-64zM256 64v320h64v-320h-64zM0 448v64h64v-64h-64zM256 448v64h64v-64h-64zM128 448v128h64v-128h-64z" />
    <glyph glyph-name="alpha" unicode="&#x3b1;" 
d="M0 64v256h64v-256h-64zM64 0v64h192v256h-192v64h256v-384h-256z" />
    <glyph glyph-name="beta" unicode="&#x3b2;" 
d="M256 64v192h64v-192h-64zM128 256v64h128v-64h-128zM0 -128v640h64v-448h192v-64h-192v-128h-64zM256 320v192h64v-192h-64zM64 512v64h192v-64h-192z" />
    <glyph glyph-name="gamma" unicode="&#x3b3;" 
d="M128 -128v256h64v-256h-64zM64 128v128h64v-128h-64zM192 128v128h64v-128h-64zM0 256v128h64v-128h-64zM256 256v128h64v-128h-64z" />
    <glyph glyph-name="delta" unicode="&#x3b4;" 
d="M64 0v64h192v-64h-192zM0 64v256h64v-256h-64zM256 64v256h64v-256h-64zM64 320v64h64v-64h-64zM192 320v64h64v-64h-64zM128 384v64h64v-64h-64zM64 448v128h192v-64h-128v-64h-64z" />
    <glyph glyph-name="epsilon" unicode="&#x3b5;" horiz-adv-x="320" 
d="M64 0v64h192v-64h-192zM0 64v128h64v-128h-64zM64 192v64h128v-64h-128zM0 256v64h64v-64h-64zM64 320v64h192v-64h-192z" />
    <glyph glyph-name="zeta" unicode="&#x3b6;" horiz-adv-x="320" 
d="M128 -128v64h64v-64h-64zM192 -64v64h-128v64h192v-128h-64zM0 64v256h64v-256h-64zM64 320v128h64v-128h-64zM128 448v64h-128v64h256v-64h-64v-64h-64z" />
    <glyph glyph-name="eta" unicode="&#x3b7;" 
d="M256 -128v448h64v-448h-64zM0 0v384h256v-64h-192v-320h-64z" />
    <glyph glyph-name="theta" unicode="&#x3b8;" 
d="M64 0v64h192v-64h-192zM0 64v448h64v-192h192v192h64v-448h-64v192h-192v-192h-64zM64 512v64h192v-64h-192z" />
    <glyph glyph-name="iota" unicode="&#x3b9;" horiz-adv-x="128" 
d="M0 0v384h64v-384h-64z" />
    <glyph glyph-name="kappa" unicode="&#x3ba;" 
d="M256 0v64h64v-64h-64zM192 64v64h64v-64h-64zM128 128v64h64v-64h-64zM128 256v64h64v-64h-64zM0 0v384h64v-128h64v-64h-64v-192h-64zM192 320v64h128v-64h-128z" />
    <glyph glyph-name="lambda" unicode="&#x3bb;" 
d="M0 0v128h64v-128h-64zM256 0v128h64v-128h-64zM64 128v128h64v-128h-64zM192 128v128h64v-128h-64zM128 256v128h64v-128h-64zM64 384v128h64v-128h-64zM0 512v64h64v-64h-64z" />
    <glyph glyph-name="uni03BC" unicode="&#x3bc;" 
d="M0 -128v512h64v-320h128v-64h-128v-128h-64zM256 0v64h-64v64h64v256h64v-384h-64z" />
    <glyph glyph-name="nu" unicode="&#x3bd;" 
d="M128 0v128h64v-128h-64zM64 128v128h64v-128h-64zM192 128v128h64v-128h-64zM0 256v128h64v-128h-64zM256 256v128h64v-128h-64z" />
    <glyph glyph-name="xi" unicode="&#x3be;" horiz-adv-x="320" 
d="M128 -128v64h64v-64h-64zM192 -64v64h-128v64h192v-128h-64zM0 64v128h64v-128h-64zM64 192v128h192v-64h-128v-64h-64zM0 320v128h64v-128h-64zM64 448v64h-64v64h256v-64h-128v-64h-64z" />
    <glyph glyph-name="omicron" unicode="&#x3bf;" 
d="M64 0v64h192v-64h-192zM0 64v256h64v-256h-64zM256 64v256h64v-256h-64zM64 320v64h192v-64h-192z" />
    <glyph glyph-name="pi" unicode="&#x3c0;" 
d="M0 0v384h320v-384h-64v320h-192v-320h-64z" />
    <glyph glyph-name="rho" unicode="&#x3c1;" 
d="M0 -128v448h64v-256h192v-64h-192v-128h-64zM256 64v256h64v-256h-64zM64 320v64h192v-64h-192z" />
    <glyph glyph-name="sigma1" unicode="&#x3c2;" horiz-adv-x="320" 
d="M128 -128v64h64v-64h-64zM192 -64v64h-128v64h192v-128h-64zM0 64v192h64v-192h-64zM64 256v64h64v-64h-64zM128 320v64h128v-64h-128z" />
    <glyph glyph-name="sigma" unicode="&#x3c3;" horiz-adv-x="448" 
d="M64 0v64h192v-64h-192zM0 64v256h64v-256h-64zM256 64v256h-192v64h320v-64h-64v-256h-64z" />
    <glyph glyph-name="tau" unicode="&#x3c4;" 
d="M128 0v320h-128v64h320v-64h-128v-320h-64z" />
    <glyph glyph-name="upsilon" unicode="&#x3c5;" 
d="M64 0v64h192v-64h-192zM0 64v320h64v-320h-64zM256 64v320h64v-320h-64z" />
    <glyph glyph-name="phi" unicode="&#x3c6;" horiz-adv-x="512" 
d="M0 64v256h64v-256h-64zM384 64v256h64v-256h-64zM64 320v64h64v-64h-64zM192 -128v128h-128v64h128v320h192v-64h-128v-256h128v-64h-128v-128h-64z" />
    <glyph glyph-name="chi" unicode="&#x3c7;" 
d="M0 -128v128h64v-128h-64zM256 -128v128h64v-128h-64zM64 0v64h64v-64h-64zM192 0v64h64v-64h-64zM128 64v128h64v-128h-64zM64 192v64h64v-64h-64zM192 192v64h64v-64h-64zM0 256v128h64v-128h-64zM256 256v128h64v-128h-64z" />
    <glyph glyph-name="psi" unicode="&#x3c8;" horiz-adv-x="512" 
d="M0 64v320h64v-320h-64zM192 -128v128h-128v64h128v320h64v-320h128v-64h-128v-128h-64zM384 64v320h64v-320h-64z" />
    <glyph glyph-name="omega" unicode="&#x3c9;" horiz-adv-x="512" 
d="M64 0v64h128v-64h-128zM256 0v64h128v-64h-128zM0 64v256h64v-256h-64zM192 64v256h64v-256h-64zM384 64v256h64v-256h-64zM64 320v64h64v-64h-64zM320 320v64h64v-64h-64z" />
    <glyph glyph-name="iotadieresis" unicode="&#x3ca;" horiz-adv-x="256" 
d="M64 0v384h64v-384h-64zM0 448v64h64v-64h-64zM128 448v64h64v-64h-64z" />
    <glyph glyph-name="upsilondieresis" unicode="&#x3cb;" 
d="M64 0v64h192v-64h-192zM0 64v320h64v-320h-64zM256 64v320h64v-320h-64zM64 448v64h64v-64h-64zM192 448v64h64v-64h-64z" />
    <glyph glyph-name="omicrontonos" unicode="&#x3cc;" 
d="M64 0v64h192v-64h-192zM0 64v256h64v-256h-64zM256 64v256h64v-256h-64zM64 320v64h192v-64h-192zM128 448v128h64v-128h-64z" />
    <glyph glyph-name="upsilontonos" unicode="&#x3cd;" 
d="M64 0v64h192v-64h-192zM0 64v320h64v-320h-64zM256 64v320h64v-320h-64zM128 448v128h64v-128h-64z" />
    <glyph glyph-name="omegatonos" unicode="&#x3ce;" horiz-adv-x="512" 
d="M64 0v64h128v-64h-128zM256 0v64h128v-64h-128zM0 64v256h64v-256h-64zM192 64v256h64v-256h-64zM384 64v256h64v-256h-64zM64 320v64h64v-64h-64zM320 320v64h64v-64h-64zM192 448v128h64v-128h-64z" />
    <glyph glyph-name="uni0400" unicode="&#x400;" 
d="M0 0v512h320v-64h-256v-128h192v-64h-192v-192h256v-64h-320zM192 576v64h64v-64h-64zM128 640v64h64v-64h-64z" />
    <glyph glyph-name="uni0401" unicode="&#x401;" 
d="M0 0v512h320v-64h-256v-128h192v-64h-192v-192h256v-64h-320zM64 576v64h64v-64h-64zM192 576v64h64v-64h-64z" />
    <glyph glyph-name="uni0402" unicode="&#x402;" horiz-adv-x="512" 
d="M320 0v64h64v-64h-64zM384 64v192h64v-192h-64zM128 0v448h-128v64h384v-64h-192v-128h192v-64h-192v-256h-64z" />
    <glyph glyph-name="uni0403" unicode="&#x403;" 
d="M0 0v512h320v-64h-256v-448h-64zM128 576v64h64v-64h-64zM192 640v64h64v-64h-64z" />
    <glyph glyph-name="uni0404" unicode="&#x404;" horiz-adv-x="448" 
d="M128 0v64h256v-64h-256zM64 64v64h64v-64h-64zM0 128v256h64v-64h256v-64h-256v-128h-64zM64 384v64h64v-64h-64zM128 448v64h256v-64h-256z" />
    <glyph glyph-name="uni0405" unicode="&#x405;" 
d="M0 0v64h256v-64h-256zM256 64v192h64v-192h-64zM64 256v64h192v-64h-192zM0 320v128h64v-128h-64zM64 448v64h256v-64h-256z" />
    <glyph glyph-name="uni0406" unicode="&#x406;" horiz-adv-x="256" 
d="M0 0v64h64v384h-64v64h192v-64h-64v-384h64v-64h-192z" />
    <glyph glyph-name="uni0407" unicode="&#x407;" horiz-adv-x="256" 
d="M0 0v64h64v384h-64v64h192v-64h-64v-384h64v-64h-192zM0 576v64h64v-64h-64zM128 576v64h64v-64h-64z" />
    <glyph glyph-name="uni0408" unicode="&#x408;" horiz-adv-x="320" 
d="M0 0v64h192v-64h-192zM192 64v384h-128v64h192v-448h-64z" />
    <glyph glyph-name="uni0409" unicode="&#x409;" horiz-adv-x="704" 
d="M0 0v64h64v-64h-64zM576 64v192h64v-192h-64zM320 0v448h-192v-384h-64v448h320v-192h192v-64h-192v-192h192v-64h-256z" />
    <glyph glyph-name="uni040A" unicode="&#x40a;" horiz-adv-x="704" 
d="M576 64v192h64v-192h-64zM0 0v512h64v-192h256v192h64v-192h192v-64h-192v-192h192v-64h-256v256h-256v-256h-64z" />
    <glyph glyph-name="uni040B" unicode="&#x40b;" horiz-adv-x="512" 
d="M384 0v256h64v-256h-64zM128 0v448h-128v64h384v-64h-192v-128h192v-64h-192v-256h-64z" />
    <glyph glyph-name="uni040C" unicode="&#x40c;" horiz-adv-x="448" 
d="M320 0v64h64v-64h-64zM256 64v64h64v-64h-64zM192 128v64h64v-64h-64zM192 320v128h64v-128h-64zM0 0v512h64v-192h128v-128h-64v64h-64v-256h-64zM256 448v64h128v-64h-128zM192 576v64h64v-64h-64zM256 640v64h64v-64h-64z" />
    <glyph glyph-name="uni040D" unicode="&#x40d;" horiz-adv-x="448" 
d="M128 128v128h64v-128h-64zM192 256v128h64v-128h-64zM0 0v512h64v-384h64v-64h-64v-64h-64zM320 0v384h-64v64h64v64h64v-512h-64zM192 576v64h64v-64h-64zM128 640v64h64v-64h-64z" />
    <glyph glyph-name="uni040E" unicode="&#x40e;" horiz-adv-x="448" 
d="M0 0v64h128v-64h-128zM128 64v192h128v-128h-64v-64h-64zM64 256v128h64v-128h-64zM256 256v128h64v-128h-64zM0 384v128h64v-128h-64zM320 384v128h64v-128h-64z" />
    <glyph glyph-name="uni040F" unicode="&#x40f;" horiz-adv-x="448" 
d="M192 -128v128h-192v512h64v-448h256v448h64v-512h-128v-128h-64z" />
    <glyph glyph-name="uni0410" unicode="&#x410;" horiz-adv-x="448" 
d="M0 0v192h64v192h64v-192h128v192h64v-192h64v-192h-64v128h-256v-128h-64zM128 384v128h128v-128h-128z" />
    <glyph glyph-name="uni0411" unicode="&#x411;" 
d="M256 64v192h64v-192h-64zM0 0v512h320v-64h-256v-128h192v-64h-192v-192h192v-64h-256z" />
    <glyph glyph-name="uni0412" unicode="&#x412;" 
d="M256 64v192h64v-192h-64zM256 320v128h64v-128h-64zM0 0v512h256v-64h-192v-128h192v-64h-192v-192h192v-64h-256z" />
    <glyph glyph-name="uni0413" unicode="&#x413;" 
d="M0 0v512h320v-64h-256v-448h-64z" />
    <glyph glyph-name="uni0414" unicode="&#x414;" horiz-adv-x="512" 
d="M128 192v192h64v-192h-64zM0 -128v192h64v128h64v-128h192v384h-64v-64h-64v128h192v-448h64v-192h-64v128h-320v-128h-64z" />
    <glyph glyph-name="uni0415" unicode="&#x415;" 
d="M0 0v512h320v-64h-256v-128h192v-64h-192v-192h256v-64h-320z" />
    <glyph glyph-name="uni0416" unicode="&#x416;" horiz-adv-x="640" 
d="M0 0v64h64v-64h-64zM512 0v64h64v-64h-64zM64 64v64h64v-64h-64zM448 64v64h64v-64h-64zM128 128v64h64v-64h-64zM384 128v64h64v-64h-64zM128 256v128h64v-128h-64zM384 256v128h64v-128h-64zM64 384v64h-64v64h128v-128h-64zM256 0v192h-64v64h64v256h64v-256h64v-64
h-64v-192h-64zM448 384v128h128v-64h-64v-64h-64z" />
    <glyph glyph-name="uni0417" unicode="&#x417;" 
d="M0 0v64h256v-64h-256zM256 64v192h64v-192h-64zM64 256v64h192v-64h-192zM256 320v128h64v-128h-64zM0 448v64h256v-64h-256z" />
    <glyph glyph-name="uni0418" unicode="&#x418;" horiz-adv-x="448" 
d="M128 128v128h64v-128h-64zM192 256v128h64v-128h-64zM0 0v512h64v-384h64v-64h-64v-64h-64zM320 0v384h-64v64h64v64h64v-512h-64z" />
    <glyph glyph-name="uni0419" unicode="&#x419;" horiz-adv-x="448" 
d="M128 128v128h64v-128h-64zM192 256v128h64v-128h-64zM0 0v512h64v-384h64v-64h-64v-64h-64zM320 0v384h-64v64h64v64h64v-512h-64zM128 576v64h128v-64h-128zM64 640v64h64v-64h-64zM256 640v64h64v-64h-64z" />
    <glyph glyph-name="uni041A" unicode="&#x41a;" horiz-adv-x="448" 
d="M320 0v64h64v-64h-64zM256 64v64h64v-64h-64zM192 128v64h64v-64h-64zM192 320v128h64v-128h-64zM0 0v512h64v-192h128v-128h-64v64h-64v-256h-64zM256 448v64h128v-64h-128z" />
    <glyph glyph-name="uni041B" unicode="&#x41b;" horiz-adv-x="448" 
d="M0 0v64h64v-64h-64zM320 0v448h-192v-384h-64v448h320v-512h-64z" />
    <glyph glyph-name="uni041C" unicode="&#x41c;" horiz-adv-x="512" 
d="M192 128v128h64v-128h-64zM128 256v128h64v-128h-64zM256 256v128h64v-128h-64zM0 0v512h128v-128h-64v-384h-64zM384 0v384h-64v128h128v-512h-64z" />
    <glyph glyph-name="uni041D" unicode="&#x41d;" horiz-adv-x="448" 
d="M0 0v512h64v-192h256v192h64v-512h-64v256h-256v-256h-64z" />
    <glyph glyph-name="uni041E" unicode="&#x41e;" horiz-adv-x="512" 
d="M128 0v64h192v-64h-192zM64 64v64h64v-64h-64zM320 64v64h64v-64h-64zM0 128v256h64v-256h-64zM384 128v256h64v-256h-64zM64 384v64h64v-64h-64zM320 384v64h64v-64h-64zM128 448v64h192v-64h-192z" />
    <glyph glyph-name="uni041F" unicode="&#x41f;" horiz-adv-x="448" 
d="M0 0v512h384v-512h-64v448h-256v-448h-64z" />
    <glyph glyph-name="uni0420" unicode="&#x420;" 
d="M256 256v192h64v-192h-64zM0 0v512h256v-64h-192v-192h192v-64h-192v-192h-64z" />
    <glyph glyph-name="uni0421" unicode="&#x421;" horiz-adv-x="448" 
d="M128 0v64h256v-64h-256zM64 64v64h64v-64h-64zM0 128v256h64v-256h-64zM64 384v64h64v-64h-64zM128 448v64h256v-64h-256z" />
    <glyph glyph-name="uni0422" unicode="&#x422;" 
d="M128 0v448h-128v64h320v-64h-128v-448h-64z" />
    <glyph glyph-name="uni0423" unicode="&#x423;" horiz-adv-x="448" 
d="M0 0v64h128v-64h-128zM128 64v192h128v-128h-64v-64h-64zM64 256v128h64v-128h-64zM256 256v128h64v-128h-64zM0 384v128h64v-128h-64zM320 384v128h64v-128h-64z" />
    <glyph glyph-name="uni0424" unicode="&#x424;" horiz-adv-x="512" 
d="M0 128v256h64v-256h-64zM384 128v256h64v-256h-64zM192 0v64h-128v64h128v256h-128v64h128v64h64v-64h128v-64h-128v-256h128v-64h-128v-64h-64z" />
    <glyph glyph-name="uni0425" unicode="&#x425;" 
d="M0 0v128h64v-128h-64zM256 0v128h64v-128h-64zM64 128v64h64v-64h-64zM192 128v64h64v-64h-64zM128 192v128h64v-128h-64zM64 320v64h64v-64h-64zM192 320v64h64v-64h-64zM0 384v128h64v-128h-64zM256 384v128h64v-128h-64z" />
    <glyph glyph-name="uni0426" unicode="&#x426;" horiz-adv-x="512" 
d="M384 -128v128h-384v512h64v-448h256v448h64v-448h64v-192h-64z" />
    <glyph glyph-name="uni0427" unicode="&#x427;" horiz-adv-x="448" 
d="M0 256v256h64v-256h-64zM320 0v192h-256v64h256v256h64v-512h-64z" />
    <glyph glyph-name="uni0428" unicode="&#x428;" horiz-adv-x="640" 
d="M0 0v512h64v-448h192v448h64v-448h192v448h64v-512h-576z" />
    <glyph glyph-name="uni0429" unicode="&#x429;" horiz-adv-x="704" 
d="M576 -128v128h-576v512h64v-448h192v448h64v-448h192v448h64v-448h64v-192h-64z" />
    <glyph glyph-name="uni042A" unicode="&#x42a;" horiz-adv-x="512" 
d="M384 64v192h64v-192h-64zM128 0v448h-128v64h192v-192h192v-64h-192v-192h192v-64h-256z" />
    <glyph glyph-name="uni042B" unicode="&#x42b;" horiz-adv-x="512" 
d="M256 64v192h64v-192h-64zM0 0v512h64v-192h192v-64h-192v-192h192v-64h-256zM384 0v512h64v-512h-64z" />
    <glyph glyph-name="uni042C" unicode="&#x42c;" 
d="M256 64v192h64v-192h-64zM0 0v512h64v-192h192v-64h-192v-192h192v-64h-256z" />
    <glyph glyph-name="uni042D" unicode="&#x42d;" horiz-adv-x="448" 
d="M0 0v64h256v-64h-256zM256 64v64h64v-64h-64zM320 128v128h-256v64h256v64h64v-256h-64zM256 384v64h64v-64h-64zM0 448v64h256v-64h-256z" />
    <glyph glyph-name="uni042E" unicode="&#x42e;" horiz-adv-x="640" 
d="M256 0v64h192v-64h-192zM192 64v64h64v-64h-64zM448 64v64h64v-64h-64zM512 128v256h64v-256h-64zM192 384v64h64v-64h-64zM448 384v64h64v-64h-64zM0 0v512h64v-192h64v64h64v-256h-64v128h-64v-256h-64zM256 448v64h192v-64h-192z" />
    <glyph glyph-name="uni042F" unicode="&#x42f;" horiz-adv-x="448" 
d="M0 0v64h64v-64h-64zM64 64v64h64v-64h-64zM64 256v192h64v-192h-64zM320 0v192h-128v-64h-64v128h192v192h-192v64h256v-512h-64z" />
    <glyph glyph-name="uni0430" unicode="&#x430;" 
d="M0 64v128h64v-128h-64zM64 0v64h192v128h-192v64h192v64h64v-320h-256zM64 320v64h192v-64h-192z" />
    <glyph glyph-name="uni0431" unicode="&#x431;" 
d="M64 0v64h192v-64h-192zM256 64v256h64v-256h-64zM0 64v384h64v-64h192v-64h-192v-256h-64zM64 448v64h64v-64h-64zM128 512v64h192v-64h-192z" />
    <glyph glyph-name="uni0432" unicode="&#x432;" 
d="M256 64v128h64v-128h-64zM256 256v64h64v-64h-64zM0 0v384h256v-64h-192v-64h192v-64h-192v-128h192v-64h-256z" />
    <glyph glyph-name="uni0433" unicode="&#x433;" horiz-adv-x="320" 
d="M0 0v384h256v-64h-192v-320h-64z" />
    <glyph glyph-name="uni0434" unicode="&#x434;" horiz-adv-x="448" 
d="M0 -64v128h64v128h64v-128h128v256h-64v-128h-64v192h192v-320h64v-128h-64v64h-256v-64h-64z" />
    <glyph glyph-name="uni0435" unicode="&#x435;" 
d="M64 0v64h192v-64h-192zM256 64v64h64v-64h-64zM0 64v256h64v-64h192v64h64v-128h-256v-128h-64zM64 320v64h192v-64h-192z" />
    <glyph glyph-name="uni0436" unicode="&#x436;" horiz-adv-x="512" 
d="M0 0v64h64v-64h-64zM384 0v64h64v-64h-64zM64 64v64h64v-64h-64zM320 64v64h64v-64h-64zM64 192v128h64v-128h-64zM320 192v128h64v-128h-64zM0 320v64h64v-64h-64zM192 0v128h-64v64h64v192h64v-192h64v-64h-64v-128h-64zM384 320v64h64v-64h-64z" />
    <glyph glyph-name="uni0437" unicode="&#x437;" horiz-adv-x="320" 
d="M0 0v64h192v-64h-192zM192 64v128h64v-128h-64zM64 192v64h128v-64h-128zM192 256v64h64v-64h-64zM0 320v64h192v-64h-192z" />
    <glyph glyph-name="uni0438" unicode="&#x438;" 
d="M128 192v64h64v-64h-64zM0 0v384h64v-192h64v-64h-64v-128h-64zM256 0v256h-64v64h64v64h64v-384h-64z" />
    <glyph glyph-name="uni0439" unicode="&#x439;" 
d="M128 192v64h64v-64h-64zM0 0v384h64v-192h64v-64h-64v-128h-64zM256 0v256h-64v64h64v64h64v-384h-64zM128 448v64h128v-64h-128zM64 512v64h64v-64h-64zM256 512v64h64v-64h-64z" />
    <glyph glyph-name="uni043A" unicode="&#x43a;" 
d="M256 0v64h64v-64h-64zM192 64v64h64v-64h-64zM128 128v64h64v-64h-64zM128 256v64h64v-64h-64zM0 0v384h64v-128h64v-64h-64v-192h-64zM192 320v64h128v-64h-128z" />
    <glyph glyph-name="uni043B" unicode="&#x43b;" 
d="M0 0v64h64v-64h-64zM256 0v320h-128v-256h-64v320h256v-384h-64z" />
    <glyph glyph-name="uni043C" unicode="&#x43c;" 
d="M128 128v128h64v-128h-64zM0 0v384h64v-64h64v-64h-64v-256h-64zM256 0v256h-64v64h64v64h64v-384h-64z" />
    <glyph glyph-name="uni043D" unicode="&#x43d;" 
d="M0 0v384h64v-128h192v128h64v-384h-64v192h-192v-192h-64z" />
    <glyph glyph-name="uni043E" unicode="&#x43e;" 
d="M64 0v64h192v-64h-192zM0 64v256h64v-256h-64zM256 64v256h64v-256h-64zM64 320v64h192v-64h-192z" />
    <glyph glyph-name="uni043F" unicode="&#x43f;" 
d="M256 -64v384h-192v-320h-64v384h320v-448h-64z" />
    <glyph glyph-name="uni0440" unicode="&#x440;" 
d="M256 64v256h64v-256h-64zM0 -128v512h256v-64h-192v-256h192v-64h-192v-128h-64z" />
    <glyph glyph-name="uni0441" unicode="&#x441;" horiz-adv-x="320" 
d="M64 0v64h192v-64h-192zM0 64v256h64v-256h-64zM64 320v64h192v-64h-192z" />
    <glyph glyph-name="uni0442" unicode="&#x442;" 
d="M128 0v320h-128v64h320v-64h-128v-320h-64z" />
    <glyph glyph-name="uni0443" unicode="&#x443;" 
d="M64 -128v128h64v-128h-64zM128 0v128h64v-128h-64zM64 128v128h64v-128h-64zM192 128v128h64v-128h-64zM0 256v128h64v-128h-64zM256 256v128h64v-128h-64z" />
    <glyph glyph-name="uni0444" unicode="&#x444;" horiz-adv-x="512" 
d="M0 64v256h64v-256h-64zM384 64v256h64v-256h-64zM192 -128v128h-128v64h128v256h-128v64h128v192h64v-192h128v-64h-128v-256h128v-64h-128v-128h-64z" />
    <glyph glyph-name="uni0445" unicode="&#x445;" 
d="M0 0v64h64v-64h-64zM256 0v64h64v-64h-64zM64 64v64h64v-64h-64zM192 64v64h64v-64h-64zM128 128v128h64v-128h-64zM64 256v64h64v-64h-64zM192 256v64h64v-64h-64zM0 320v64h64v-64h-64zM256 320v64h64v-64h-64z" />
    <glyph glyph-name="uni0446" unicode="&#x446;" 
d="M256 -64v64h-256v384h64v-320h128v320h64v-320h64v-128h-64z" />
    <glyph glyph-name="uni0447" unicode="&#x447;" 
d="M0 192v192h64v-192h-64zM256 0v128h-192v64h192v192h64v-384h-64z" />
    <glyph glyph-name="uni0448" unicode="&#x448;" horiz-adv-x="512" 
d="M0 0v384h64v-320h128v320h64v-320h128v320h64v-384h-448z" />
    <glyph glyph-name="uni0449" unicode="&#x449;" horiz-adv-x="576" 
d="M448 -64v64h-448v384h64v-320h128v320h64v-320h128v320h64v-320h64v-128h-64z" />
    <glyph glyph-name="uni044A" unicode="&#x44a;" horiz-adv-x="448" 
d="M320 64v128h64v-128h-64zM128 0v320h-128v64h192v-128h128v-64h-128v-128h128v-64h-192z" />
    <glyph glyph-name="uni044B" unicode="&#x44b;" horiz-adv-x="448" 
d="M192 64v128h64v-128h-64zM0 0v384h64v-128h128v-64h-128v-128h128v-64h-192zM320 0v384h64v-384h-64z" />
    <glyph glyph-name="uni044C" unicode="&#x44c;" horiz-adv-x="320" 
d="M192 64v128h64v-128h-64zM0 0v384h64v-128h128v-64h-128v-128h128v-64h-192z" />
    <glyph glyph-name="uni044D" unicode="&#x44d;" horiz-adv-x="320" 
d="M0 0v64h192v-64h-192zM192 64v128h-128v64h128v64h64v-256h-64zM0 320v64h192v-64h-192z" />
    <glyph glyph-name="uni044E" unicode="&#x44e;" horiz-adv-x="576" 
d="M256 0v64h192v-64h-192zM448 64v256h64v-256h-64zM0 0v384h64v-128h128v64h64v-256h-64v128h-128v-192h-64zM256 320v64h192v-64h-192z" />
    <glyph glyph-name="uni044F" unicode="&#x44f;" 
d="M0 0v64h64v-64h-64zM0 192v128h64v-128h-64zM256 0v128h-128v-64h-64v128h192v128h-192v64h256v-384h-64z" />
    <glyph glyph-name="uni0450" unicode="&#x450;" 
d="M64 0v64h192v-64h-192zM256 64v64h64v-64h-64zM0 64v256h64v-64h192v64h64v-128h-256v-128h-64zM64 320v64h192v-64h-192zM128 448v64h64v-64h-64zM64 512v64h64v-64h-64z" />
    <glyph glyph-name="uni0451" unicode="&#x451;" 
d="M64 0v64h192v-64h-192zM256 64v64h64v-64h-64zM0 64v256h64v-64h192v64h64v-128h-256v-128h-64zM64 320v64h192v-64h-192zM64 448v64h64v-64h-64zM192 448v64h64v-64h-64z" />
    <glyph glyph-name="uni0452" unicode="&#x452;" horiz-adv-x="448" 
d="M192 -128v64h64v-64h-64zM256 -64v64h64v-64h-64zM320 0v320h64v-320h-64zM64 0v448h-64v64h64v64h64v-64h128v-64h-128v-64h192v-64h-192v-320h-64z" />
    <glyph glyph-name="uni0453" unicode="&#x453;" horiz-adv-x="320" 
d="M0 0v384h256v-64h-192v-320h-64zM128 448v64h64v-64h-64zM192 512v64h64v-64h-64z" />
    <glyph glyph-name="uni0454" unicode="&#x454;" horiz-adv-x="320" 
d="M64 0v64h192v-64h-192zM0 64v256h64v-64h128v-64h-128v-128h-64zM64 320v64h192v-64h-192z" />
    <glyph glyph-name="uni0455" unicode="&#x455;" horiz-adv-x="320" 
d="M0 0v64h192v-64h-192zM192 64v64h-64v64h128v-128h-64zM0 192v128h64v-64h64v-64h-128zM64 320v64h192v-64h-192z" />
    <glyph glyph-name="uni0456" unicode="&#x456;" horiz-adv-x="128" 
d="M0 0v384h64v-384h-64zM0 448v64h64v-64h-64z" />
    <glyph glyph-name="uni0457" unicode="&#x457;" horiz-adv-x="256" 
d="M64 0v384h64v-384h-64zM0 448v64h64v-64h-64zM128 448v64h64v-64h-64z" />
    <glyph glyph-name="uni0458" unicode="&#x458;" horiz-adv-x="192" 
d="M0 -128v64h64v-64h-64zM64 -64v384h-64v64h128v-448h-64zM64 448v64h64v-64h-64z" />
    <glyph glyph-name="uni0459" unicode="&#x459;" horiz-adv-x="576" 
d="M0 0v64h64v-64h-64zM448 64v128h64v-128h-64zM256 0v320h-128v-256h-64v320h256v-128h128v-64h-128v-128h128v-64h-192z" />
    <glyph glyph-name="uni045A" unicode="&#x45a;" horiz-adv-x="576" 
d="M448 64v128h64v-128h-64zM0 0v384h64v-128h128v128h64v-128h192v-64h-192v-128h192v-64h-256v192h-128v-192h-64z" />
    <glyph glyph-name="uni045B" unicode="&#x45b;" horiz-adv-x="448" 
d="M320 0v320h64v-320h-64zM64 0v448h-64v64h64v64h64v-64h128v-64h-128v-64h192v-64h-192v-320h-64z" />
    <glyph glyph-name="uni045C" unicode="&#x45c;" 
d="M256 0v64h64v-64h-64zM192 64v64h64v-64h-64zM128 128v64h64v-64h-64zM128 256v64h64v-64h-64zM0 0v384h64v-128h64v-64h-64v-192h-64zM192 320v64h128v-64h-128z" />
    <glyph glyph-name="uni045D" unicode="&#x45d;" 
d="M128 192v64h64v-64h-64zM0 0v384h64v-192h64v-64h-64v-128h-64zM256 0v256h-64v64h64v64h64v-384h-64zM128 448v64h64v-64h-64zM64 512v64h64v-64h-64z" />
    <glyph glyph-name="uni045E" unicode="&#x45e;" 
d="M64 -128v128h64v-128h-64zM128 0v128h64v-128h-64zM64 128v128h64v-128h-64zM192 128v128h64v-128h-64zM0 256v128h64v-128h-64zM256 256v128h64v-128h-64zM128 448v64h128v-64h-128zM64 512v64h64v-64h-64zM256 512v64h64v-64h-64z" />
    <glyph glyph-name="uni045F" unicode="&#x45f;" 
d="M128 -64v64h-128v384h64v-320h192v320h64v-384h-128v-64h-64z" />
    <glyph glyph-name="uni0490" unicode="&#x490;" 
d="M0 0v512h256v128h64v-192h-256v-448h-64z" />
    <glyph glyph-name="uni0491" unicode="&#x491;" horiz-adv-x="320" 
d="M0 0v384h192v128h64v-192h-192v-320h-64z" />
    <glyph glyph-name="uni0492" unicode="&#x492;" horiz-adv-x="448" 
d="M64 0v256h-64v64h64v192h320v-64h-256v-128h192v-64h-192v-256h-64z" />
    <glyph glyph-name="uni0493" unicode="&#x493;" 
d="M64 0v128h-64v64h64v192h256v-64h-192v-128h128v-64h-128v-128h-64z" />
    <glyph glyph-name="uni0496" unicode="&#x496;" horiz-adv-x="640" 
d="M0 0v64h64v-64h-64zM512 -128v192h64v-192h-64zM64 64v64h64v-64h-64zM448 64v64h64v-64h-64zM128 128v64h64v-64h-64zM384 128v64h64v-64h-64zM128 256v128h64v-128h-64zM384 256v128h64v-128h-64zM64 384v64h-64v64h128v-128h-64zM256 0v192h-64v64h64v256h64v-256h64
v-64h-64v-192h-64zM448 384v128h128v-64h-64v-64h-64z" />
    <glyph glyph-name="uni0497" unicode="&#x497;" horiz-adv-x="512" 
d="M0 0v64h64v-64h-64zM384 -64v128h64v-128h-64zM64 64v64h64v-64h-64zM320 64v64h64v-64h-64zM64 192v128h-64v64h128v-192h-64zM192 0v128h-64v64h64v192h64v-192h64v-64h-64v-128h-64zM320 192v192h128v-64h-64v-128h-64z" />
    <glyph glyph-name="uni049A" unicode="&#x49a;" horiz-adv-x="512" 
d="M384 -128v192h64v-192h-64zM320 64v64h64v-64h-64zM256 128v64h64v-64h-64zM192 192v64h64v-64h-64zM192 320v64h64v-64h-64zM256 384v64h64v-64h-64zM0 0v512h64v-192h128v-64h-128v-256h-64zM320 448v64h128v-64h-128z" />
    <glyph glyph-name="uni049B" unicode="&#x49b;" 
d="M256 -64v128h64v-128h-64zM192 64v64h64v-64h-64zM0 0v384h64v-128h64v64h64v-192h-64v64h-64v-192h-64zM192 320v64h128v-64h-128z" />
    <glyph glyph-name="uni049C" unicode="&#x49c;" horiz-adv-x="448" 
d="M320 0v64h64v-64h-64zM256 64v128h64v-128h-64zM0 0v512h64v-192h64v128h64v-64h64v-64h-64v-64h64v-64h-64v-64h-64v128h-64v-256h-64zM256 384v128h128v-64h-64v-64h-64z" />
    <glyph glyph-name="uni049D" unicode="&#x49d;" 
d="M256 0v64h64v-64h-64zM0 0v384h64v-192h64v128h128v-128h-64v-64h64v-64h-128v64h-64v-128h-64zM256 320v64h64v-64h-64z" />
    <glyph glyph-name="uni04A2" unicode="&#x4a2;" horiz-adv-x="576" 
d="M448 -128v128h-64v256h-320v-256h-64v512h64v-192h320v192h64v-448h64v-192h-64z" />
    <glyph glyph-name="uni04A3" unicode="&#x4a3;" horiz-adv-x="448" 
d="M320 -64v64h-64v192h-192v-192h-64v384h64v-128h192v128h64v-320h64v-128h-64z" />
    <glyph glyph-name="uni04AE" unicode="&#x4ae;" 
d="M128 0v256h64v-256h-64zM64 256v128h64v-128h-64zM192 256v128h64v-128h-64zM0 384v128h64v-128h-64zM256 384v128h64v-128h-64z" />
    <glyph glyph-name="uni04AF" unicode="&#x4af;" 
d="M128 -128v256h64v-256h-64zM64 128v192h64v-192h-64zM192 128v192h64v-192h-64zM0 320v64h64v-64h-64zM256 320v64h64v-64h-64z" />
    <glyph glyph-name="uni04B0" unicode="&#x4b0;" horiz-adv-x="512" 
d="M192 0v192h-128v64h64v128h64v-128h64v128h64v-128h64v-64h-128v-192h-64zM64 384v64h64v-64h-64zM320 384v64h64v-64h-64zM0 448v64h64v-64h-64zM384 448v64h64v-64h-64z" />
    <glyph glyph-name="uni04B1" unicode="&#x4b1;" 
d="M128 -128v128h-128v64h128v64h64v-64h128v-64h-128v-128h-64zM64 128v192h64v-192h-64zM192 128v192h64v-192h-64zM0 320v64h64v-64h-64zM256 320v64h64v-64h-64z" />
    <glyph glyph-name="uni04B2" unicode="&#x4b2;" horiz-adv-x="512" 
d="M0 0v64h64v-64h-64zM64 64v64h64v-64h-64zM384 -128v128h-64v128h64v-64h64v-192h-64zM128 128v64h64v-64h-64zM256 128v64h64v-64h-64zM192 192v64h-64v128h64v-64h64v-128h-64zM256 320v64h64v-64h-64zM64 384v64h64v-64h-64zM320 384v64h64v-64h-64zM0 448v64h64v-64
h-64zM384 448v64h64v-64h-64z" />
    <glyph glyph-name="uni04B3" unicode="&#x4b3;" horiz-adv-x="448" 
d="M0 0v64h64v-64h-64zM64 64v64h64v-64h-64zM320 -64v64h-64v128h64v-64h64v-128h-64zM128 128v128h128v-128h-128zM64 256v64h64v-64h-64zM256 256v64h64v-64h-64zM0 320v64h64v-64h-64zM320 320v64h64v-64h-64z" />
    <glyph glyph-name="uni04B8" unicode="&#x4b8;" horiz-adv-x="448" 
d="M0 256v256h64v-256h-64zM320 0v192h-64v-128h-64v128h-128v64h128v128h64v-128h64v256h64v-512h-64z" />
    <glyph glyph-name="uni04B9" unicode="&#x4b9;" 
d="M256 0v128h-64v-64h-64v64h-128v256h64v-192h64v128h64v-128h64v192h64v-384h-64z" />
    <glyph glyph-name="uni04BA" unicode="&#x4ba;" horiz-adv-x="448" 
d="M320 0v256h64v-256h-64zM0 0v512h64v-192h256v-64h-256v-256h-64z" />
    <glyph glyph-name="uni04BB" unicode="&#x4bb;" 
d="M256 0v320h64v-320h-64zM0 0v576h64v-192h192v-64h-192v-320h-64z" />
    <glyph glyph-name="uni04D8" unicode="&#x4d8;" horiz-adv-x="512" 
d="M128 0v64h192v-64h-192zM64 64v64h64v-64h-64zM320 64v64h64v-64h-64zM0 128v192h384v64h64v-256h-64v128h-320v-128h-64zM320 384v64h64v-64h-64zM64 384v128h256v-64h-192v-64h-64z" />
    <glyph glyph-name="uni04D9" unicode="&#x4d9;" 
d="M64 0v64h192v-64h-192zM0 64v128h256v128h64v-256h-64v64h-192v-64h-64zM0 256v128h256v-64h-192v-64h-64z" />
    <glyph glyph-name="uni04E8" unicode="&#x4e8;" horiz-adv-x="512" 
d="M128 0v64h192v-64h-192zM64 64v64h64v-64h-64zM320 64v64h64v-64h-64zM0 128v256h64v-64h320v64h64v-256h-64v128h-320v-128h-64zM64 384v64h64v-64h-64zM320 384v64h64v-64h-64zM128 448v64h192v-64h-192z" />
    <glyph glyph-name="uni04E9" unicode="&#x4e9;" 
d="M64 0v64h192v-64h-192zM0 64v256h64v-64h192v64h64v-256h-64v128h-192v-128h-64zM64 320v64h192v-64h-192z" />
    <glyph glyph-name="uni05B0" unicode="&#x5b0;" horiz-adv-x="256" 
d="M128 -128v128h64v-128h-64z" />
    <glyph glyph-name="uni05B1" unicode="&#x5b1;" horiz-adv-x="448" 
d="M128 -128v64h64v-64h-64zM64 -64v64h64v-64h-64zM192 -64v64h64v-64h-64zM320 -128v128h64v-128h-64z" />
    <glyph glyph-name="uni05B2" unicode="&#x5b2;" 
d="M64 -64v64h128v-64h-128zM256 -128v128h64v-128h-64z" />
    <glyph glyph-name="uni05B3" unicode="&#x5b3;" horiz-adv-x="448" 
d="M128 -128v64h-64v64h192v-64h-64v-64h-64zM320 -128v128h64v-128h-64z" />
    <glyph glyph-name="uni05B4" unicode="&#x5b4;" horiz-adv-x="320" 
d="M192 -128v64h64v-64h-64z" />
    <glyph glyph-name="uni05B5" unicode="&#x5b5;" 
d="M128 -128v64h64v-64h-64zM256 -128v64h64v-64h-64z" />
    <glyph glyph-name="uni05B6" unicode="&#x5b6;" 
d="M192 -128v64h64v-64h-64zM128 -64v64h64v-64h-64zM256 -64v64h64v-64h-64z" />
    <glyph glyph-name="uni05B7" unicode="&#x5b7;" horiz-adv-x="320" 
d="M128 -128v64h128v-64h-128z" />
    <glyph glyph-name="uni05B8" unicode="&#x5b8;" 
d="M192 -128v64h-64v64h192v-64h-64v-64h-64z" />
    <glyph glyph-name="uni05B9" unicode="&#x5b9;" horiz-adv-x="320" 
d="M192 512v64h64v-64h-64z" />
    <glyph glyph-name="uni05BB" unicode="&#x5bb;" horiz-adv-x="448" 
d="M192 -128v64h64v-64h-64zM320 -128v64h64v-64h-64zM64 -64v64h64v-64h-64z" />
    <glyph glyph-name="uni05BC" unicode="&#x5bc;" horiz-adv-x="320" 
d="M192 192v64h64v-64h-64z" />
    <glyph glyph-name="uni05BD" unicode="&#x5bd;" horiz-adv-x="320" 
d="M192 -128v128h64v-128h-64z" />
    <glyph glyph-name="uni05BE" unicode="&#x5be;" horiz-adv-x="256" 
d="M64 384v64h128v-64h-128z" />
    <glyph glyph-name="uni05BF" unicode="&#x5bf;" horiz-adv-x="320" 
d="M128 512v64h128v-64h-128z" />
    <glyph glyph-name="uni05C0" unicode="&#x5c0;" horiz-adv-x="192" 
d="M64 -64v576h64v-576h-64z" />
    <glyph glyph-name="uni05C1" unicode="&#x5c1;" horiz-adv-x="256" 
d="M128 512v64h64v-64h-64z" />
    <glyph glyph-name="uni05C2" unicode="&#x5c2;" horiz-adv-x="128" 
d="M0 512v64h64v-64h-64z" />
    <glyph glyph-name="uni05C3" unicode="&#x5c3;" horiz-adv-x="128" 
d="M0 0v128h64v-128h-64zM0 320v128h64v-128h-64z" />
    <glyph glyph-name="uni05D0" unicode="&#x5d0;" horiz-adv-x="512" 
d="M384 0v64h64v-64h-64zM320 64v64h64v-64h-64zM0 0v192h64v-192h-64zM256 128v64h64v-64h-64zM64 192v64h64v-64h-64zM192 192v64h64v-64h-64zM320 192v64h64v-64h-64zM128 256v64h64v-64h-64zM64 320v64h64v-64h-64zM0 384v64h64v-64h-64zM384 256v192h64v-192h-64z" />
    <glyph glyph-name="uni05D1" unicode="&#x5d1;" horiz-adv-x="512" 
d="M0 0v64h320v256h64v-256h64v-64h-448zM256 320v64h64v-64h-64zM0 384v64h256v-64h-256z" />
    <glyph glyph-name="uni05D2" unicode="&#x5d2;" 
d="M0 0v64h64v-64h-64zM64 64v64h64v-64h-64zM128 128v64h64v-64h-64zM256 0v192h64v-192h-64zM192 192v192h64v-192h-64zM64 384v64h128v-64h-128z" />
    <glyph glyph-name="uni05D3" unicode="&#x5d3;" horiz-adv-x="448" 
d="M256 0v384h-256v64h384v-64h-64v-384h-64z" />
    <glyph glyph-name="uni05D4" unicode="&#x5d4;" horiz-adv-x="512" 
d="M0 0v256h64v-256h-64zM384 0v320h64v-320h-64zM320 320v64h64v-64h-64zM0 384v64h320v-64h-320z" />
    <glyph glyph-name="uni05D5" unicode="&#x5d5;" horiz-adv-x="192" 
d="M64 0v384h64v-384h-64zM0 384v64h64v-64h-64z" />
    <glyph glyph-name="uni05D6" unicode="&#x5d6;" horiz-adv-x="256" 
d="M64 0v320h64v-320h-64zM128 320v64h64v-64h-64zM0 384v64h128v-64h-128z" />
    <glyph glyph-name="uni05D7" unicode="&#x5d7;" horiz-adv-x="512" 
d="M384 0v320h64v-320h-64zM320 320v64h64v-64h-64zM0 0v448h320v-64h-256v-384h-64z" />
    <glyph glyph-name="uni05D8" unicode="&#x5d8;" horiz-adv-x="512" 
d="M128 0v64h192v-64h-192zM64 64v64h64v-64h-64zM320 64v64h64v-64h-64zM384 128v256h64v-256h-64zM0 128v320h64v-320h-64zM256 384v64h128v-64h-128z" />
    <glyph glyph-name="uni05D9" unicode="&#x5d9;" horiz-adv-x="192" 
d="M64 192v192h64v-192h-64zM0 384v64h64v-64h-64z" />
    <glyph glyph-name="uni05DA" unicode="&#x5da;" horiz-adv-x="448" 
d="M320 -128v448h64v-448h-64zM256 320v64h64v-64h-64zM0 384v64h256v-64h-256z" />
    <glyph glyph-name="uni05DB" unicode="&#x5db;" horiz-adv-x="448" 
d="M0 0v64h256v-64h-256zM256 64v64h64v-64h-64zM320 128v192h64v-192h-64zM256 320v64h64v-64h-64zM0 384v64h256v-64h-256z" />
    <glyph glyph-name="uni05DC" unicode="&#x5dc;" horiz-adv-x="448" 
d="M128 0v64h64v-64h-64zM192 64v64h64v-64h-64zM256 128v64h64v-64h-64zM320 192v192h64v-192h-64zM0 384v192h64v-128h256v-64h-320z" />
    <glyph glyph-name="uni05DD" unicode="&#x5dd;" horiz-adv-x="512" 
d="M320 320v64h64v-64h-64zM0 0v448h320v-64h-256v-320h320v256h64v-320h-448z" />
    <glyph glyph-name="uni05DE" unicode="&#x5de;" horiz-adv-x="512" 
d="M0 0v192h64v-192h-64zM64 192v192h128v-64h-64v-128h-64zM192 0v64h192v320h64v-384h-256zM0 384v64h64v-64h-64zM192 384v64h192v-64h-192z" />
    <glyph glyph-name="uni05DF" unicode="&#x5df;" horiz-adv-x="256" 
d="M128 -128v512h64v-512h-64zM0 384v64h128v-64h-128z" />
    <glyph glyph-name="uni05E0" unicode="&#x5e0;" horiz-adv-x="256" 
d="M0 0v64h128v320h64v-384h-192zM0 384v64h128v-64h-128z" />
    <glyph glyph-name="uni05E1" unicode="&#x5e1;" horiz-adv-x="576" 
d="M192 0v64h192v-64h-192zM128 64v64h64v-64h-64zM384 64v64h64v-64h-64zM448 128v192h64v-192h-64zM384 320v64h64v-64h-64zM64 128v256h-64v64h384v-64h-256v-256h-64z" />
    <glyph glyph-name="uni05E2" unicode="&#x5e2;" horiz-adv-x="448" 
d="M0 0v64h128v64h128v-64h-64v-64h-192zM256 128v64h64v-64h-64zM64 128v192h64v-192h-64zM0 320v128h64v-128h-64zM320 192v256h64v-256h-64z" />
    <glyph glyph-name="uni05E3" unicode="&#x5e3;" horiz-adv-x="448" 
d="M64 192v64h64v-64h-64zM320 -128v448h64v-448h-64zM256 320v64h64v-64h-64zM0 256v192h256v-64h-192v-128h-64z" />
    <glyph glyph-name="uni05E4" unicode="&#x5e4;" horiz-adv-x="448" 
d="M0 0v64h256v-64h-256zM256 64v64h64v-64h-64zM64 192v64h64v-64h-64zM320 128v192h64v-192h-64zM256 320v64h64v-64h-64zM0 256v192h256v-64h-192v-128h-64z" />
    <glyph glyph-name="uni05E5" unicode="&#x5e5;" 
d="M128 -128v320h-64v64h128v-384h-64zM192 256v64h64v-64h-64zM0 256v192h64v-192h-64zM256 320v128h64v-128h-64z" />
    <glyph glyph-name="uni05E6" unicode="&#x5e6;" horiz-adv-x="448" 
d="M0 0v64h320v-64h-320zM320 64v64h64v-64h-64zM256 128v64h64v-64h-64zM128 192v64h128v-64h-128zM64 256v64h64v-64h-64zM256 256v64h64v-64h-64zM0 320v128h64v-128h-64zM320 320v128h64v-128h-64z" />
    <glyph glyph-name="uni05E7" unicode="&#x5e7;" horiz-adv-x="448" 
d="M128 0v64h64v-64h-64zM192 64v64h64v-64h-64zM256 128v64h64v-64h-64zM0 -128v384h64v-384h-64zM320 192v192h64v-192h-64zM0 384v64h320v-64h-320z" />
    <glyph glyph-name="uni05E8" unicode="&#x5e8;" horiz-adv-x="448" 
d="M320 0v320h64v-320h-64zM256 320v64h64v-64h-64zM0 384v64h256v-64h-256z" />
    <glyph glyph-name="uni05E9" unicode="&#x5e9;" horiz-adv-x="576" 
d="M192 64v64h128v-64h-128zM320 128v64h64v-64h-64zM192 256v64h64v-64h-64zM384 192v128h64v-128h-64zM0 0v448h64v-192h128v-64h-128v-128h128v-64h-192zM256 320v128h64v-128h-64zM448 320v128h64v-128h-64z" />
    <glyph glyph-name="uni05EA" unicode="&#x5ea;" horiz-adv-x="576" 
d="M0 0v64h128v-64h-128zM448 0v320h64v-320h-64zM384 320v64h64v-64h-64zM128 64v320h-64v64h320v-64h-192v-320h-64z" />
    <glyph glyph-name="uni05F0" unicode="&#x5f0;" 
d="M64 0v384h64v-384h-64zM256 0v384h64v-384h-64zM0 384v64h64v-64h-64zM192 384v64h64v-64h-64z" />
    <glyph glyph-name="uni05F1" unicode="&#x5f1;" 
d="M64 192v192h64v-192h-64zM256 0v384h64v-384h-64zM0 384v64h64v-64h-64zM192 384v64h64v-64h-64z" />
    <glyph glyph-name="uni05F2" unicode="&#x5f2;" 
d="M64 192v192h64v-192h-64zM256 192v192h64v-192h-64zM0 384v64h64v-64h-64zM192 384v64h64v-64h-64z" />
    <glyph glyph-name="uni05F3" unicode="&#x5f3;" horiz-adv-x="192" 
d="M0 384v64h64v-64h-64zM64 448v128h64v-128h-64z" />
    <glyph glyph-name="uni05F4" unicode="&#x5f4;" horiz-adv-x="320" 
d="M0 384v64h64v-64h-64zM128 384v64h64v-64h-64zM64 448v128h64v-128h-64zM192 448v128h64v-128h-64z" />
    <glyph glyph-name="uni060C" unicode="&#x60c;" horiz-adv-x="192" 
d="M0 0v128h64v-64h64v-64h-128zM64 128v64h64v-64h-64z" />
    <glyph glyph-name="uni061B" unicode="&#x61b;" horiz-adv-x="192" 
d="M0 0v64h128v-64h-128zM0 192v128h64v-64h64v-64h-128zM64 320v64h64v-64h-64z" />
    <glyph glyph-name="uni061F" unicode="&#x61f;" horiz-adv-x="320" 
d="M128 0v64h64v-64h-64zM128 128v128h64v-128h-64zM64 256v64h64v-64h-64zM0 320v128h64v-128h-64zM64 448v64h192v-64h-192z" />
    <glyph glyph-name="uni0621" unicode="&#x621;" horiz-adv-x="256" 
d="M0 0v64h64v-64h-64zM64 64v64h128v-64h-128zM0 128v64h64v-64h-64zM64 192v64h128v-64h-128z" />
    <glyph glyph-name="uni0622" unicode="&#x622;" horiz-adv-x="320" 
d="M64 0v448h64v-448h-64zM0 512v64h64v-64h-64zM128 512v64h64v-64h-64zM64 576v64h64v-64h-64zM192 576v64h64v-64h-64z" />
    <glyph glyph-name="uni0623" unicode="&#x623;" horiz-adv-x="256" 
d="M64 0v448h64v-448h-64zM0 512v64h64v64h64v-64h64v-64h-192zM128 640v64h64v-64h-64z" />
    <glyph glyph-name="uni0624" unicode="&#x624;" horiz-adv-x="320" 
d="M0 -128v64h192v-64h-192zM0 128v128h64v-128h-64zM192 -64v128h-128v64h128v128h64v-320h-64zM64 256v64h128v-64h-128zM0 384v64h64v64h64v-64h64v-64h-192zM128 512v64h64v-64h-64z" />
    <glyph glyph-name="uni0625" unicode="&#x625;" horiz-adv-x="256" 
d="M0 -128v64h64v64h64v-64h64v-64h-192zM128 0v448h64v-448h-64z" />
    </font>
</defs>
</svg>
